<svg viewBox="0 0 100 100" xml:space="preserve" xmlns="http://www.w3.org/2000/svg"><g id="Layer_8"><path d="M83.48 24.461a4.628 4.628 0 0 0-4.628-4.628 4.59 4.59 0 0 0-2.434.707 4.59 4.59 0 0 0 .428-1.921 4.628 4.628 0 0 0-4.628-4.628c-2.002 0-3.691 1.278-4.336 3.058a4.597 4.597 0 0 0-2.688-.873c-.92 0-1.773.276-2.493.739.039-.242.075-.486.075-.739a4.628 4.628 0 0 0-4.628-4.628c-1.721 0-3.206.951-4.003 2.345a4.575 4.575 0 0 0-2.237-.6 4.628 4.628 0 0 0-4.628 4.628c0 .172.032.334.051.501a4.585 4.585 0 0 0-2.055-.501c-.122 0-.237.027-.357.036a4.628 4.628 0 1 0-8.899-1.781c0 .064.016.123.019.186a4.577 4.577 0 0 0-1.228-.186c-.253 0-.497.035-.739.075 0-.025.008-.049.008-.075a4.628 4.628 0 1 0-9.256 0 4.628 4.628 0 0 0-4.628 4.628c0 .258.035.506.076.752-2.23.333-3.945 2.237-3.945 4.56 0 2.2 1.538 4.033 3.595 4.503l-2.296 3.024 29.658 7.284 24.94-4.856 8.834-4.097-.45-3.231a4.633 4.633 0 0 0 2.872-4.282z" fill="#E8E462" stroke="#191919" stroke-miterlimit="10"/><path d="M26.663 92.726c-.991 0-1.829-.71-1.993-1.688L14.35 29.072a2.018 2.018 0 0 1 1.993-2.352h67.313a2.016 2.016 0 0 1 1.993 2.352L75.33 91.037a2.014 2.014 0 0 1-1.993 1.689H26.663z" fill="#EFEFEF"/><path d="M83.656 27.22c.94 0 1.654.844 1.5 1.771l-10.32 61.964a1.521 1.521 0 0 1-1.5 1.271H26.663a1.521 1.521 0 0 1-1.5-1.271L14.844 28.99a1.521 1.521 0 0 1 1.5-1.771h67.312m0-.999H16.344a2.518 2.518 0 0 0-2.486 2.935l10.32 61.964a2.512 2.512 0 0 0 2.486 2.107h46.673a2.512 2.512 0 0 0 2.486-2.107l10.32-61.965a2.517 2.517 0 0 0-2.487-2.934z" fill="#191919"/><path fill="#A52929" d="M32.411 92.225h-7.036L14.549 27.22h10.129zM46.482 92.225h-7.036L34.807 27.22h10.129zM60.554 92.225h-7.036l1.546-65.005h10.129zM74.625 92.225h-7.036l7.733-65.005h10.129z"/><path d="M84.438 27.22c.531 0 .934.476.847 1l-10.54 63.288a.859.859 0 0 1-.847.718H26.103a.859.859 0 0 1-.847-.718L14.716 28.22a.859.859 0 0 1 .847-1h68.875m0-1H15.562a1.858 1.858 0 0 0-1.833 2.164l10.54 63.288c.15.9.921 1.553 1.833 1.553h47.795c.912 0 1.684-.653 1.833-1.553l10.54-63.288a1.855 1.855 0 0 0-1.832-2.164z" fill="#191919"/></g></svg>