<svg aria-hidden="true" style="width:0;height:0;position:absolute;overflow:hidden" xmlns="http://www.w3.org/2000/svg"><defs><symbol id="icon-favorite" viewBox="0 0 32 32"><path d="m16 30.144-2.24-2.217C5.44 20.64 0 15.726 0 9.71 0 4.793 3.84.995 8.8.995c2.72.002 5.44 1.269 7.2 3.326A9.64 9.64 0 0 1 23.195.998h.005c4.96 0 8.8 3.801 8.8 8.711 0 6.021-5.44 10.933-13.76 18.217L16 30.145z"/></symbol><symbol id="icon-close" viewBox="0 0 32 32"><path d="M32 3.223 28.777 0 16 12.777 3.223 0 0 3.223 12.777 16 0 28.777 3.223 32 16 19.223 28.777 32 32 28.777 19.223 16 32 3.223z"/></symbol><symbol id="icon-close-modal" viewBox="0 0 32 32"><path d="M23.734 10.304 22.23 8.8l-5.963 5.962L10.305 8.8l-1.504 1.504 5.962 5.962-5.962 5.963 1.504 1.504 5.962-5.963 5.963 5.963 1.504-1.504-5.963-5.963 5.963-5.962z"/></symbol><symbol id="icon-film" viewBox="0 0 32 32"><path fill="none" stroke="red" style="stroke:var(--color1,#fff)" stroke-linejoin="round" stroke-linecap="round" stroke-width="2.667" d="M26.427 2.667H5.574a2.907 2.907 0 0 0-2.907 2.907v20.853a2.907 2.907 0 0 0 2.907 2.907v0h20.853a2.907 2.907 0 0 0 2.907-2.907v0V5.574a2.907 2.907 0 0 0-2.907-2.907v0zm-17.094 0v26.667M22.667 2.667v26.667M2.667 16h26.667M2.667 9.333h6.667M2.667 22.667h6.667m13.333 0h6.667M22.667 9.333h6.667"/></symbol><symbol id="icon-search" viewBox="0 0 32 32"><path fill="none" stroke="#fff" style="stroke:var(--color1,#fff)" stroke-linejoin="round" stroke-linecap="round" stroke-width="2.667" d="M14.667 25.333c5.891 0 10.667-4.776 10.667-10.667S20.558 3.999 14.667 3.999v0C8.776 3.999 4 8.775 4 14.666s4.776 10.667 10.667 10.667v0zM28 28l-5.8-5.8"/></symbol><symbol id="icon-arrow-right" viewBox="0 0 32 32"><path d="m19.414 27.414 10-10a2 2 0 0 0 0-2.828l-10-10a2 2 0 1 0-2.828 2.828L23.172 14H4a2 2 0 1 0 0 4h19.172l-6.586 6.586c-.39.39-.586.902-.586 1.414s.195 1.024.586 1.414a2 2 0 0 0 2.828 0z"/></symbol><symbol id="icon-arrow-left" viewBox="0 0 32 32"><path d="m12.586 27.414-10-10a2 2 0 0 1 0-2.828l10-10a2 2 0 1 1 2.828 2.828L8.828 14H28a2 2 0 1 1 0 4H8.828l6.586 6.586c.39.39.586.902.586 1.414s-.195 1.024-.586 1.414a2 2 0 0 1-2.828 0z"/></symbol><symbol id="icon-arrow-up" viewBox="0 0 32 32"><path d="m27.414 12.586-10-10a2 2 0 0 0-2.828 0l-10 10a2 2 0 1 0 2.828 2.828L14 8.828V28a2 2 0 1 0 4 0V8.828l6.586 6.586c.39.39.902.586 1.414.586s1.024-.195 1.414-.586a2 2 0 0 0 0-2.828z"/></symbol><symbol id="icon-cinema" viewBox="0 0 32 32"><path fill="orange" style="fill:var(--color1,orange)" d="M27.831 14.486c-.324 0-.66.068-.999.201l-3.886 1.526a7.058 7.058 0 0 0 2.147-5.072 7.089 7.089 0 0 0-7.081-7.081c-3.43 0-6.298 2.452-6.944 5.695a5.017 5.017 0 0 0-3.636-1.558 5.029 5.029 0 0 0-2.817 9.199c-.073.028-.135.06-.194.097l.004-.003a1.09 1.09 0 0 0-.499.915v7.142a2.397 2.397 0 0 0 2.394 2.394h13.384a2.397 2.397 0 0 0 2.394-2.394v-2.726c.238.183.511.341.802.46l.023.008 3.908 1.535c.339.133.675.201.998.201 1.025 0 1.769-.694 1.769-1.652v-7.237c0-.957-.744-1.651-1.769-1.651z"/><path style="fill:var(--color2,#000)" d="M28.657 23.338c0 .518-.577.715-1.282.438l-3.908-1.535c-.705-.277-1.282-.927-1.282-1.445v-2.153c0-.518.577-1.168 1.282-1.445l3.908-1.535c.705-.277 1.282-.08 1.282.438v7.236zM18.157 5.111a5.994 5.994 0 1 0 .001 11.987 5.994 5.994 0 0 0-.001-11.987zm-1.826 5.113c-.826-.433-1.793-1.145-2.055-1.407-.437-.437-.146-.855.291-1.292s.855-.728 1.292-.291c.262.262.974 1.229 1.407 2.055a1.625 1.625 0 0 0-.932.924l-.004.011zm1.826 2.156a1.276 1.276 0 1 1 0-2.552 1.276 1.276 0 1 1 0 2.552zM7.577 9.248a3.944 3.944 0 1 0 0 7.889 3.944 3.944 0 0 0 0-7.889zm-1.51 6.462c-.307.307-.601.103-.908-.205s-.512-.601-.205-.908c.184-.184.864-.685 1.445-.989.118.304.354.54.65.655l.008.003c-.305.581-.805 1.26-.989 1.445zm1.51-1.672a.847.847 0 1 1 0-1.694.847.847 0 1 1 0 1.694zM18.084 18.839a7.706 7.706 0 0 1-5.502-2.306h-.483a5.679 5.679 0 0 1-6.94 1.835v7.142a1.31 1.31 0 0 0 1.306 1.306h13.384a1.31 1.31 0 0 0 1.306-1.306v-7.309a7.563 7.563 0 0 1-3.065.637h-.006z"/></symbol><symbol id="icon-membrane" viewBox="0 0 32 32"><path fill="orange" style="fill:var(--color1,orange)" d="M8.348 27.396c-2.195 0-4.15-.757-5.977-2.313-.383-.326-.771-.937-.771-1.567V8.485c0-.733.557-1.308 1.268-1.308.24 0 .606.068.988.394C5.252 8.76 6.721 9.338 8.347 9.338h.001c2.298 0 4.664-1.098 7.169-2.26 2.621-1.216 5.331-2.473 8.135-2.473 2.195 0 4.15.757 5.978 2.313.383.325.771.937.771 1.567v15.031c0 .733-.557 1.308-1.268 1.308-.24 0-.606-.068-.988-.394-1.396-1.189-2.865-1.766-4.492-1.766-2.298 0-4.664 1.098-7.169 2.26-2.621 1.216-5.331 2.473-8.134 2.473h-.001z"/><path style="fill:var(--color2,#000)" d="M2.746 23.516c0 .202.165.523.368.695 8.591 7.317 17.181-7.971 25.772-.654.202.172.367.162.367-.041V8.485c0-.202-.165-.523-.367-.694-8.591-7.317-17.182 7.971-25.772.654-.202-.172-.368-.162-.368.041v15.031zm25.477-3.345c.202.145.368.443.368.645v.75c0 .203-.165.235-.368.09a8.373 8.373 0 0 0-1.397-.826l-.052-.022c-.202-.092-.367-.321-.367-.524v-.75c0-.202.165-.304.367-.212.555.257 1.03.54 1.474.864l-.024-.017zm-3.742-1.476a.428.428 0 0 1 .368.416v.75c0 .203-.165.34-.368.319a8.262 8.262 0 0 0-1.45-.021.333.333 0 0 1-.367-.333v-.75a.41.41 0 0 1 .367-.402 8.11 8.11 0 0 1 1.486.024l-.036-.003zm-3.741.405c.202-.058.367.066.368.268v.75c0 .202-.165.409-.368.468-.621.179-1.103.344-1.575.529l.125-.043c-.202.076-.367-.023-.367-.225v-.75c0-.202.165-.433.367-.51.347-.141.829-.307 1.32-.452l.13-.033zm-3.742 1.458c.202-.092.367-.001.367.201v.75c0 .202-.165.442-.367.534-.483.22-.966.446-1.45.67-.202.093-.368.004-.368-.198v-.75c0-.202.165-.443.368-.537.483-.223.966-.449 1.45-.67zm-3.742 1.678c.202-.082.368.014.368.216v.75c0 .202-.165.437-.368.519-.483.195-.966.375-1.45.532-.202.066-.368-.051-.368-.253v-.75c0-.203.165-.417.368-.482a20.188 20.188 0 0 0 1.594-.586l-.145.053zm-3.741 1.071c.202-.026.368.11.368.313v.75a.44.44 0 0 1-.368.422c-.483.063-.966.09-1.45.074a.393.393 0 0 1-.368-.389v-.75c0-.202.165-.353.368-.346.483.017.966-.011 1.45-.074zm-3.742-.369c.202.074.368.288.368.491v.75c0 .202-.165.318-.368.244a7.9 7.9 0 0 1-1.483-.727l.033.019c-.202-.124-.368-.405-.368-.607v-.75c0-.203.165-.253.368-.128.483.298.967.531 1.45.707zm20.565-12.839a.612.612 0 0 1 .367.519v6.965c0 .203-.165.293-.367.216-1.886-.722-3.772-.57-5.659-.022-.202.059-.367-.054-.367-.256v-6.965c0-.202.165-.42.367-.479 1.886-.548 3.772-.7 5.659.021zm-7.773.732c.202-.083.368.017.368.219v6.965c0 .202-.165.433-.368.516-1.886.777-3.773 1.77-5.659 2.502-.202.079-.368-.026-.368-.228V13.84c0-.202.165-.428.368-.507 1.886-.732 3.773-1.726 5.659-2.503zm-7.772 3.189c.202-.05.368.068.368.27v6.965a.51.51 0 0 1-.368.465c-1.886.47-3.773.499-5.659-.39-.202-.095-.368-.351-.368-.553v-6.965c0-.202.165-.277.368-.182 1.886.89 3.773.86 5.659.39zM28.1 8.16c.202.14.367.435.367.636v.75c0 .202-.165.239-.367.099a8.207 8.207 0 0 0-1.396-.794l-.053-.021c-.202-.088-.367-.314-.367-.516v-.75c0-.202.165-.307.367-.219a8.367 8.367 0 0 1 1.476.833l-.026-.018zm-3.742-1.401a.42.42 0 0 1 .368.41v.75c0 .202-.165.343-.368.325a8.373 8.373 0 0 0-1.482.004l.032-.002a.328.328 0 0 1-.368-.329v-.75c0-.202.165-.389.368-.406a8.261 8.261 0 0 1 1.45-.001zm-3.742.453c.202-.06.368.062.368.264v.75c0 .202-.165.411-.368.471-.483.143-.966.311-1.45.497-.202.078-.368-.021-.368-.223v-.75c0-.202.165-.434.368-.512.483-.186.966-.354 1.45-.496zM16.875 8.69c.202-.092.368-.002.368.2v.75c0 .202-.165.442-.368.535-.483.221-.967.447-1.45.67-.202.093-.368.004-.368-.199v-.75c0-.202.165-.443.368-.536.483-.223.967-.449 1.45-.67zm-3.742 1.672c.202-.081.368.016.368.218v.75c0 .202-.165.436-.368.517-.332.143-.812.32-1.301.48l-.149.042c-.202.064-.367-.054-.368-.256v-.75c0-.202.165-.415.368-.479a19.683 19.683 0 0 0 1.589-.573l-.139.051zm-3.742 1.036c.202-.024.368.115.368.317v.75a.434.434 0 0 1-.368.418 8.68 8.68 0 0 1-1.45.053.4.4 0 0 1-.368-.395v-.75a.34.34 0 0 1 .368-.34c.483.025.966.004 1.45-.052zm-3.741-.43c.202.078.368.296.368.498v.75c0 .202-.165.315-.368.237a8.029 8.029 0 0 1-1.481-.757l.031.019c-.202-.129-.368-.413-.368-.615v-.75c0-.202.165-.249.368-.12.416.272.893.52 1.395.719l.055.019z"/></symbol><symbol id="icon-clapper" viewBox="0 0 32 32"><path style="fill:var(--color3,#000)" stroke-linejoin="round" stroke-linecap="round" stroke-miterlimit="10" stroke-width=".56" stroke="#000" d="M5.152 17.312H28v10.816H5.152V17.312z"/><path fill="orange" style="fill:var(--color4,orange)" stroke-linejoin="round" stroke-linecap="round" stroke-miterlimit="10" stroke-width=".56" stroke="#000" d="M28 12.832h-6.4l-4.48 4.48h6.752L28 13.184zM9.792 12.832l-4.48 4.48h6.304l4.48-4.48z"/><path style="fill:var(--color5,#000)" stroke-linejoin="round" stroke-linecap="round" stroke-miterlimit="10" stroke-width=".56" stroke="#000" d="M5.152 12.832v4.48h.16l4.48-4.48zM16.096 12.832l-4.48 4.48h5.504l4.48-4.48zM28 13.184l-4.128 4.128H28z"/><path fill="orange" style="fill:var(--color4,orange)" stroke-linejoin="round" stroke-linecap="round" stroke-miterlimit="10" stroke-width=".56" stroke="#000" d="m26.048 2.592-6.144 1.664-3.168 5.472L23.232 8l2.912-5.088zM8.48 7.296 5.28 12.8l6.112-1.632 3.168-5.504z"/><path style="fill:var(--color5,#000)" stroke-linejoin="round" stroke-linecap="round" stroke-miterlimit="10" stroke-width=".56" stroke="#000" d="m4 8.512 1.152 4.32.128-.032 3.2-5.504zM14.56 5.664l-3.168 5.504 5.344-1.44 3.168-5.472zM26.144 2.912 23.232 8l4-1.088z"/><path fill="orange" style="fill:var(--color4,orange)" stroke-linejoin="round" stroke-linecap="round" stroke-miterlimit="10" stroke-width=".56" stroke="#000" d="M14.368 25.728v-5.984l5.696 2.976z"/></symbol><symbol id="icon-moon" viewBox="0 0 20 20"><path d="M13.719 1.8A8.759 8.759 0 1 1 1.8 13.719c3.335 1.867 7.633 1.387 10.469-1.449s3.318-7.134 1.45-10.47z"/></symbol><symbol id="icon-sun" viewBox="0 0 32 32"><path d="M16 26a2 2 0 0 1 2 2v2a2 2 0 1 1-4 0v-2a2 2 0 0 1 2-2zm0-20a2 2 0 0 1-2-2V2a2 2 0 1 1 4 0v2a2 2 0 0 1-2 2zm14 8a2 2 0 1 1 0 4h-2a2 2 0 1 1 0-4h2zM6 16a2 2 0 0 1-2 2H2a2 2 0 1 1 0-4h2a2 2 0 0 1 2 2zm19.899 7.071 1.414 1.414a2 2 0 1 1-2.828 2.828l-1.414-1.414a2 2 0 1 1 2.828-2.828zM6.101 8.929 4.687 7.515a2 2 0 1 1 2.828-2.828l1.414 1.414a2 2 0 1 1-2.828 2.828zm19.798 0a2 2 0 1 1-2.828-2.828l1.414-1.414a2 2 0 1 1 2.828 2.828l-1.414 1.414zM6.101 23.071a2 2 0 1 1 2.828 2.828l-1.414 1.414a2 2 0 1 1-2.828-2.828l1.414-1.414zM16 8a8 8 0 1 0 0 16 8 8 0 0 0 0-16zm0 13a5 5 0 1 1 .001-10.001A5 5 0 0 1 16 21z"/></symbol><symbol id="icon-rupor" viewBox="0 0 32 32"><path fill="#f0e0e0" style="fill:var(--color1,#f0e0e0)" d="M11.165 28.396a1.985 1.985 0 0 1-1.967-1.782c-.379-3.463-1.517-6.071-3.096-9.803h3.71c1.553 2.824 2.58 5.705 3.29 9.204a1.982 1.982 0 0 1-1.938 2.381z"/><path style="fill:var(--color2,#000)" opacity=".1" d="M13.091 25.957c-.623-3.05-1.49-5.631-2.738-8.117a24.81 24.81 0 0 0-.62-1.184l.079.155h-3.71c.308.728.598 1.412.87 2.069h1.935c.685 0 1.28.462 1.467 1.121.837 2.959.426 5.712-1.104 6.966a1.976 1.976 0 0 0 2.214 1.404c1.118-.176 1.833-1.305 1.607-2.414z"/><path fill="#e0e0e0" style="fill:var(--color1,#e0e0e0)" d="m27.236 16.154-7.154.573a1.7 1.7 0 0 1-1.834-1.694v-1.146a1.7 1.7 0 0 1 1.841-1.693h-.006l7.154.573a1.7 1.7 0 0 1 .006 3.386h-.006z"/><path style="fill:var(--color2,#000)" opacity=".1" d="m27.236 16.154-7.154.573a1.7 1.7 0 0 1-1.834-1.694v-1.146a1.7 1.7 0 0 1 1.841-1.693h-.006l7.154.573a1.7 1.7 0 0 1 .006 3.386h-.006z"/><path fill="#e0e0e1" style="fill:var(--color1,#e0e0e1)" d="M22.983 5.313c-3.787 2.711-7.439 4.666-10.882 5.451v7.393c3.443.786 7.095 2.74 10.882 5.451.873.625 2.087.008 2.087-1.065V6.379c0-1.074-1.214-1.69-2.087-1.065z"/><path style="fill:var(--color2,#000)" opacity=".1" d="M25.07 6.378c0-1.074-1.214-1.69-2.087-1.065-.227.169-.625.449-1.028.724l-.197.127c-.014 5.38-2.649 10.123-6.656 12.946 2.54 1.014 5.176 2.562 7.881 4.498.873.625 2.087.008 2.087-1.065V6.379z"/><path fill="#323242" style="fill:var(--color3,#323242)" d="M24.361 25.317a.82.82 0 0 1-.819-.819V4.423a.82.82 0 1 1 1.64 0v20.075a.82.82 0 0 1-.82.82z"/><path fill="#ff004b" style="fill:var(--color4,#ff004b)" d="M12.101 18.157H6.896a3.696 3.696 0 1 1 0-7.392h5.205v7.393z"/><path style="fill:var(--color2,#000)" opacity=".1" d="M10.64 10.764c0 5.097-2.782 5.977-6.525 6.125a3.683 3.683 0 0 0 2.781 1.267h5.205v-7.392H10.64z"/></symbol><symbol id="icon-info" viewBox="0 0 32 32"><path fill="#fff" style="fill:var(--color5,#fff)" d="M15.348 3.216C8.86 3.538 3.577 8.793 3.22 15.28a12.748 12.748 0 0 0 1.986 7.596l-1.564 4.622a.68.68 0 0 0 .862.862l4.622-1.564a12.748 12.748 0 0 0 7.596 1.986c6.486-.357 11.742-5.64 12.064-12.128.376-7.584-5.852-13.813-13.436-13.436z"/><path fill="#ff001b" style="fill:var(--color6,#ff001b)" d="M17.419 22.88h-2.838a.5.5 0 0 1-.501-.501v-6.678c0-.276.224-.501.501-.501h2.838c.276 0 .501.224.501.501v6.678a.501.501 0 0 1-.501.501zM16 8.96a2.32 2.32 0 0 0 0 4.64 2.32 2.32 0 0 0 0-4.64z"/></symbol><symbol id="icon-video" viewBox="0 0 32 32"><path fill="#e15c64" style="fill:var(--color4,#e15c64)" stroke-linejoin="round" stroke-linecap="round" stroke-miterlimit="10" stroke-width=".56" stroke="#000" d="M28 16c0 6.627-5.373 12-12 12S4 22.627 4 16 9.373 4 16 4s12 5.373 12 12z"/><path fill="#fff" style="fill:var(--color6,#fff)" stroke-linejoin="round" stroke-linecap="round" stroke-miterlimit="10" stroke-width=".56" stroke="#000" d="M16.384 19.232h-5.472a1.72 1.72 0 0 1-1.728-1.728v-3.008c0-.96.768-1.728 1.728-1.728h5.472c.96 0 1.728.768 1.728 1.728v3.008a1.72 1.72 0 0 1-1.728 1.728z"/><path fill="#fff" style="fill:var(--color6,#fff)" stroke-linejoin="round" stroke-linecap="round" stroke-miterlimit="10" stroke-width=".56" stroke="#000" d="m18.112 18.176 4.384 1.216v-6.784l-4.384 1.216z"/></symbol><symbol id="icon-ukraine" viewBox="0 0 32 32"><path fill="#245eac" style="fill:var(--color6,#245eac)" d="M1.6 6.4h28.8V16H1.6z"/><path fill="#fed500" style="fill:var(--color7,#fed500)" d="M1.6 16h28.8v9.6H1.6z"/></symbol><symbol id="icon-the-united-states" viewBox="0 0 32 32"><path fill="#b22335" style="fill:var(--color4,#b22335)" d="M1.6 20.081h28.8v1.166H1.6zM1.6 15.417h28.8v1.166H1.6zM1.6 22.413h28.8v1.166H1.6zM1.6 17.749h28.8v1.166H1.6zM1.6 8.421h28.8v1.166H1.6zM1.6 13.085h28.8v1.166H1.6zM1.6 10.753h28.8v1.166H1.6z"/><path fill="#fff" style="fill:var(--color2,#fff)" d="M1.6 9.587v1.166h28.8V9.587zM1.6 12.502v.583h28.8v-1.166H1.6zM1.6 14.834v.583h28.8v-1.166H1.6zM1.6 21.83v.583h28.8v-1.166H1.6zM1.6 19.498v.583h28.8v-1.166H1.6zM1.6 17.166v.583h28.8v-1.166H1.6z"/><path fill="#3d3b6e" style="fill:var(--color5,#3d3b6e)" d="M1.6 8.421h11.52v8.162H1.6z"/><path fill="#fff" style="fill:var(--color2,#fff)" d="m2.56 8.771-.105.322h-.339l.274.199-.105.323.274-.199.274.199-.105-.323.274-.199h-.339zM2.56 10.403l-.105.322h-.339l.274.199-.105.322.274-.199.274.199-.105-.322.274-.199h-.339zM2.56 12.036l-.105.322h-.339l.274.199-.105.322.274-.199.274.199-.105-.322.274-.199h-.339zM2.56 13.668l-.105.322h-.339l.274.199-.105.322.274-.199.274.199-.105-.322.274-.199h-.339zM2.665 15.623l-.105-.322-.105.322h-.339l.274.199-.105.322.274-.199.274.199-.105-.322.274-.199zM3.52 9.587l-.105.322h-.339l.274.199-.105.322.274-.199.274.199-.105-.322.274-.199h-.339zM3.52 11.22l-.105.322h-.339l.274.199-.105.322.274-.199.274.199-.105-.322.274-.199h-.339zM3.52 12.852l-.105.322h-.339l.274.199-.105.323.274-.199.274.199-.105-.323.274-.199h-.339zM3.625 14.806l-.105-.322-.105.322h-.339l.274.199-.105.322.274-.199.274.199-.105-.322.274-.199zM4.48 8.771l-.105.322h-.339l.274.199-.105.323.274-.199.274.199-.105-.323.274-.199h-.339zM4.48 10.403l-.105.322h-.339l.274.199-.105.322.274-.199.274.199-.105-.322.274-.199h-.339zM4.48 12.036l-.105.322h-.339l.274.199-.105.322.274-.199.274.199-.105-.322.274-.199h-.339zM4.48 13.668l-.105.322h-.339l.274.199-.105.322.274-.199.274.199-.105-.322.274-.199h-.339zM4.585 15.623l-.105-.322-.105.322h-.339l.274.199-.105.322.274-.199.274.199-.105-.322.274-.199zM5.44 9.587l-.105.322h-.339l.274.199-.105.322.274-.199.274.199-.105-.322.274-.199h-.339zM5.44 11.22l-.105.322h-.339l.274.199-.105.322.274-.199.274.199-.105-.322.274-.199h-.339zM5.44 12.852l-.105.322h-.339l.274.199-.105.323.274-.199.274.199-.105-.323.274-.199h-.339zM5.545 14.806l-.105-.322-.105.322h-.339l.274.199-.105.322.274-.199.274.199-.105-.322.274-.199zM6.4 8.771l-.105.322h-.339l.274.199-.105.323.274-.199.274.199-.105-.323.274-.199h-.339zM6.4 10.403l-.105.322h-.339l.274.199-.105.322.274-.199.274.199-.105-.322.274-.199h-.339zM6.4 12.036l-.105.322h-.339l.274.199-.105.322.274-.199.274.199-.105-.322.274-.199h-.339zM6.4 13.668l-.105.322h-.339l.274.199-.105.322.274-.199.274.199-.105-.322.274-.199h-.339zM6.505 15.623l-.105-.322-.105.322h-.339l.274.199-.105.322.274-.199.274.199-.105-.322.274-.199zM7.36 9.587l-.105.322h-.339l.274.199-.105.322.274-.199.274.199-.105-.322.274-.199h-.339zM7.36 11.22l-.105.322h-.339l.274.199-.105.322.274-.199.274.199-.105-.322.274-.199h-.339zM7.36 12.852l-.105.322h-.339l.274.199-.105.323.274-.199.274.199-.105-.323.274-.199h-.339zM7.465 14.806l-.105-.322-.105.322h-.339l.274.199-.105.322.274-.199.274.199-.105-.322.274-.199zM8.32 8.771l-.105.322h-.339l.274.199-.105.323.274-.199.274.199-.105-.323.274-.199h-.339zM8.32 10.403l-.105.322h-.339l.274.199-.105.322.274-.199.274.199-.105-.322.274-.199h-.339zM8.32 12.036l-.105.322h-.339l.274.199-.105.322.274-.199.274.199-.105-.322.274-.199h-.339zM8.32 13.668l-.105.322h-.339l.274.199-.105.322.274-.199.274.199-.105-.322.274-.199h-.339zM8.425 15.623l-.105-.322-.105.322h-.339l.274.199-.105.322.274-.199.274.199-.105-.322.274-.199zM9.28 9.587l-.105.322h-.339l.274.199-.105.322.274-.199.274.199-.105-.322.274-.199h-.339zM9.28 11.22l-.105.322h-.339l.274.199-.105.322.274-.199.274.199-.105-.322.274-.199h-.339zM9.28 12.852l-.105.322h-.339l.274.199-.105.323.274-.199.274.199-.105-.323.274-.199h-.339zM9.385 14.806l-.105-.322-.105.322h-.339l.274.199-.105.322.274-.199.274.199-.105-.322.274-.199zM10.24 8.771l-.105.322h-.339l.274.199-.105.323.274-.199.274.199-.105-.323.274-.199h-.339zM10.24 10.403l-.105.322h-.339l.274.199-.105.322.274-.199.274.199-.105-.322.274-.199h-.339zM10.24 12.036l-.105.322h-.339l.274.199-.105.322.274-.199.274.199-.105-.322.274-.199h-.339zM10.24 13.668l-.105.322h-.339l.274.199-.105.322.274-.199.274.199-.105-.322.274-.199h-.339zM10.345 15.623l-.105-.322-.105.322h-.339l.274.199-.105.322.274-.199.274.199-.105-.322.274-.199zM11.2 9.587l-.105.322h-.339l.274.199-.105.322.274-.199.274.199-.105-.322.274-.199h-.339zM11.2 11.22l-.105.322h-.339l.274.199-.105.322.274-.199.274.199-.105-.322.274-.199h-.339zM11.2 12.852l-.105.322h-.339l.274.199-.105.323.274-.199.274.199-.105-.323.274-.199h-.339zM11.305 14.806l-.105-.322-.105.322h-.339l.274.199-.105.322.274-.199.274.199-.105-.322.274-.199zM11.991 9.292l-.105.323.274-.199.274.199-.105-.323.274-.199h-.339l-.105-.322-.105.322h-.339zM12.16 10.403l-.105.322h-.339l.274.199-.105.322.274-.199.274.199-.105-.322.274-.199h-.339zM12.16 12.036l-.105.322h-.339l.274.199-.105.322.274-.199.274.199-.105-.322.274-.199h-.339zM12.16 13.668l-.105.322h-.339l.274.199-.105.322.274-.199.274.199-.105-.322.274-.199h-.339zM12.265 15.623l-.105-.322-.105.322h-.339l.274.199-.105.322.274-.199.274.199-.105-.322.274-.199z"/></symbol><symbol id="icon-the-united-kingdom" viewBox="0 0 32 32"><path fill="#c13d39" style="fill:var(--color1,#c13d39)" d="M14.561 8.803h2.879c0 1.878.001 3.755-.003 5.633 0 .103.027.127.128.127 4.276-.003 8.552-.002 12.829-.002v2.879c-4.276 0-8.552 0-12.829-.002-.101 0-.128.023-.128.127.004 1.878.003 3.755.003 5.633h-2.879c0-1.878-.001-3.755.003-5.633 0-.103-.027-.127-.128-.127-4.276.003-8.552.002-12.829.002v-2.879c4.276 0 8.552 0 12.829.002.101 0 .128-.023.128-.127-.004-1.878-.003-3.756-.003-5.633z"/><path fill="#fff" style="fill:var(--color2,#fff)" d="M14.561 8.803c0 1.878-.001 3.755.003 5.633 0 .103-.027.127-.128.127-4.276-.003-8.552-.002-12.829-.002v-.967c.015.002.03.005.044.005h6.228c.018 0 .046.014.054-.021-.016-.009-.032-.019-.049-.027l-6.205-3.102c-.023-.012-.048-.017-.073-.025v-.54c.037.016.076.031.112.05l7.215 3.609a.48.48 0 0 0 .224.06c.637-.002 1.274-.001 1.911-.002.027 0 .057.008.09-.018-.04-.021-.071-.039-.104-.055l-8.96-4.48c-.156-.078-.319-.146-.465-.243h3.216c.031.019.062.04.094.056l8.544 4.273c.115.058.116.058.116-.07V8.906c0-.034-.004-.067-.005-.1l.967-.001zM17.439 23.197c0-1.878.001-3.755-.003-5.633 0-.103.027-.127.128-.127 4.276.003 8.552.002 12.829.002v.967c-.026-.002-.052-.005-.078-.005h-6.161c-.028 0-.058-.011-.091.017.031.017.059.034.087.048l6.16 3.08c.026.013.055.021.082.032v.54c-.034-.015-.068-.029-.102-.046l-7.223-3.613a.484.484 0 0 0-.224-.06c-.637.002-1.274.001-1.911.002-.027 0-.057-.009-.09.018l.103.055 9.321 4.661c.036.018.078.027.104.062h-3.216c-.022-.034-.061-.041-.093-.057l-8.55-4.276c-.032-.016-.062-.042-.107-.039-.001.03-.004.059-.004.089v4.193c0 .03.004.06.005.089l-.968.001zM30.394 14.561c-4.276 0-8.552 0-12.829.002-.101 0-.128-.023-.128-.127.004-1.878.003-3.755.003-5.633h.967c-.002.022-.005.044-.005.067v4.227c0 .026.003.051.005.09l.116-.056c2.603-1.301 5.207-2.601 7.809-3.904.276-.138.559-.265.825-.423h1.08c-.039.022-.077.045-.117.065l-9.304 4.653c-.036.018-.083.026-.109.073.023.002.038.004.053.004l1.968.001a.395.395 0 0 0 .181-.052l9.374-4.688c.032-.016.072-.022.092-.058.046.02.021.061.021.09.002.51.001 1.02.001 1.529-.028.011-.056.019-.082.032l-6.16 3.08c-.028.014-.056.031-.084.046l.003.019h6.211c.037 0 .075-.004.112-.005v.969zM1.606 17.439c4.276 0 8.552 0 12.829-.002.101 0 .128.023.128.127-.004 1.878-.003 3.755-.003 5.633h-.967c.002-.034.005-.067.005-.1v-4.158c0-.128 0-.128-.116-.07L5.65 22.786c-.27.135-.545.26-.807.412H3.786c.012-.039.05-.04.078-.054a788.6 788.6 0 0 1 2.057-1.029c2.432-1.216 4.865-2.432 7.296-3.649.026-.013.068-.013.071-.064h-.114c-.615 0-1.229.001-1.844-.001h-.005a.554.554 0 0 0-.256.063l.003-.001c-3.114 1.559-6.229 3.116-9.344 4.674-.036.017-.079.025-.103.062-.046-.02-.021-.061-.021-.09-.002-.51-.001-1.02-.001-1.529.028-.01.056-.018.083-.031l6.174-3.088c.024-.012.056-.017.076-.058H1.704c-.034 0-.067.004-.1.005v-.967z"/><path fill="#243775" style="fill:var(--color3,#243775)" d="M18.406 23.197c-.002-.03-.005-.06-.005-.089v-4.193c0-.029.003-.059.004-.089.044-.004.074.022.107.039 2.851 1.425 5.701 2.85 8.55 4.276.032.016.071.023.093.057h-8.748zM27.155 8.803c-.266.158-.549.284-.825.423-2.602 1.303-5.206 2.603-7.809 3.904l-.116.056c-.002-.039-.005-.064-.005-.09V8.869c0-.022.004-.044.005-.067h8.749zM4.845 23.197c.261-.152.537-.277.807-.412l7.832-3.917c.115-.058.116-.058.116.07v4.158c0 .034-.004.067-.005.1H4.846zM13.594 8.803c.002.034.005.067.005.1v4.158c0 .128 0 .128-.116.07L4.939 8.858c-.033-.016-.063-.037-.094-.056h8.748z"/><path fill="#c13d39" style="fill:var(--color1,#c13d39)" d="M1.629 23.197c.024-.037.067-.045.103-.063l9.344-4.674a.547.547 0 0 1 .257-.061c.615.003 1.229.001 1.844.001h.114c-.004.051-.046.051-.071.064l-7.296 3.649-2.057 1.029c-.028.014-.067.015-.078.054H1.63zM30.371 8.803c-.02.036-.06.042-.092.058l-9.374 4.688a.392.392 0 0 1-.181.052l-1.968-.001c-.015 0-.03-.003-.053-.004.026-.047.073-.055.109-.073 3.101-1.552 6.203-3.102 9.304-4.653.04-.02.078-.044.117-.065h2.137z"/><path fill="#243775" style="fill:var(--color3,#243775)" d="M30.394 13.594c-.037.002-.075.005-.112.005h-6.211l-.003-.019c.028-.015.055-.032.084-.046l6.16-3.08c.026-.013.055-.021.082-.032v3.171zM1.606 10.422c.024.008.05.014.073.025l6.205 3.102.049.027c-.008.035-.036.021-.054.021H1.651c-.015 0-.03-.004-.044-.005v-3.171zM1.606 18.406c.034-.002.067-.005.1-.005h6.232c-.02.041-.051.046-.076.058 87.987-40.57 85.965-39.541 83.944-38.513L1.687 21.547c-.026.013-.055.02-.083.031v-3.171zM30.394 21.578c-.028-.011-.056-.019-.082-.032l-6.16-3.08c-.028-.014-.056-.031-.087-.048.032-.028.063-.017.091-.017h6.161c.026 0 .052.004.078.005v3.171z"/><path fill="#c13d39" style="fill:var(--color1,#c13d39)" d="M30.371 23.197c-.026-.036-.068-.044-.104-.062l-9.321-4.661-.103-.055c.033-.027.063-.018.09-.018.637-.001 1.274.001 1.911-.002.082 0 .153.024.224.06l7.223 3.613c.033.017.068.03.102.046 0 .337.001.675-.001 1.012 0 .021.028.058-.021.067zM1.629 8.803c.147.097.309.164.465.243l8.96 4.48.104.055c-.033.026-.063.018-.09.018-.637.001-1.274-.001-1.911.002a.492.492 0 0 1-.224-.06L1.718 9.932c-.036-.018-.075-.033-.112-.05 0-.338-.001-.675.001-1.013 0-.02-.027-.058.021-.066z"/></symbol><symbol id="icon-cake" viewBox="0 0 32 32"><path fill="#e0e0e0" style="fill:var(--color1,#e0e0e0)" stroke-miterlimit="10" stroke-width=".56" stroke="#000" d="M17.595 13.154h-2.808V9.139c0-.45.365-.814.814-.814h1.179c.45 0 .814.365.814.814v4.015z"/><path fill="#b22315" style="fill:var(--color2,#b22315)" stroke-miterlimit="10" stroke-width=".56" stroke="#000" d="M17.932 5.797c0 .955-.786 1.741-1.741 1.741s-1.741-.786-1.741-1.741S16.191 2.4 16.191 2.4s1.741 2.415 1.741 3.397z"/><path fill="#e0e0e0" style="fill:var(--color1,#e0e0e0)" stroke-miterlimit="10" stroke-width=".56" stroke="#000" d="M22.087 13.575h-2.808V9.56c0-.45.365-.814.814-.814h1.179c.45 0 .814.365.814.814v4.015z"/><path fill="#b22325" style="fill:var(--color2,#b22325)" stroke-miterlimit="10" stroke-width=".56" stroke="#000" d="M21.947 6.471v.005c0 .695-.563 1.258-1.258 1.258h-.006c-.702 0-1.263-.562-1.263-1.263s1.263-2.443 1.263-2.443 1.263 1.769 1.263 2.443z"/><path fill="#e0e0e0" style="fill:var(--color1,#e0e0e0)" stroke-miterlimit="10" stroke-width=".56" stroke="#000" d="M13.102 13.575h-2.808V9.56c0-.45.365-.814.814-.814h1.179c.45 0 .814.365.814.814v4.015z"/><path fill="#b22315" style="fill:var(--color2,#b22315)" stroke-miterlimit="10" stroke-width=".56" stroke="#000" d="M12.962 6.471c0 .702-.562 1.263-1.263 1.263s-1.263-.562-1.263-1.263 1.263-2.443 1.263-2.443 1.263 1.769 1.263 2.443z"/><path fill="#fff" style="fill:var(--color3,#fff)" stroke-miterlimit="10" stroke-width=".56" stroke="#000" d="M27.592 29.6H4.409v-6.865a2.359 2.359 0 0 1 2.359-2.359h18.465a2.359 2.359 0 0 1 2.359 2.359V29.6zM21.467 12.873H10.533a3.005 3.005 0 0 0-3.005 3.005v4.497h16.945v-4.498a3.005 3.005 0 0 0-3.005-3.005z"/><path fill="#e25b60" style="fill:var(--color4,#e25b60)" stroke-miterlimit="10" stroke-width=".56" stroke="#000" d="M25.331 20.376H6.669c-1.249 0-2.26 1.102-2.26 2.462v1.724a4.05 4.05 0 0 0 2.309.731c1.256 0 2.384-.586 3.174-1.517.791.931 1.918 1.517 3.174 1.517s2.384-.586 3.174-1.517c.791.931 1.918 1.517 3.174 1.517s2.384-.586 3.174-1.517c.791.931 1.918 1.517 3.174 1.517.654 0 1.272-.163 1.828-.445v-2.01c0-1.359-1.012-2.461-2.26-2.461z"/><path fill="#e15b65" style="fill:var(--color4,#e15b65)" stroke-miterlimit="10" stroke-width=".56" stroke="#000" d="M21.467 12.873H10.533a3.005 3.005 0 0 0-3.005 3.005v1.328c.5.305 1.105.485 1.752.485.889 0 1.699-.341 2.306-.9l-.002.002a3.405 3.405 0 0 0 4.61 0 3.405 3.405 0 0 0 4.61 0 3.393 3.393 0 0 0 2.305.898c.494 0 .964-.105 1.388-.294l-.022.009v-1.529a3.005 3.005 0 0 0-3.005-3.005z"/></symbol></defs></svg>