<svg aria-hidden="true" style="width:0;height:0;position:absolute;overflow:hidden" xmlns="http://www.w3.org/2000/svg"><defs><symbol id="icon-mail" viewBox="0 0 32 32"><path fill="none" stroke="#9da4bd" style="stroke:var(--color1,#9da4bd)" stroke-linejoin="round" stroke-linecap="round" stroke-width="1.333" d="M6.4 6.667h19.2C26.92 6.667 28 7.716 28 9v14c0 1.283-1.08 2.333-2.4 2.333H6.4C5.08 25.333 4 24.282 4 23V9c0-1.284 1.08-2.333 2.4-2.333z"/><path fill="none" stroke="#9da4bd" style="stroke:var(--color1,#9da4bd)" stroke-linejoin="round" stroke-linecap="round" stroke-width="1.333" d="m26.667 9.333-10.667 8-10.667-8"/></symbol><symbol id="icon-map-pin" viewBox="0 0 32 32"><path fill="none" stroke="#9da4bd" style="stroke:var(--color1,#9da4bd)" stroke-linejoin="round" stroke-linecap="round" stroke-width="1.333" d="M26.667 13.819C26.667 21.454 16 28 16 28S5.333 21.453 5.333 13.819C5.333 8.396 10.109 4 16 4s10.667 4.396 10.667 9.819v0z"/><path fill="none" stroke="#9da4bd" style="stroke:var(--color1,#9da4bd)" stroke-linejoin="round" stroke-linecap="round" stroke-width="1.333" d="M16 18.667a4 4 0 0 0 0-8v0a4 4 0 0 0 0 8v0z"/></symbol><symbol id="icon-twitter" viewBox="0 0 32 32"><path d="M32 6.078c-1.1.493-2.376.857-3.713 1.028l-.068.007a6.556 6.556 0 0 0 2.873-3.579l.013-.046a12.88 12.88 0 0 1-4.076 1.573l-.084.014A6.558 6.558 0 0 0 15.6 9.557v.004c0 .52.043 1.021.152 1.496-5.454-.266-10.28-2.88-13.522-6.861a6.524 6.524 0 0 0-.902 3.313v.001a6.57 6.57 0 0 0 2.914 5.451 6.453 6.453 0 0 1-2.994-.823l.033.017v.072a6.592 6.592 0 0 0 5.213 6.44l.043.008a6.403 6.403 0 0 1-1.662.215h-.061.003c-.419 0-.843-.024-1.242-.112.85 2.598 3.261 4.509 6.13 4.57a13.093 13.093 0 0 1-8.122 2.8H1.57h.001-.062c-.531 0-1.055-.034-1.569-.099l.061.006c2.826 1.846 6.287 2.944 10.004 2.944h.063-.003c12.072 0 18.672-10 18.672-18.669 0-.288-.01-.57-.024-.848a13.203 13.203 0 0 0 3.258-3.355l.03-.047z"/></symbol><symbol id="icon-facebook" viewBox="0 0 32 32"><path d="M21.328 5.312h2.923V.224A36.483 36.483 0 0 0 20.143 0h-.156.008c-4.213 0-7.099 2.65-7.099 7.52V12H8.25v5.688h4.646V32h5.699V17.69h4.459l.707-5.688h-5.168V8.08c0-1.643.443-2.768 2.734-2.768z"/></symbol><symbol id="icon-instagram" viewBox="0 0 32 32"><path d="M31.968 9.408c-.074-1.701-.349-2.869-.744-3.882a7.84 7.84 0 0 0-1.847-2.837l-.001-.001A7.906 7.906 0 0 0 26.598.861l-.054-.018C25.523.449 24.362.176 22.661.101 20.949.019 20.405 0 16.059 0c-4.344 0-4.888.019-6.595.094-1.701.074-2.869.349-3.88.742a7.847 7.847 0 0 0-2.839 1.85l-.001.001A7.9 7.9 0 0 0 .919 5.465l-.018.054C.506 6.538.232 7.7.157 9.401c-.082 1.712-.101 2.256-.101 6.602 0 4.344.019 4.888.094 6.595.075 1.701.35 2.869.744 3.882a7.915 7.915 0 0 0 1.849 2.837l.001.001c.8.813 1.77 1.443 2.832 1.843 1.019.395 2.182.67 3.882.744 1.707.075 2.251.094 6.595.094 4.346 0 4.89-.019 6.595-.094 1.701-.074 2.869-.349 3.882-.742a8.237 8.237 0 0 0 4.664-4.628l.019-.055c.394-1.019.669-2.182.744-3.882.075-1.707.093-2.251.093-6.595s-.006-4.888-.08-6.595zm-2.88 13.066c-.07 1.563-.333 2.406-.552 2.97a5.336 5.336 0 0 1-3.001 3.024l-.036.013c-.563.219-1.413.482-2.97.55-1.688.075-2.194.094-6.464.094-4.269 0-4.782-.019-6.464-.094-1.563-.069-2.406-.331-2.97-.55a4.953 4.953 0 0 1-1.836-1.192l-.001-.001a4.978 4.978 0 0 1-1.184-1.803l-.011-.034c-.218-.563-.48-1.413-.549-2.97-.075-1.688-.094-2.195-.094-6.464 0-4.27.019-4.784.094-6.464.069-1.563.331-2.406.549-2.97a4.897 4.897 0 0 1 1.198-1.837l.002-.002a4.972 4.972 0 0 1 1.806-1.182l.034-.011c.56-.219 1.411-.48 2.968-.55 1.688-.074 2.194-.093 6.464-.093 4.275 0 4.782.019 6.464.093 1.562.069 2.406.331 2.97.55a4.91 4.91 0 0 1 1.837 1.194c.531.52.938 1.144 1.195 1.84.218.56.48 1.411.549 2.968.075 1.688.094 2.194.094 6.464 0 4.269-.019 4.768-.094 6.458z"/><path d="M16.059 7.782a8.223 8.223 0 0 0-8.219 8.221v.002a8.222 8.222 0 1 0 16.444 0 8.222 8.222 0 0 0-8.222-8.222h-.002zm0 13.552a5.333 5.333 0 0 1 .001-10.666h.001a5.334 5.334 0 1 1 0 10.668zM26.525 7.458a1.92 1.92 0 0 1-3.84 0 1.92 1.92 0 0 1 3.84 0z"/></symbol><symbol id="icon-linkedin" viewBox="0 0 32 32"><path d="M31.992 32H32V20.262c0-5.741-1.237-10.163-7.947-10.163-3.227 0-5.392 1.77-6.277 3.45h-.093v-2.914h-6.365v21.363h6.627V21.42c0-2.786.528-5.48 3.978-5.48 3.398 0 3.448 3.179 3.448 5.658V32h6.621zM.528 10.635h6.635V32H.528V10.635zM3.843 0A3.843 3.843 0 0 0 0 3.843c0 2.12 1.722 3.878 3.843 3.878 2.12 0 3.842-1.757 3.842-3.878S5.965.002 3.844 0z"/></symbol><symbol id="icon-phone" viewBox="0 0 32 32"><path fill="none" stroke="#9da4bd" style="stroke:var(--color1,#9da4bd)" stroke-linejoin="round" stroke-linecap="round" stroke-width="1.333" d="M26.667 21.337v3.227A2.145 2.145 0 0 1 24.32 26.7l.009.001c-3.481-.388-6.626-1.563-9.338-3.343l.081.05a21.09 21.09 0 0 1-6.386-6.353l-.05-.083a20.982 20.982 0 0 1-3.285-9.205l-.008-.095a2.145 2.145 0 0 1 2.136-2.338h3.239c1.079 0 1.972.797 2.123 1.834l.001.012c.136 1.029.387 2.04.751 3.013a2.144 2.144 0 0 1-.483 2.264l-1.363 1.361c1.555 2.7 3.736 4.881 6.353 6.392l.083.044 1.363-1.361a2.14 2.14 0 0 1 2.278-.477l-.015-.005c.973.363 1.984.613 3.013.751a2.148 2.148 0 0 1 1.847 2.125l-.001.056v-.003z"/></symbol><symbol id="mail" viewBox="0 0 32 32"><path fill="none" stroke-linejoin="round" stroke-linecap="round" stroke-width="1.333" d="M6.4 6.667h19.2C26.92 6.667 28 7.716 28 9v14c0 1.283-1.08 2.333-2.4 2.333H6.4C5.08 25.333 4 24.282 4 23V9c0-1.284 1.08-2.333 2.4-2.333z"/><path fill="none" stroke-linejoin="round" stroke-linecap="round" stroke-width="1.333" d="m26.667 9.333-10.667 8-10.667-8"/></symbol><symbol id="map-pin" viewBox="0 0 32 32"><path fill="none" stroke-linejoin="round" stroke-linecap="round" stroke-width="1.333" d="M26.667 13.819C26.667 21.454 16 28 16 28S5.333 21.453 5.333 13.819C5.333 8.396 10.109 4 16 4s10.667 4.396 10.667 9.819z"/><path fill="none" stroke-linejoin="round" stroke-linecap="round" stroke-width="1.333" d="M16 18.667a4 4 0 0 0 0-8 4 4 0 0 0 0 8z"/></symbol><symbol id="phone" viewBox="0 0 32 32"><path fill="none" stroke-linejoin="round" stroke-linecap="round" stroke-width="1.333" d="M26.667 21.337v3.227A2.145 2.145 0 0 1 24.32 26.7l.009.001c-3.481-.388-6.626-1.563-9.338-3.343l.081.05a21.09 21.09 0 0 1-6.386-6.353l-.05-.083a20.982 20.982 0 0 1-3.285-9.205l-.008-.095a2.145 2.145 0 0 1 2.136-2.338h3.239c1.079 0 1.972.797 2.123 1.834l.001.012c.136 1.029.387 2.04.751 3.013a2.144 2.144 0 0 1-.483 2.264l-1.363 1.361c1.555 2.7 3.736 4.881 6.353 6.392l.083.044 1.363-1.361a2.14 2.14 0 0 1 2.278-.477l-.015-.005c.973.363 1.984.613 3.013.751a2.148 2.148 0 0 1 1.847 2.125l-.001.056v-.003z"/></symbol><symbol id="close" viewBox="0 0 32 32"><path d="m26.667 7.306-1.972-1.972-7.806 7.806-7.806-7.806-1.972 1.972 7.806 7.806-7.806 7.806 1.972 1.972 7.806-7.806 7.806 7.806 1.972-1.972-7.806-7.806z"/></symbol><symbol id="icon-close" viewBox="0 0 32 32"><path d="M32 3.223 28.777 0 16 12.777 3.223 0 0 3.223 12.777 16 0 28.777 3.223 32 16 19.223 28.777 32 32 28.777 19.223 16 32 3.223z"/></symbol><symbol id="close-mobile-menu" viewBox="0 0 32 32"><path d="M23.733 10.304 22.229 8.8l-5.963 5.963L10.303 8.8l-1.504 1.504 5.963 5.963-5.963 5.963 1.504 1.504 5.963-5.963 5.963 5.963 1.504-1.504-5.963-5.963 5.963-5.963z"/></symbol><symbol id="icon-person" viewBox="0 0 32 32"><path d="M16 16a5.333 5.333 0 1 0 0-10.666A5.333 5.333 0 1 0 16 16zm0 2.667c-3.561 0-10.667 1.787-10.667 5.333v1.333c0 .732.599 1.333 1.333 1.333h18.667c.732 0 1.333-.601 1.333-1.333V24c0-3.547-7.108-5.333-10.667-5.333z"/></symbol><symbol id="icon-phone-black" viewBox="0 0 32 32"><path d="m24.882 19.774-3.268-.373a2.552 2.552 0 0 0-2.11.732l-2.368 2.368c-3.669-1.894-6.585-4.81-8.427-8.372l-.051-.108 2.382-2.377a2.552 2.552 0 0 0 .731-2.122l.001.012-.373-3.243a2.578 2.578 0 0 0-2.557-2.276H6.613c-1.454 0-2.663 1.209-2.574 2.661.683 10.987 9.47 19.762 20.444 20.444 1.452.089 2.663-1.12 2.663-2.574v-2.238a2.549 2.549 0 0 0-2.253-2.532l-.012-.001z"/></symbol><symbol id="icon-email-black" viewBox="0 0 32 32"><path d="M26.667 5.333H5.334A2.662 2.662 0 0 0 2.682 8l-.014 16c0 1.467 1.2 2.667 2.667 2.667h21.333c1.467 0 2.667-1.2 2.667-2.667V8c0-1.467-1.2-2.667-2.667-2.667zm-.534 5.668-9.426 5.892a1.343 1.343 0 0 1-1.421-.004l.006.003L5.866 11A1.133 1.133 0 1 1 7.07 9.083l-.004-.003 8.933 5.586 8.933-5.588a1.132 1.132 0 1 1 1.204 1.916l-.005.003z"/></symbol><symbol id="icon-checked" viewBox="0 0 42 32"><path d="m6.262 15.206-.221-.211-.221.208-3.085 2.925.243.234 11.408 10.88.221-.211L38.863 5.892l-.243-.23-3.043-2.902-.221.211-20.97 19.987-8.125-7.75z"/></symbol><symbol id="icon-Logo-mob" viewBox="0 0 39 32"><path fill="#fff" style="fill:var(--color1,#fff)" d="m22.371 9.64-.749-.571a.57.57 0 0 0-.8.079l-.001.001-10.36 11.897.16.177 2.566-2.366a.395.395 0 0 1 .147-.76h.007c.174 0 .321.114.371.272l.001.003 3.383-3.137a.291.291 0 0 1 .366 0h-.001l.171.126a.285.285 0 0 0 .382-.046l4.423-4.96a.474.474 0 0 0-.067-.714l-.001-.001z"/><path fill="#fff" style="fill:var(--color1,#fff)" d="M27.24 12.989a22.87 22.87 0 0 1-7.335 3.477l-.162.037c-2.401.638-5.193 1.072-8.063 1.208l-.092.003c.055.406.155.805.297 1.189 1.554 1.406 13.257-.994 15.543-3.771.486-.577-.189-2.143-.189-2.143zm-13.897 5.868a.389.389 0 1 1 .389-.389v.006a.382.382 0 0 1-.382.382h-.007zM2.286 12.166l.091-.394 1.486.337c.123.226.198.475.223.731a2.43 2.43 0 0 1-.051.811 2.157 2.157 0 0 1-.493.997l.002-.002a1.97 1.97 0 0 1-.866.568l-.014.004a2.109 2.109 0 0 1-1.095.038l.014.003a2.001 2.001 0 0 1-.955-.504l.001.001a1.883 1.883 0 0 1-.54-.884l-.003-.013a2.15 2.15 0 0 1 .004-1.158l-.004.015c.062-.28.171-.547.326-.789.147-.22.339-.399.563-.527l.008-.004.206.314a1.64 1.64 0 0 0-.753 1.099l-.002.01a1.792 1.792 0 0 0 .02.91l-.003-.013c.077.278.229.529.44.726.217.21.488.354.783.417.286.08.589.08.874 0 .283-.095.524-.255.713-.462l.001-.001c.2-.23.337-.507.4-.806a1.755 1.755 0 0 0-.073-1.103l.004.012-1.309-.331zM5.52 8.571l-1.331 1.777.571 1.023-.263.354-2.114-3.857.246-.337 4.303.926-.269.354-1.143-.24zm-.377-.091-2.286-.514L4 10.017 5.143 8.48zm0-3.594.343-.257 2.177 2.914L9.457 6.2l.217.291-2.131 1.594-2.4-3.2zm3.6-2.383.383-.171 1.509 3.303 2.04-.926.149.331-2.423 1.103-1.657-3.64zm7.531 1.314.086.36-2.754.646-.914-3.897 2.674-.623.08.354-2.286.531.326 1.383 2.011-.474.086.354-2.017.469.343 1.446 2.366-.549zm3.926.143-.954-1.257a2.847 2.847 0 0 1-.32 0l-1.074.034.04 1.269h-.423l-.131-4L18.858 0a1.8 1.8 0 0 1 1.217.329L20.07.325c.287.232.469.585.469.979v.016-.001c.017.282-.057.563-.211.8a1.34 1.34 0 0 1-.653.483l-.009.003 1 1.337-.463.017zm-.4-1.88a.909.909 0 0 0 .291-.752v.004-.019a.92.92 0 0 0-.336-.711l-.002-.001a1.373 1.373 0 0 0-.902-.234h.005l-1.086.04.069 2 1.063-.034a1.36 1.36 0 0 0 .9-.294l-.003.002zm3.423.817-.206 1.366L22.6 4.2l.211-1.343L21.628 0l.446.069 1.011 2.434L24.799.486l.4.086-1.977 2.326zm5.651-.24.497.646-.217.171-.497-.663-.314.749-.24-.103.32-.749-.823.109v-.274l.811-.091-.503-.646.223-.171.44.651.309-.754.246.103-.291.766.823-.114v.28l-.783.091zm1.909 4.606a1.565 1.565 0 0 1-.245-.684l-.001-.007.337-.149c.025.226.099.445.217.64.127.219.294.413.491.571.197.189.452.318.736.359l.007.001a.62.62 0 0 0 .536-.221l.001-.001a.51.51 0 0 0 .133-.345l-.002-.045v.002a1.037 1.037 0 0 0-.14-.399l.003.005a5.935 5.935 0 0 0-.359-.523l.01.014a4.995 4.995 0 0 1-.398-.603l-.013-.026a1.133 1.133 0 0 1-.149-.536v-.001a.84.84 0 0 1 .223-.571c.123-.148.283-.261.467-.324l.007-.002a1.125 1.125 0 0 1 .642.002l-.008-.002c.28.093.522.234.728.414l-.002-.002c.176.146.331.315.463.503.121.174.212.367.269.571l-.326.171a2.006 2.006 0 0 0-.256-.544l.005.007a2.068 2.068 0 0 0-.379-.391l-.004-.003a1.265 1.265 0 0 0-.731-.348l-.006-.001a.616.616 0 0 0-.536.233l-.001.001a.49.49 0 0 0-.131.39v-.002c.013.144.06.283.137.406.08.131.194.303.349.509.153.194.29.401.411.617.091.154.148.338.154.535v.002a.84.84 0 0 1-.223.571 1.02 1.02 0 0 1-.473.324l-.007.002a1.093 1.093 0 0 1-.642-.002l.008.002a2.115 2.115 0 0 1-.734-.414l.003.002a2.626 2.626 0 0 1-.565-.695l-.007-.013zm5.748.834-.806-1.143.297-.211 1.857 2.651-.297.211-.806-1.143-2.983 2.086-.24-.349 2.977-2.103zm-1.28 4.697c.107-.357.306-.659.569-.89l.002-.002c.256-.23.573-.396.924-.472l.013-.002a2.086 2.086 0 0 1 1.089.044l-.015-.004c.348.117.642.314.873.57l.002.002c.238.272.409.609.483.981l.002.014a2.21 2.21 0 0 1-.003 1.118l.004-.015a1.975 1.975 0 0 1-.569.89l-.002.002a2.111 2.111 0 0 1-2.055.441l.015.004a1.912 1.912 0 0 1-.872-.569l-.002-.002a2.137 2.137 0 0 1-.483-.975l-.002-.014a2.187 2.187 0 0 1 .033-1.136l-.004.016zM36 14.611a1.575 1.575 0 0 0 1.207.533c.446 0 .854-.165 1.166-.438l-.002.002c.211-.194.367-.44.451-.714a1.835 1.835 0 0 0-.374-1.683l.002.003a1.63 1.63 0 0 0-.726-.46l-.012-.003a1.697 1.697 0 0 0-.892.003l.012-.003c-.303.06-.568.199-.778.395l.001-.001a1.594 1.594 0 0 0-.448.709l-.003.011a1.705 1.705 0 0 0 .003.898l-.003-.012c.067.296.205.553.395.761l-.001-.001zm-1.183 4.818 1.48-.571c0-.103.034-.206.063-.314l.28-1.034-1.211-.314.109-.406 3.863 1.034-.389 1.446c-.092.435-.33.803-.659 1.06l-.004.003a1.226 1.226 0 0 1-1.094.157l.009.003a1.242 1.242 0 0 1-.977-1.205l-1.577.571.109-.429zm1.914.16a1.03 1.03 0 0 0 1.439.38l-.004.003c.246-.199.421-.478.484-.797l.001-.009.274-1.029-1.937-.52-.274 1.029a1.366 1.366 0 0 0 .02.952l-.003-.009zm-3.965 3.52-.291-.223 1.714-2.257 3.189 2.417-1.657 2.189-.291-.223 1.4-1.846-1.143-.863-1.251 1.651-.286-.217 1.28-1.651-1.183-.897-1.48 1.92zm-1.337 4.554-.817.046v-.274l.817-.006-.44-.68.223-.143.434.686.354-.766.246.131-.389.72.817-.046v.28h-.829l.44.68-.223.143-.434-.686-.377.743-.24-.137.417-.691zM24 27.206l.691.383a1.781 1.781 0 0 1 1.131-.9l.012-.003a1.77 1.77 0 0 1 .711-.074l-.007-.001c.216.017.411.092.575.208l-.003-.002a.894.894 0 0 1 .32.457c.069.226.057.469-.034.686-.151.307-.342.57-.571.794.189.101.363.226.52.371a.983.983 0 0 1 .234.394.758.758 0 0 1-.15.67l.001-.001a1.1 1.1 0 0 1-.632.438l-.008.002a.996.996 0 0 1-.709 0 .716.716 0 0 1-.41-.481l-.001-.005a.78.78 0 0 1 .042-.576l-.002.005a2.76 2.76 0 0 1 .509-.703l-1.377-.766a2.7 2.7 0 0 0-.034.817h-.349a2.73 2.73 0 0 1 .119-1.014l-.005.019-.72-.4.149-.32zm.994.571 1.514.84c.194-.186.357-.403.479-.644l.006-.014a.723.723 0 0 0 0-.514.618.618 0 0 0-.396-.427l-.004-.001a1.123 1.123 0 0 0-.74.003l.008-.002a1.376 1.376 0 0 0-.888.735l-.004.008.023.017zm2.149 2.286a.509.509 0 0 0 .045-.427l.001.004a.703.703 0 0 0-.183-.297 2.479 2.479 0 0 0-.46-.308l-.014-.006a2.999 2.999 0 0 0-.444.559l-.007.013a.566.566 0 0 0-.045.426l-.001-.004a.483.483 0 0 0 .249.302l.003.001a.637.637 0 0 0 .451 0 .68.68 0 0 0 .381-.266l.001-.002.023.006zm-10.109 1.548.08-4h.406l-.063 3.2 1.623-2.663h.2l1.52 2.709.057-3.183h.406l-.074 4h-.349l-1.68-2.989-1.777 2.931-.349-.006zm-1.988-4.182a1.943 1.943 0 0 1 .516 1.991l.004-.014c-.1.367-.289.682-.543.931a1.91 1.91 0 0 1-.907.5l-.013.003a2.189 2.189 0 0 1-1.124-.039l.016.004a2.15 2.15 0 0 1-.961-.521l.001.001a1.918 1.918 0 0 1-.528-.889l-.003-.013a2.1 2.1 0 0 1 .572-2.011c.242-.242.548-.421.889-.511l.014-.003a2.202 2.202 0 0 1 1.118.038l-.016-.004c.378.098.704.285.966.538l-.001-.001zm-1.949-.2a1.523 1.523 0 0 0-.737.411 1.652 1.652 0 0 0-.432.748l-.003.012c-.08.286-.08.589 0 .874.067.278.212.531.417.731.209.204.469.357.759.437l.012.003a1.796 1.796 0 0 0 .898-.003l-.012.003a1.63 1.63 0 0 0 .743-.411 1.68 1.68 0 0 0 .432-.748l.003-.012a1.645 1.645 0 0 0-.003-.892l.003.012a1.613 1.613 0 0 0-.423-.731 1.718 1.718 0 0 0-.765-.432l-.012-.003a1.645 1.645 0 0 0-.892.003l.012-.003zm-4.326-2.658.154 1.571c.098.042.194.09.286.143l.931.537.629-1.109.371.211-2 3.446-1.303-.749a1.826 1.826 0 0 1-.853-.903l-.005-.012a1.253 1.253 0 0 1 .128-1.091l-.003.005c.133-.25.343-.451.6-.571a1.299 1.299 0 0 1 .832-.061l-.009-.002-.166-1.68.406.263zm-.651 1.806a1.033 1.033 0 0 0-.771.871v.005a1.034 1.034 0 0 0 .036.417l-.002-.007c.134.296.366.536.657.68l.92.531 1-1.714-.92-.531a1.401 1.401 0 0 0-.923-.28h.004v.029zm-2.731-4.486.257-.257 1.971 2.029-2.857 2.789-1.903-1.966.263-.257 1.617 1.663.977-.989-1.417-1.474.274-.263 1.446 1.486 1.063-1.034-1.691-1.726zm-4.246-2.245.137-.789.269.04-.154.811.76-.28.091.251-.771.263.634.537-.183.206-.611-.571-.143.811-.274-.051.16-.811-.766.274-.086-.223.766-.269-.634-.531.189-.206.617.537z"/></symbol><symbol id="icon-Logo-desc" viewBox="0 0 38 32"><path d="m21.41 9.64-.709-.571a.518.518 0 0 0-.756.079l-.001.001-9.806 11.897.151.177 2.429-2.366a.381.381 0 0 1-.188-.177l-.001-.002a.414.414 0 0 1-.037-.268v.003a.4.4 0 0 1 .133-.229.36.36 0 0 1 .235-.087h.006c.083 0 .159.029.22.077l-.001-.001c.063.05.11.118.132.196l.001.003 3.202-3.137a.268.268 0 0 1 .347 0l.162.126a.26.26 0 0 0 .362-.045v-.001l4.186-4.96a.496.496 0 0 0 .063-.568l.001.003a.47.47 0 0 0-.128-.148l-.001-.001z"/><path d="M26.018 12.989a21.185 21.185 0 0 1-6.945 3.477l-.151.037c-2.273.638-4.913 1.071-7.631 1.208l-.087.003c.052.406.146.805.281 1.189 1.471 1.406 12.548-.994 14.711-3.771.459-.577-.179-2.143-.179-2.143zm-13.154 5.868a.353.353 0 0 1-.205-.066l.001.001a.4.4 0 0 1-.135-.172l-.001-.003a.409.409 0 0 1 .081-.423.349.349 0 0 1 .402-.083l-.002-.001c.069.031.125.08.164.141l.001.002a.394.394 0 0 1 .062.215v.004c0 .105-.04.201-.107.273a.344.344 0 0 1-.255.112h-.007zM2.399 12.166l.087-.394 1.406.337c.111.212.186.461.211.724l.001.008c.027.271.01.546-.049.811a2.198 2.198 0 0 1-.468.998l.003-.004a1.836 1.836 0 0 1-1.869.609l.013.003a1.872 1.872 0 0 1-.903-.503 1.902 1.902 0 0 1-.511-.884l-.003-.013A2.315 2.315 0 0 1 .32 12.7l-.004.016c.058-.28.163-.547.309-.789.138-.22.323-.402.541-.531l.195.314a1.62 1.62 0 0 0-.466.467l-.004.006a1.67 1.67 0 0 0-.243.625l-.001.01a1.87 1.87 0 0 0 .019.91l-.003-.013c.073.278.217.529.417.726.205.21.462.354.741.417.27.08.557.08.827 0a1.59 1.59 0 0 0 .674-.461l.002-.002c.189-.23.319-.507.378-.806a1.85 1.85 0 0 0-.068-1.104l.004.013-1.239-.331zM5.46 8.571l-1.261 1.777.541 1.023-.249.354L2.49 7.868l.233-.337 4.073.926-.254.354-1.082-.24zm-.357-.091L2.94 7.966l1.082 2.051L5.104 8.48zm0-3.594.325-.257 2.061 2.914L9.187 6.2l.206.291-2.017 1.594-2.272-3.2zM8.51 2.503l.362-.171L10.3 5.635l1.931-.926.141.331-2.293 1.103-1.569-3.64zm7.129 1.314.081.36-2.607.646-.866-3.897 2.531-.623.075.354-2.163.531.309 1.383 1.904-.474.081.354-1.91.469.325 1.446 2.239-.549zm3.715.143-.903-1.257a2.552 2.552 0 0 1-.303 0l-1.017.034.038 1.269h-.4l-.125-4L18.083 0a1.633 1.633 0 0 1 1.151.329L19.23.326c.14.119.253.271.33.443s.116.36.114.551c.015.282-.054.563-.2.8a1.269 1.269 0 0 1-.619.483l-.009.003.946 1.337-.438.017zm-.378-1.88a.945.945 0 0 0 .276-.749v-.02a.961.961 0 0 0-.083-.391l.002.006A.933.933 0 0 0 18.933.6l-.001-.001a1.255 1.255 0 0 0-.854-.234h.005l-1.027.04.065 2 1.006-.034a1.244 1.244 0 0 0 .852-.293l-.002.002zm3.239.817-.194 1.366-.395-.063.2-1.343L20.706 0l.422.069.957 2.434L23.708.486l.378.086-1.871 2.326zm5.35-.24.471.646-.206.171-.47-.663-.298.749-.227-.103.303-.749-.779.109v-.274l.768-.091-.476-.646.211-.171.417.651.291-.754.233.103-.276.766.779-.114v.28l-.741.091zm1.806 4.606a1.617 1.617 0 0 1-.232-.684l-.001-.007.319-.149c.024.226.094.445.206.64.121.219.278.413.465.571.193.195.438.321.703.36a.568.568 0 0 0 .284-.046l-.004.001a.6.6 0 0 0 .355-.525.59.59 0 0 0-.002-.043v.002a1.087 1.087 0 0 0-.133-.4l.003.005a5.79 5.79 0 0 0-.342-.526l.012.017a5.018 5.018 0 0 1-.375-.6l-.014-.028a1.17 1.17 0 0 1-.141-.536v-.001c0-.211.075-.416.211-.571a.994.994 0 0 1 .449-.326 1.02 1.02 0 0 1 .607.002l-.007-.002c.253.087.487.227.687.411.166.146.314.315.438.503.114.174.201.367.254.571l-.309.171a2.038 2.038 0 0 0-.243-.546l.005.008a2.008 2.008 0 0 0-.359-.392l-.003-.003a1.17 1.17 0 0 0-.691-.348l-.006-.001a.552.552 0 0 0-.286.051l.003-.001a.596.596 0 0 0-.225.184l-.001.002a.513.513 0 0 0-.124.391v-.002a.965.965 0 0 0 .13.406c.076.131.184.303.33.509.145.194.275.401.39.617.09.163.14.349.146.537a.858.858 0 0 1-.211.571.964.964 0 0 1-.448.324l-.007.002a.976.976 0 0 1-.6 0 1.99 1.99 0 0 1-.694-.413l.001.001a2.595 2.595 0 0 1-.534-.694l-.007-.014zm5.441.834-.762-1.143.281-.211 1.758 2.651-.281.211-.763-1.143-2.823 2.086-.227-.349 2.818-2.103zm-1.211 4.697c.1-.354.288-.656.54-.89l.001-.001c.251-.238.557-.401.887-.474a1.869 1.869 0 0 1 1.03.044l-.013-.004c.331.119.61.316.825.569l.002.003c.226.275.388.612.457.981l.002.014a2.306 2.306 0 0 1-.004 1.118l.003-.016c-.102.353-.29.654-.54.891l-.001.001a1.966 1.966 0 0 1-1.338.54c-.212 0-.415-.035-.606-.098l.013.004a1.818 1.818 0 0 1-.825-.568l-.003-.003a2.183 2.183 0 0 1-.457-.975l-.002-.014a2.293 2.293 0 0 1 .031-1.136l-.004.016zm.708 1.817c.181.217.415.377.676.463.27.083.554.093.829.029s.529-.2.74-.394c.2-.194.347-.44.427-.714a1.97 1.97 0 0 0 .02-.898l.002.013a1.88 1.88 0 0 0-.376-.798l.003.004a1.533 1.533 0 0 0-.687-.46l-.011-.003a1.523 1.523 0 0 0-.844.003l.011-.003c-.289.061-.54.2-.736.394a1.596 1.596 0 0 0-.427.72 1.796 1.796 0 0 0 .003.898l-.003-.013c.059.283.188.546.373.76zm-1.119 4.818 1.401-.571c0-.103.033-.206.059-.314l.265-1.034-1.146-.314.103-.406 3.656 1.034-.368 1.446c-.084.43-.309.797-.625 1.061l-.003.002a1.102 1.102 0 0 1-1.036.158l.008.002a1.168 1.168 0 0 1-.661-.429l-.002-.003a1.276 1.276 0 0 1-.262-.774l-1.493.571.103-.429zm1.811.16c.063.121.15.228.253.314a.944.944 0 0 0 .601.218.917.917 0 0 0 .507-.152l-.004.002a1.38 1.38 0 0 0 .46-.806l.259-1.029-1.833-.52-.26 1.029a1.441 1.441 0 0 0 .02.953l-.003-.01zm-3.753 3.52-.276-.223 1.623-2.257 3.018 2.417-1.569 2.189-.275-.223 1.325-1.846-1.082-.863-1.185 1.651-.271-.217 1.211-1.651-1.119-.897-1.401 1.92zm-1.265 4.554-.774.046v-.274l.773-.006-.417-.68.211-.143.411.686.335-.766.233.131-.368.72.773-.046v.28h-.784l.417.68-.211.143-.411-.686-.357.743-.227-.137.395-.691zm-7.032-.457.654.383a1.77 1.77 0 0 1 .449-.574c.177-.149.389-.262.621-.326l.012-.003a1.588 1.588 0 0 1 .672-.074l-.007-.001c.194.015.382.087.541.206a.9.9 0 0 1 .303.457c.065.226.054.469-.033.686a2.859 2.859 0 0 1-.542.795l.001-.001c.178.101.344.226.493.371.102.111.178.246.222.394.027.115.029.236.005.352s-.074.225-.145.317c-.145.22-.36.376-.606.44a.885.885 0 0 1-.676-.002l.006.002a.688.688 0 0 1-.248-.193l-.001-.001a.716.716 0 0 1-.14-.286l-.001-.005a.815.815 0 0 1 .041-.577l-.002.005c.124-.26.286-.497.481-.703l-1.303-.766a2.87 2.87 0 0 0-.033.817h-.33a2.877 2.877 0 0 1 .114-1.015l-.005.02-.682-.4.141-.32zm.942.571 1.433.84c.187-.19.343-.411.459-.657a.768.768 0 0 0 0-.514.633.633 0 0 0-.138-.266l.001.001a.58.58 0 0 0-.241-.163 1.032 1.032 0 0 0-.699.002l.007-.002c-.183.051-.354.144-.5.273s-.263.289-.343.47l.022.017zm2.033 2.286a.526.526 0 0 0 .042-.427l.001.004a.718.718 0 0 0-.173-.297 2.237 2.237 0 0 0-.449-.314 2.963 2.963 0 0 0-.427.571.593.593 0 0 0-.043.427l-.001-.004a.474.474 0 0 0 .236.301l.003.001a.573.573 0 0 0 .427 0 .653.653 0 0 0 .363-.269l.021.006zm-9.568 1.548.075-4h.384l-.059 3.2 1.536-2.663h.189l1.439 2.709.054-3.183h.384l-.07 4h-.33l-1.59-2.989-1.682 2.931-.33-.006zm-1.882-4.182c.247.249.424.566.511.915s.08.717-.019 1.063a2.061 2.061 0 0 1-.514.932l.001-.001a1.803 1.803 0 0 1-1.333.557c-.21 0-.412-.032-.601-.092l.014.004a2.01 2.01 0 0 1-.909-.52 1.946 1.946 0 0 1-.5-.889l-.003-.013a2.254 2.254 0 0 1 .02-1.098l-.004.016c.099-.364.281-.677.524-.93l-.001.001c.236-.249.531-.427.854-.514a1.964 1.964 0 0 1 1.058.038l-.014-.004c.361.1.67.287.914.537zm-1.845-.2a1.425 1.425 0 0 0-.696.411l-.001.001a1.67 1.67 0 0 0-.409.748l-.002.012a1.726 1.726 0 0 0 0 .874c.066.287.204.535.395.732.204.21.455.362.731.44.275.074.563.074.838 0 .265-.069.507-.211.703-.411.198-.21.34-.473.411-.76a1.772 1.772 0 0 0-.002-.892l.003.012a1.625 1.625 0 0 0-.401-.732l.001.001a1.607 1.607 0 0 0-.725-.432l-.011-.003c-.273-.08-.56-.08-.833 0zm-4.094-2.658.146 1.571c.093.042.183.09.27.143l.882.537.595-1.109.351.211-1.893 3.446-1.233-.749a1.79 1.79 0 0 1-.807-.902l-.004-.012a1.32 1.32 0 0 1 .122-1.092l-.003.006a1.27 1.27 0 0 1 .568-.571c.246-.108.519-.13.779-.063l-.157-1.68.384.263zm-.616 1.806a.966.966 0 0 0-.353.179l.002-.001a1.04 1.04 0 0 0-.386.822c0 .102.014.201.041.295l-.002-.008c.127.296.347.536.623.68l.871.531.946-1.714-.871-.531a1.276 1.276 0 0 0-.804-.282l-.071.002h.003v.029zm-2.586-4.486.243-.257 1.866 2.029-2.704 2.789-1.801-1.966.249-.257 1.531 1.663.925-.989-1.341-1.474.259-.263 1.369 1.486 1.006-1.034-1.601-1.726zm-4.018-2.245.129-.789.254.04-.146.811.72-.28.086.251-.73.263.6.537-.173.206-.579-.571-.135.811-.259-.051.151-.811-.725.274-.081-.223.725-.269-.601-.531.178-.206.585.537z"/></symbol><symbol id="icon-menu" viewBox="0 0 32 32"><path d="M6.4 11.734V9.6h19.2v2.134H6.4zm0 5.332h19.2v-2.133H6.4v2.133zm0 5.334h19.2v-2.134H6.4V22.4z"/></symbol></defs></svg><symbol id="icon-lock" viewBox="0 0 32 32"><path d="M18.5 14H18V8c0-3.308-2.692-6-6-6H8C4.692 2 2 4.692 2 8v6h-.5c-.825 0-1.5.675-1.5 1.5v15c0 .825.675 1.5 1.5 1.5h17c.825 0 1.5-.675 1.5-1.5v-15c0-.825-.675-1.5-1.5-1.5zM6 8c0-1.103.897-2 2-2h4c1.103 0 2 .897 2 2v6H6V8z"/></symbol><symbol id="icon-exit" viewBox="0 0 32 32"><path d="M24 20v-4H14v-4h10V8l6 6zm-2-2v8H12v6L0 26V0h22v10h-2V2H4l8 4v18h8v-6z"/></symbol><svg aria-hidden="true" style="width:0;height:0;position:absolute;overflow:hidden" xmlns="http://www.w3.org/2000/svg"><defs><symbol id="facebook" viewBox="0 0 32 32"><path d="M21.329 5.313h2.921V.225C23.746.156 22.013 0 19.994 0c-4.212 0-7.097 2.649-7.097 7.519V12H8.249v5.688h4.648V32h5.699V17.689h4.46l.708-5.688h-5.169V8.082c.001-1.644.444-2.769 2.735-2.769z"/></symbol><symbol id="instagram" viewBox="0 0 32 32"><path d="M31.969 9.408c-.075-1.7-.35-2.869-.744-3.882a7.806 7.806 0 0 0-1.851-2.838A7.867 7.867 0 0 0 26.542.844C25.523.45 24.36.175 22.66.1 20.947.019 20.403 0 16.059 0s-4.888.019-6.595.094c-1.7.075-2.869.35-3.882.744a7.803 7.803 0 0 0-2.838 1.85A7.867 7.867 0 0 0 .9 5.52C.506 6.539.231 7.702.156 9.402c-.081 1.713-.1 2.257-.1 6.601s.019 4.888.094 6.595c.075 1.7.35 2.869.744 3.882a7.895 7.895 0 0 0 1.85 2.838 7.867 7.867 0 0 0 2.832 1.844c1.019.394 2.182.669 3.882.744 1.706.075 2.25.094 6.595.094s4.888-.019 6.595-.094c1.7-.075 2.869-.35 3.882-.744a8.184 8.184 0 0 0 4.682-4.682c.394-1.019.669-2.182.744-3.882.075-1.707.094-2.251.094-6.595s-.006-4.888-.081-6.595zm-2.882 13.065c-.069 1.563-.331 2.407-.55 2.969a5.31 5.31 0 0 1-3.038 3.038c-.563.219-1.413.481-2.969.55-1.688.075-2.194.094-6.464.094s-4.782-.019-6.464-.094c-1.563-.069-2.407-.331-2.969-.55a4.926 4.926 0 0 1-1.838-1.194 4.974 4.974 0 0 1-1.194-1.838c-.219-.563-.481-1.413-.55-2.969-.075-1.688-.094-2.194-.094-6.464s.019-4.782.094-6.464c.069-1.563.331-2.407.55-2.969a4.868 4.868 0 0 1 1.2-1.838A4.974 4.974 0 0 1 6.639 3.55c.563-.219 1.413-.481 2.969-.55 1.688-.075 2.194-.094 6.464-.094 4.276 0 4.782.019 6.464.094 1.563.069 2.407.331 2.969.55a4.914 4.914 0 0 1 1.838 1.194 4.974 4.974 0 0 1 1.194 1.838c.219.563.481 1.413.55 2.969.075 1.688.094 2.194.094 6.464s-.019 4.77-.094 6.458z"/><path d="M16.059 7.783c-4.538 0-8.22 3.682-8.22 8.22s3.682 8.22 8.22 8.22c4.539 0 8.22-3.682 8.22-8.22s-3.682-8.22-8.22-8.22zm0 13.552a5.333 5.333 0 0 1 0-10.664 5.333 5.333 0 0 1 0 10.664zM26.524 7.458a1.919 1.919 0 1 1-3.838 0 1.919 1.919 0 0 1 3.838 0z"/></symbol><symbol id="linkedin" viewBox="0 0 32 32"><path d="M31.992 32v-.001H32V20.263c0-5.741-1.236-10.164-7.948-10.164-3.227 0-5.392 1.771-6.276 3.449h-.093v-2.913h-6.364v21.364h6.627V21.42c0-2.785.528-5.479 3.977-5.479 3.399 0 3.449 3.179 3.449 5.657v10.401h6.62zM.528 10.636h6.635V32H.528V10.636zM3.843 0C1.722 0 0 1.721 0 3.843s1.721 3.879 3.843 3.879c2.121 0 3.843-1.757 3.843-3.879A3.846 3.846 0 0 0 3.843 0z"/></symbol><symbol id="twitter" viewBox="0 0 32 32"><path d="M32 6.078c-1.19.522-2.458.868-3.78 1.036a6.523 6.523 0 0 0 2.886-3.626 13.11 13.11 0 0 1-4.16 1.588A6.574 6.574 0 0 0 22.154 3c-3.632 0-6.556 2.948-6.556 6.562 0 .52.044 1.02.152 1.496-5.454-.266-10.28-2.88-13.522-6.862a6.605 6.605 0 0 0-.898 3.316 6.57 6.57 0 0 0 2.914 5.452 6.479 6.479 0 0 1-2.964-.808v.072c0 3.188 2.274 5.836 5.256 6.446a6.548 6.548 0 0 1-1.72.216 5.8 5.8 0 0 1-1.242-.112c.85 2.598 3.262 4.508 6.13 4.57a13.182 13.182 0 0 1-8.134 2.798c-.538 0-1.054-.024-1.57-.09A18.469 18.469 0 0 0 10.064 29c12.072 0 18.672-10 18.672-18.668 0-.29-.01-.57-.024-.848A13.087 13.087 0 0 0 32 6.078z"/></symbol><symbol id="mail" viewBox="0 0 32 32"><path fill="none" stroke-linejoin="round" stroke-linecap="round" stroke-width="1.333" d="M6.4 6.667h19.2C26.92 6.667 28 7.716 28 9v14c0 1.283-1.08 2.333-2.4 2.333H6.4C5.08 25.333 4 24.282 4 23V9c0-1.284 1.08-2.333 2.4-2.333z"/><path fill="none" stroke-linejoin="round" stroke-linecap="round" stroke-width="1.333" d="m26.667 9.333-10.667 8-10.667-8"/></symbol><symbol id="map-pin" viewBox="0 0 32 32"><path fill="none" stroke-linejoin="round" stroke-linecap="round" stroke-width="1.333" d="M26.667 13.819C26.667 21.454 16 28 16 28S5.333 21.453 5.333 13.819C5.333 8.396 10.109 4 16 4s10.667 4.396 10.667 9.819z"/><path fill="none" stroke-linejoin="round" stroke-linecap="round" stroke-width="1.333" d="M16 18.667a4 4 0 0 0 0-8 4 4 0 0 0 0 8z"/></symbol><symbol id="phone" viewBox="0 0 32 32"><path fill="none" stroke-linejoin="round" stroke-linecap="round" stroke-width="1.333" d="M26.667 21.337v3.227A2.145 2.145 0 0 1 24.32 26.7l.009.001c-3.481-.388-6.626-1.563-9.338-3.343l.081.05a21.09 21.09 0 0 1-6.386-6.353l-.05-.083a20.982 20.982 0 0 1-3.285-9.205l-.008-.095a2.145 2.145 0 0 1 2.136-2.338h3.239c1.079 0 1.972.797 2.123 1.834l.001.012c.136 1.029.387 2.04.751 3.013a2.144 2.144 0 0 1-.483 2.264l-1.363 1.361c1.555 2.7 3.736 4.881 6.353 6.392l.083.044 1.363-1.361a2.14 2.14 0 0 1 2.278-.477l-.015-.005c.973.363 1.984.613 3.013.751a2.148 2.148 0 0 1 1.847 2.125l-.001.056v-.003z"/></symbol><symbol id="close" viewBox="0 0 32 32"><path d="M32 3.223 28.777 0 16 12.777 3.223 0 0 3.223 12.777 16 0 28.777 3.223 32 16 19.223 28.777 32 32 28.777 19.223 16 32 3.223z"/></symbol><symbol id="logo" viewBox="0 0 38 32"><path d="m21.41 9.64-.709-.571a.52.52 0 0 0-.757.08l-9.806 11.897.152.177 2.428-2.366c-.081-.034-.148-.098-.189-.179a.411.411 0 0 1 .095-.494.362.362 0 0 1 .459-.011c.064.049.11.119.133.198l3.202-3.137a.265.265 0 0 1 .346 0l.162.126a.261.261 0 0 0 .363-.045l4.186-4.96a.502.502 0 0 0 .123-.372c-.006-.068-.026-.133-.058-.192s-.076-.11-.129-.149z"/><path d="M26.018 12.989a21.366 21.366 0 0 1-7.096 3.514 36.538 36.538 0 0 1-7.718 1.211c.052.406.147.804.281 1.189 1.471 1.406 12.548-.994 14.711-3.771.46-.577-.178-2.143-.178-2.143zm-13.154 5.868c-.073 0-.144-.023-.204-.066a.39.39 0 0 1-.157-.398c.014-.075.049-.145.101-.199s.117-.091.188-.106.145-.007.212.022.125.079.165.143.062.139.062.216c.001.051-.008.102-.026.15a.365.365 0 0 1-.342.239zM2.399 12.166l.087-.394 1.406.337c.116.226.188.475.211.731.027.271.01.546-.049.811a2.19 2.19 0 0 1-.465.994 1.844 1.844 0 0 1-.833.571 1.87 1.87 0 0 1-1.022.04 1.86 1.86 0 0 1-.903-.503 1.915 1.915 0 0 1-.514-.897 2.281 2.281 0 0 1 0-1.143c.058-.28.162-.547.308-.789.138-.22.323-.402.541-.531l.195.314c-.186.121-.346.282-.47.473s-.206.408-.244.635a1.89 1.89 0 0 0 .016.897c.073.278.217.529.416.726.205.21.462.354.741.417.271.08.557.08.827 0 .259-.09.492-.25.676-.463.189-.23.319-.507.379-.806a1.847 1.847 0 0 0-.065-1.091l-1.239-.331zM5.46 8.571 4.2 10.348l.541 1.023-.249.354-2.001-3.857.233-.337 4.073.926-.254.354-1.082-.24zm-.357-.091L2.94 7.966l1.082 2.051L5.104 8.48zM5.103 4.886l.325-.257 2.061 2.914L9.187 6.2l.206.291-2.017 1.594-2.272-3.2zM8.51 2.503l.362-.171L10.3 5.635l1.931-.926.141.331-2.293 1.103-1.569-3.64zM15.639 3.817l.081.36-2.607.646-.865-3.897 2.531-.623.076.354-2.163.531L13 2.571l1.904-.474.081.354-1.909.469.325 1.446 2.239-.549zM19.354 3.96l-.903-1.257a2.552 2.552 0 0 1-.303 0l-1.017.034.038 1.269h-.4l-.124-4L18.084 0a1.64 1.64 0 0 1 1.147.326c.14.119.253.271.33.443s.116.361.113.551a1.38 1.38 0 0 1-.2.8 1.265 1.265 0 0 1-.627.486l.947 1.337-.438.017zm-.378-1.88c.097-.094.173-.211.22-.34s.067-.269.055-.408A.955.955 0 0 0 18.932.6a1.258 1.258 0 0 0-.849-.234l-1.028.04.065 2 1.006-.034c.307.012.608-.091.849-.291zM22.216 2.897l-.195 1.366-.395-.063.2-1.343L20.706 0l.422.069.957 2.434L23.708.486l.379.086-1.871 2.326zM27.565 2.657l.471.646-.206.171-.471-.663-.297.749-.227-.103.303-.749-.779.109v-.274l.768-.091-.476-.646.211-.171.416.651.292-.754.233.103-.276.766.779-.114v.28l-.741.091zM29.371 7.263a1.65 1.65 0 0 1-.233-.691l.319-.149c.024.226.094.445.206.64.121.219.278.412.465.571.193.195.439.321.703.36.096.009.192-.006.28-.045s.167-.1.228-.178a.543.543 0 0 0 .124-.389 1.09 1.09 0 0 0-.13-.394 6.323 6.323 0 0 0-.33-.509 5.112 5.112 0 0 1-.389-.629 1.206 1.206 0 0 1-.141-.537c0-.212.075-.416.211-.571a.987.987 0 0 1 .449-.326c.196-.06.404-.06.6 0 .253.087.486.227.687.411.166.146.314.315.438.503.115.174.201.367.254.571l-.308.171a2.07 2.07 0 0 0-.238-.537 1.998 1.998 0 0 0-.362-.394 1.177 1.177 0 0 0-.698-.349c-.096-.009-.193.008-.282.049s-.166.104-.226.185a.526.526 0 0 0-.124.389.965.965 0 0 0 .13.406c.076.131.184.303.33.509.145.195.275.401.389.617.09.164.14.348.146.537a.866.866 0 0 1-.211.571.963.963 0 0 1-.454.326.991.991 0 0 1-.6 0 1.984 1.984 0 0 1-.692-.411 2.602 2.602 0 0 1-.541-.709zM34.812 8.097l-.763-1.143.281-.211 1.758 2.651-.281.211-.763-1.143-2.823 2.086-.227-.349 2.818-2.103zM33.601 12.794a1.91 1.91 0 0 1 .541-.891c.251-.238.557-.401.887-.474a1.852 1.852 0 0 1 1.017.04c.318.111.603.308.828.571.233.283.392.626.46.994.09.361.09.741 0 1.103a1.963 1.963 0 0 1-.541.891c-.258.244-.572.413-.91.491s-.69.062-1.021-.046a1.817 1.817 0 0 1-.828-.571 2.204 2.204 0 0 1-.46-.989 2.32 2.32 0 0 1 .027-1.12zm.708 1.817c.181.217.415.377.676.463.27.083.554.092.828.028s.529-.199.74-.394c.2-.194.347-.441.427-.714.075-.289.083-.593.022-.886s-.189-.565-.373-.794a1.537 1.537 0 0 0-.698-.463 1.53 1.53 0 0 0-.833 0 1.47 1.47 0 0 0-.736.394 1.606 1.606 0 0 0-.427.72 1.82 1.82 0 0 0 0 .886c.059.284.188.546.373.76zM33.19 19.428l1.401-.571c0-.103.032-.206.059-.314l.265-1.034-1.147-.314.103-.406 3.656 1.034-.368 1.446a1.828 1.828 0 0 1-.627 1.063 1.12 1.12 0 0 1-1.028.16c-.261-.06-.495-.212-.663-.431s-.261-.492-.262-.775l-1.493.571.103-.429zm1.812.16c.063.121.149.228.253.314s.222.148.349.184a.944.944 0 0 0 .756-.115 1.38 1.38 0 0 0 .46-.806l.26-1.029-1.834-.52-.26 1.029c-.1.306-.094.64.016.943zM31.248 23.109l-.276-.223 1.623-2.257 3.018 2.417-1.568 2.189-.276-.223 1.325-1.846-1.082-.863-1.184 1.651-.27-.217 1.212-1.651-1.12-.897-1.401 1.92zM29.982 27.663l-.773.046v-.274l.773-.006-.416-.68.211-.143.411.686.335-.766.233.131-.368.72.773-.046v.28h-.784l.416.68-.211.143-.411-.686-.357.743-.227-.137.395-.691zM22.951 27.206l.654.383c.11-.223.263-.418.449-.574s.402-.268.632-.329c.215-.071.441-.096.665-.074.195.016.381.087.541.206.144.115.25.275.303.457.065.226.054.468-.032.686a2.863 2.863 0 0 1-.541.794c.178.101.344.226.492.371.102.111.178.246.222.394a.804.804 0 0 1-.141.669c-.144.22-.36.376-.606.44a.895.895 0 0 1-.671 0c-.096-.044-.181-.11-.249-.195s-.116-.184-.141-.291a.815.815 0 0 1 .038-.571c.124-.26.287-.497.481-.703l-1.303-.766c-.05.269-.061.545-.032.817h-.33a2.871 2.871 0 0 1 .108-.994l-.681-.4.141-.32zm.941.571 1.433.84c.188-.189.343-.412.46-.657a.768.768 0 0 0 0-.514c-.024-.099-.072-.19-.138-.265s-.149-.131-.241-.164a1.028 1.028 0 0 0-.692 0c-.183.051-.354.144-.5.273s-.263.289-.344.47l.022.017zm2.034 2.286a.534.534 0 0 0 .043-.422.711.711 0 0 0-.173-.297 2.308 2.308 0 0 0-.449-.314 2.923 2.923 0 0 0-.427.571.6.6 0 0 0-.043.423c.017.065.047.126.088.178s.092.095.15.124c.138.055.29.055.427 0a.643.643 0 0 0 .362-.269l.022.006zM16.358 31.611l.076-4h.384l-.059 3.2 1.536-2.663h.189l1.439 2.709.054-3.183h.384l-.07 4h-.33l-1.59-2.989-1.682 2.931-.33-.006zM14.476 27.429c.247.249.424.566.511.915s.08.717-.019 1.062a2.056 2.056 0 0 1-.514.931c-.24.25-.542.424-.871.503a1.987 1.987 0 0 1-1.049-.034 1.939 1.939 0 0 1-1.412-1.423c-.083-.356-.077-.729.018-1.082s.275-.673.523-.93c.236-.249.531-.427.854-.514a1.98 1.98 0 0 1 1.044.034c.344.092.659.277.914.537zm-1.844-.2a1.432 1.432 0 0 0-.698.411 1.68 1.68 0 0 0-.411.76 1.726 1.726 0 0 0 0 .874c.064.278.201.532.395.731.204.21.455.362.73.44.275.074.563.074.838 0 .265-.069.507-.211.703-.411.198-.21.34-.473.411-.76a1.727 1.727 0 0 0 0-.88 1.62 1.62 0 0 0-.4-.731 1.598 1.598 0 0 0-.736-.434c-.273-.08-.56-.08-.833 0zM8.537 24.571l.146 1.571c.093.042.183.09.27.143l.882.537.595-1.109.352.211-1.893 3.446-1.233-.749a1.778 1.778 0 0 1-.811-.914 1.314 1.314 0 0 1 .119-1.086 1.27 1.27 0 0 1 .568-.571c.247-.108.52-.13.779-.063l-.157-1.68.384.263zm-.616 1.806c-.127.034-.246.094-.351.178s-.192.188-.257.308-.107.253-.122.39-.005.277.032.41c.127.296.346.536.622.68l.871.531.947-1.714-.871-.531a1.288 1.288 0 0 0-.871-.28v.029zM5.335 21.892l.243-.257 1.866 2.029-2.704 2.789-1.801-1.966.249-.257 1.531 1.663.925-.989-1.341-1.474.26-.263 1.368 1.486 1.006-1.034-1.601-1.726zM1.316 19.646l.13-.789.254.04-.146.811.719-.28.087.251-.73.263.6.537-.173.206-.579-.571-.135.811-.26-.051.151-.811-.725.274-.081-.223.725-.269-.6-.531.178-.206.584.537z"/></symbol><symbol id="close-mobile-menu" viewBox="0 0 32 32"><path d="M23.733 10.304 22.229 8.8l-5.963 5.963L10.303 8.8l-1.504 1.504 5.963 5.963-5.963 5.963 1.504 1.504 5.963-5.963 5.963 5.963 1.504-1.504-5.963-5.963 5.963-5.963z"/></symbol></defs></svg>