<svg aria-hidden="true" style="width:0;height:0;position:absolute;overflow:hidden" xmlns="http://www.w3.org/2000/svg"><defs><symbol id="icon-favorite" viewBox="0 0 32 32"><path d="m16 30.144-2.24-2.217C5.44 20.64 0 15.726 0 9.71 0 4.793 3.84.995 8.8.995c2.72.002 5.44 1.269 7.2 3.326A9.64 9.64 0 0 1 23.195.998h.005c4.96 0 8.8 3.801 8.8 8.711 0 6.021-5.44 10.933-13.76 18.217L16 30.145z"/></symbol><symbol id="icon-close" viewBox="0 0 32 32"><path d="M32 3.223 28.777 0 16 12.777 3.223 0 0 3.223 12.777 16 0 28.777 3.223 32 16 19.223 28.777 32 32 28.777 19.223 16 32 3.223z"/></symbol><symbol id="icon-close-modal" viewBox="0 0 32 32"><path d="M23.734 10.304 22.23 8.8l-5.963 5.962L10.305 8.8l-1.504 1.504 5.962 5.962-5.962 5.963 1.504 1.504 5.962-5.963 5.963 5.963 1.504-1.504-5.963-5.963 5.963-5.962z"/></symbol><symbol id="icon-film" viewBox="0 0 32 32"><path fill="none" stroke="#fff" style="stroke:var(--color1,#fff)" stroke-linejoin="round" stroke-linecap="round" stroke-width="2.667" d="M26.427 2.667H5.574a2.907 2.907 0 0 0-2.907 2.907v20.853a2.907 2.907 0 0 0 2.907 2.907v0h20.853a2.907 2.907 0 0 0 2.907-2.907v0V5.574a2.907 2.907 0 0 0-2.907-2.907v0zm-17.094 0v26.667M22.667 2.667v26.667M2.667 16h26.667M2.667 9.333h6.667M2.667 22.667h6.667m13.333 0h6.667M22.667 9.333h6.667"/></symbol><symbol id="icon-search" viewBox="0 0 32 32"><path fill="none" stroke="#fff" style="stroke:var(--color1,#fff)" stroke-linejoin="round" stroke-linecap="round" stroke-width="2.667" d="M14.667 25.333c5.891 0 10.667-4.776 10.667-10.667S20.558 3.999 14.667 3.999v0C8.776 3.999 4 8.775 4 14.666s4.776 10.667 10.667 10.667v0zM28 28l-5.8-5.8"/></symbol><symbol id="icon-arrow-right" viewBox="0 0 32 32"><path d="m19.414 27.414 10-10a2 2 0 0 0 0-2.828l-10-10a2 2 0 1 0-2.828 2.828L23.172 14H4a2 2 0 1 0 0 4h19.172l-6.586 6.586c-.39.39-.586.902-.586 1.414s.195 1.024.586 1.414a2 2 0 0 0 2.828 0z"/></symbol><symbol id="icon-arrow-left" viewBox="0 0 32 32"><path d="m12.586 27.414-10-10a2 2 0 0 1 0-2.828l10-10a2 2 0 1 1 2.828 2.828L8.828 14H28a2 2 0 1 1 0 4H8.828l6.586 6.586c.39.39.586.902.586 1.414s-.195 1.024-.586 1.414a2 2 0 0 1-2.828 0z"/></symbol><symbol id="icon-cinema" viewBox="0 0 32 32"><path fill="orange" style="fill:var(--color1,orange)" d="M27.831 14.486c-.324 0-.66.068-.999.201l-3.886 1.526a7.058 7.058 0 0 0 2.147-5.072 7.089 7.089 0 0 0-7.081-7.081c-3.43 0-6.298 2.452-6.944 5.695a5.017 5.017 0 0 0-3.636-1.558 5.029 5.029 0 0 0-2.817 9.199c-.073.028-.135.06-.194.097l.004-.003a1.09 1.09 0 0 0-.499.915v7.142a2.397 2.397 0 0 0 2.394 2.394h13.384a2.397 2.397 0 0 0 2.394-2.394v-2.726c.238.183.511.341.802.46l.023.008 3.908 1.535c.339.133.675.201.998.201 1.025 0 1.769-.694 1.769-1.652v-7.237c0-.957-.744-1.651-1.769-1.651z"/><path style="fill:var(--color2,#000)" d="M28.657 23.338c0 .518-.577.715-1.282.438l-3.908-1.535c-.705-.277-1.282-.927-1.282-1.445v-2.153c0-.518.577-1.168 1.282-1.445l3.908-1.535c.705-.277 1.282-.08 1.282.438v7.236zM18.157 5.111a5.994 5.994 0 1 0 .001 11.987 5.994 5.994 0 0 0-.001-11.987zm-1.826 5.113c-.826-.433-1.793-1.145-2.055-1.407-.437-.437-.146-.855.291-1.292s.855-.728 1.292-.291c.262.262.974 1.229 1.407 2.055a1.625 1.625 0 0 0-.932.924l-.004.011zm1.826 2.156a1.276 1.276 0 1 1 0-2.552 1.276 1.276 0 1 1 0 2.552zM7.577 9.248a3.944 3.944 0 1 0 0 7.889 3.944 3.944 0 0 0 0-7.889zm-1.51 6.462c-.307.307-.601.103-.908-.205s-.512-.601-.205-.908c.184-.184.864-.685 1.445-.989.118.304.354.54.65.655l.008.003c-.305.581-.805 1.26-.989 1.445zm1.51-1.672a.847.847 0 1 1 0-1.694.847.847 0 1 1 0 1.694zM18.084 18.839a7.706 7.706 0 0 1-5.502-2.306h-.483a5.679 5.679 0 0 1-6.94 1.835v7.142a1.31 1.31 0 0 0 1.306 1.306h13.384a1.31 1.31 0 0 0 1.306-1.306v-7.309a7.563 7.563 0 0 1-3.065.637h-.006z"/></symbol><symbol id="icon-membrane" viewBox="0 0 32 32"><path fill="orange" style="fill:var(--color1,orange)" d="M8.348 27.396c-2.195 0-4.15-.757-5.977-2.313-.383-.326-.771-.937-.771-1.567V8.485c0-.733.557-1.308 1.268-1.308.24 0 .606.068.988.394C5.252 8.76 6.721 9.338 8.347 9.338h.001c2.298 0 4.664-1.098 7.169-2.26 2.621-1.216 5.331-2.473 8.135-2.473 2.195 0 4.15.757 5.978 2.313.383.325.771.937.771 1.567v15.031c0 .733-.557 1.308-1.268 1.308-.24 0-.606-.068-.988-.394-1.396-1.189-2.865-1.766-4.492-1.766-2.298 0-4.664 1.098-7.169 2.26-2.621 1.216-5.331 2.473-8.134 2.473h-.001z"/><path style="fill:var(--color2,#000)" d="M2.746 23.516c0 .202.165.523.368.695 8.591 7.317 17.181-7.971 25.772-.654.202.172.367.162.367-.041V8.485c0-.202-.165-.523-.367-.694-8.591-7.317-17.182 7.971-25.772.654-.202-.172-.368-.162-.368.041v15.031zm25.477-3.345c.202.145.368.443.368.645v.75c0 .203-.165.235-.368.09a8.373 8.373 0 0 0-1.397-.826l-.052-.022c-.202-.092-.367-.321-.367-.524v-.75c0-.202.165-.304.367-.212.555.257 1.03.54 1.474.864l-.024-.017zm-3.742-1.476a.428.428 0 0 1 .368.416v.75c0 .203-.165.34-.368.319a8.262 8.262 0 0 0-1.45-.021.333.333 0 0 1-.367-.333v-.75a.41.41 0 0 1 .367-.402 8.11 8.11 0 0 1 1.486.024l-.036-.003zm-3.741.405c.202-.058.367.066.368.268v.75c0 .202-.165.409-.368.468-.621.179-1.103.344-1.575.529l.125-.043c-.202.076-.367-.023-.367-.225v-.75c0-.202.165-.433.367-.51.347-.141.829-.307 1.32-.452l.13-.033zm-3.742 1.458c.202-.092.367-.001.367.201v.75c0 .202-.165.442-.367.534-.483.22-.966.446-1.45.67-.202.093-.368.004-.368-.198v-.75c0-.202.165-.443.368-.537.483-.223.966-.449 1.45-.67zm-3.742 1.678c.202-.082.368.014.368.216v.75c0 .202-.165.437-.368.519-.483.195-.966.375-1.45.532-.202.066-.368-.051-.368-.253v-.75c0-.203.165-.417.368-.482a20.188 20.188 0 0 0 1.594-.586l-.145.053zm-3.741 1.071c.202-.026.368.11.368.313v.75a.44.44 0 0 1-.368.422c-.483.063-.966.09-1.45.074a.393.393 0 0 1-.368-.389v-.75c0-.202.165-.353.368-.346.483.017.966-.011 1.45-.074zm-3.742-.369c.202.074.368.288.368.491v.75c0 .202-.165.318-.368.244a7.9 7.9 0 0 1-1.483-.727l.033.019c-.202-.124-.368-.405-.368-.607v-.75c0-.203.165-.253.368-.128.483.298.967.531 1.45.707zm20.565-12.839a.612.612 0 0 1 .367.519v6.965c0 .203-.165.293-.367.216-1.886-.722-3.772-.57-5.659-.022-.202.059-.367-.054-.367-.256v-6.965c0-.202.165-.42.367-.479 1.886-.548 3.772-.7 5.659.021zm-7.773.732c.202-.083.368.017.368.219v6.965c0 .202-.165.433-.368.516-1.886.777-3.773 1.77-5.659 2.502-.202.079-.368-.026-.368-.228V13.84c0-.202.165-.428.368-.507 1.886-.732 3.773-1.726 5.659-2.503zm-7.772 3.189c.202-.05.368.068.368.27v6.965a.51.51 0 0 1-.368.465c-1.886.47-3.773.499-5.659-.39-.202-.095-.368-.351-.368-.553v-6.965c0-.202.165-.277.368-.182 1.886.89 3.773.86 5.659.39zM28.1 8.16c.202.14.367.435.367.636v.75c0 .202-.165.239-.367.099a8.207 8.207 0 0 0-1.396-.794l-.053-.021c-.202-.088-.367-.314-.367-.516v-.75c0-.202.165-.307.367-.219a8.367 8.367 0 0 1 1.476.833l-.026-.018zm-3.742-1.401a.42.42 0 0 1 .368.41v.75c0 .202-.165.343-.368.325a8.373 8.373 0 0 0-1.482.004l.032-.002a.328.328 0 0 1-.368-.329v-.75c0-.202.165-.389.368-.406a8.261 8.261 0 0 1 1.45-.001zm-3.742.453c.202-.06.368.062.368.264v.75c0 .202-.165.411-.368.471-.483.143-.966.311-1.45.497-.202.078-.368-.021-.368-.223v-.75c0-.202.165-.434.368-.512.483-.186.966-.354 1.45-.496zM16.875 8.69c.202-.092.368-.002.368.2v.75c0 .202-.165.442-.368.535-.483.221-.967.447-1.45.67-.202.093-.368.004-.368-.199v-.75c0-.202.165-.443.368-.536.483-.223.967-.449 1.45-.67zm-3.742 1.672c.202-.081.368.016.368.218v.75c0 .202-.165.436-.368.517-.332.143-.812.32-1.301.48l-.149.042c-.202.064-.367-.054-.368-.256v-.75c0-.202.165-.415.368-.479a19.683 19.683 0 0 0 1.589-.573l-.139.051zm-3.742 1.036c.202-.024.368.115.368.317v.75a.434.434 0 0 1-.368.418 8.68 8.68 0 0 1-1.45.053.4.4 0 0 1-.368-.395v-.75a.34.34 0 0 1 .368-.34c.483.025.966.004 1.45-.052zm-3.741-.43c.202.078.368.296.368.498v.75c0 .202-.165.315-.368.237a8.029 8.029 0 0 1-1.481-.757l.031.019c-.202-.129-.368-.413-.368-.615v-.75c0-.202.165-.249.368-.12.416.272.893.52 1.395.719l.055.019z"/></symbol><symbol id="icon-clapper" viewBox="0 0 32 32"><path style="fill:var(--color3,#000)" stroke-linejoin="round" stroke-linecap="round" stroke-miterlimit="10" stroke-width=".56" stroke="#000" d="M5.152 17.312H28v10.816H5.152V17.312z"/><path fill="orange" style="fill:var(--color4,orange)" stroke-linejoin="round" stroke-linecap="round" stroke-miterlimit="10" stroke-width=".56" stroke="#000" d="M28 12.832h-6.4l-4.48 4.48h6.752L28 13.184zM9.792 12.832l-4.48 4.48h6.304l4.48-4.48z"/><path style="fill:var(--color5,#000)" stroke-linejoin="round" stroke-linecap="round" stroke-miterlimit="10" stroke-width=".56" stroke="#000" d="M5.152 12.832v4.48h.16l4.48-4.48zM16.096 12.832l-4.48 4.48h5.504l4.48-4.48zM28 13.184l-4.128 4.128H28z"/><path fill="orange" style="fill:var(--color4,orange)" stroke-linejoin="round" stroke-linecap="round" stroke-miterlimit="10" stroke-width=".56" stroke="#000" d="m26.048 2.592-6.144 1.664-3.168 5.472L23.232 8l2.912-5.088zM8.48 7.296 5.28 12.8l6.112-1.632 3.168-5.504z"/><path style="fill:var(--color5,#000)" stroke-linejoin="round" stroke-linecap="round" stroke-miterlimit="10" stroke-width=".56" stroke="#000" d="m4 8.512 1.152 4.32.128-.032 3.2-5.504zM14.56 5.664l-3.168 5.504 5.344-1.44 3.168-5.472zM26.144 2.912 23.232 8l4-1.088z"/><path fill="orange" style="fill:var(--color4,orange)" stroke-linejoin="round" stroke-linecap="round" stroke-miterlimit="10" stroke-width=".56" stroke="#000" d="M14.368 25.728v-5.984l5.696 2.976z"/></symbol></defs></svg>