<svg aria-hidden="true" style="position: absolute; width: 0; height: 0; overflow: hidden;" version="1.1" xmlns="http://www.w3.org/2000/svg" xmlns:xlink="http://www.w3.org/1999/xlink">
<defs>


<symbol id="icon-favorite" viewBox="0 0 32 32">
<path  d="M16 30.144l-2.24-2.217c-8.32-7.287-13.76-12.201-13.76-18.217 0-4.917 3.84-8.715 8.8-8.715 2.72 0.002 5.44 1.269 7.2 3.326 1.761-2.019 4.329-3.296 7.195-3.323l0.005-0c4.96 0 8.8 3.801 8.8 8.711 0 6.021-5.44 10.933-13.76 18.217l-2.24 2.219z"></path>
</symbol>

<symbol id="icon-close" viewBox="0 0 32 32">
<path d="M32 3.223l-3.223-3.223-12.777 12.777-12.777-12.777-3.223 3.223 12.777 12.777-12.777 12.777 3.223 3.223 12.777-12.777 12.777 12.777 3.223-3.223-12.777-12.777 12.777-12.777z"></path>
</symbol>

<symbol id="icon-close-modal" viewBox="0 0 32 32">
<path d="M23.734 10.304l-1.504-1.504-5.963 5.962-5.962-5.962-1.504 1.504 5.962 5.962-5.962 5.963 1.504 1.504 5.962-5.963 5.963 5.963 1.504-1.504-5.963-5.963 5.963-5.962z"></path>
</symbol>




<symbol id="icon-film" viewBox="0 0 32 32">
<path fill="none" stroke="red" style="stroke: var(--color1, #fff)" stroke-linejoin="round" stroke-linecap="round" stroke-miterlimit="4" stroke-width="2.6667" d="M26.427 2.667h-20.853c-1.605 0-2.907 1.301-2.907 2.907v0 20.853c0 1.605 1.301 2.907 2.907 2.907v0h20.853c1.605 0 2.907-1.301 2.907-2.907v0-20.853c0-1.605-1.301-2.907-2.907-2.907v0zM9.333 2.667v26.667M22.667 2.667v26.667M2.667 16h26.667M2.667 9.333h6.667M2.667 22.667h6.667M22.667 22.667h6.667M22.667 9.333h6.667"></path>
</symbol>
<symbol id="icon-search" viewBox="0 0 32 32">
<path fill="none" stroke="#fff" style="stroke: var(--color1, #fff)" stroke-linejoin="round" stroke-linecap="round" stroke-miterlimit="4" stroke-width="2.6667" d="M14.667 25.333c5.891 0 10.667-4.776 10.667-10.667s-4.776-10.667-10.667-10.667v0c-5.891 0-10.667 4.776-10.667 10.667s4.776 10.667 10.667 10.667v0zM28 28l-5.8-5.8"></path>
</symbol>

<symbol id="icon-arrow-right" viewBox="0 0 32 32">
<path d="M19.414 27.414l10-10c0.781-0.781 0.781-2.047 0-2.828l-10-10c-0.781-0.781-2.047-0.781-2.828 0s-0.781 2.047 0 2.828l6.586 6.586h-19.172c-1.105 0-2 0.895-2 2s0.895 2 2 2h19.172l-6.586 6.586c-0.39 0.39-0.586 0.902-0.586 1.414s0.195 1.024 0.586 1.414c0.781 0.781 2.047 0.781 2.828 0z"></path>
</symbol>

<symbol id="icon-arrow-left" viewBox="0 0 32 32">
<path d="M12.586 27.414l-10-10c-0.781-0.781-0.781-2.047 0-2.828l10-10c0.781-0.781 2.047-0.781 2.828 0s0.781 2.047 0 2.828l-6.586 6.586h19.172c1.105 0 2 0.895 2 2s-0.895 2-2 2h-19.172l6.586 6.586c0.39 0.39 0.586 0.902 0.586 1.414s-0.195 1.024-0.586 1.414c-0.781 0.781-2.047 0.781-2.828 0z"></path>
</symbol>

<symbol id="icon-arrow-up" viewBox="0 0 32 32">
<path d="M27.414 12.586l-10-10c-0.781-0.781-2.047-0.781-2.828 0l-10 10c-0.781 0.781-0.781 2.047 0 2.828s2.047 0.781 2.828 0l6.586-6.586v19.172c0 1.105 0.895 2 2 2s2-0.895 2-2v-19.172l6.586 6.586c0.39 0.39 0.902 0.586 1.414 0.586s1.024-0.195 1.414-0.586c0.781-0.781 0.781-2.047 0-2.828z"></path>
</symbol>

<symbol id="icon-cinema" viewBox="0 0 32 32">
<path fill="#ffa500" style="fill: var(--color1, #ffa500)" d="M27.831 14.486c-0.324 0-0.66 0.068-0.999 0.201l-3.886 1.526c1.323-1.287 2.147-3.085 2.147-5.072 0-3.905-3.177-7.081-7.081-7.081-3.43 0-6.298 2.452-6.944 5.695-0.917-0.959-2.207-1.558-3.636-1.558-2.775 0-5.032 2.257-5.032 5.032 0 1.732 0.879 3.261 2.215 4.167-0.073 0.028-0.135 0.060-0.194 0.097l0.004-0.003c-0.302 0.197-0.499 0.533-0.499 0.915v0 7.142c0 1.32 1.074 2.394 2.394 2.394h13.384c1.32 0 2.394-1.074 2.394-2.394v-2.726c0.238 0.183 0.511 0.341 0.802 0.46l0.023 0.008 3.908 1.535c0.339 0.133 0.675 0.201 0.998 0.201 1.025 0 1.769-0.694 1.769-1.652v-7.237c0-0.957-0.744-1.651-1.769-1.651z"></path>
<path fill="#000000" style="fill: var(--color2, #000000)" d="M28.657 23.338c0 0.518-0.577 0.715-1.282 0.438l-3.908-1.535c-0.705-0.277-1.282-0.927-1.282-1.445v-2.153c0-0.518 0.577-1.168 1.282-1.445l3.908-1.535c0.705-0.277 1.282-0.080 1.282 0.438v7.236z"></path>
<path fill="#000000" style="fill: var(--color2, #000000)" d="M18.157 5.111c-3.31 0-5.993 2.683-5.993 5.993s2.683 5.994 5.993 5.994 5.993-2.684 5.993-5.994c0-3.31-2.683-5.993-5.993-5.993zM16.331 10.224c-0.826-0.433-1.793-1.145-2.055-1.407-0.437-0.437-0.146-0.855 0.291-1.292s0.855-0.728 1.292-0.291c0.262 0.262 0.974 1.229 1.407 2.055-0.432 0.167-0.768 0.503-0.932 0.924l-0.004 0.011zM18.157 12.38c-0.705 0-1.276-0.571-1.276-1.276s0.571-1.276 1.276-1.276v0c0.705 0 1.276 0.571 1.276 1.276s-0.571 1.276-1.276 1.276v0z"></path>
<path fill="#000000" style="fill: var(--color2, #000000)" d="M7.577 9.248c-2.178 0-3.944 1.766-3.944 3.944s1.766 3.944 3.944 3.944 3.944-1.766 3.944-3.944-1.766-3.944-3.944-3.944zM6.067 15.71c-0.307 0.307-0.601 0.103-0.908-0.205s-0.512-0.601-0.205-0.908c0.184-0.184 0.864-0.685 1.445-0.989 0.118 0.304 0.354 0.54 0.65 0.655l0.008 0.003c-0.305 0.581-0.805 1.26-0.989 1.445zM7.577 14.038c-0.468 0-0.847-0.379-0.847-0.847s0.379-0.847 0.847-0.847v0c0.468 0 0.847 0.379 0.847 0.847s-0.379 0.847-0.847 0.847v0z"></path>
<path fill="#000000" style="fill: var(--color2, #000000)" d="M18.084 18.839c-2.151 0-4.099-0.883-5.502-2.306h-0.483c-1.035 1.419-2.708 2.343-4.595 2.343-0.836 0-1.629-0.183-2.345-0.508v7.142c0.002 0.72 0.586 1.304 1.306 1.306h13.384c0.72-0.002 1.304-0.586 1.306-1.306v-7.309c-0.903 0.403-1.957 0.637-3.065 0.637-0.002 0-0.004 0-0.006 0h0z"></path>
</symbol>
<symbol id="icon-membrane" viewBox="0 0 32 32">
<path fill="#ffa500" style="fill: var(--color1, #ffa500)" d="M8.348 27.396c-2.195 0-4.15-0.757-5.977-2.313-0.383-0.326-0.771-0.937-0.771-1.567v-15.031c0-0.733 0.557-1.308 1.268-1.308 0.24 0 0.606 0.068 0.988 0.394 1.396 1.189 2.865 1.767 4.491 1.767h0.001c2.298-0 4.664-1.098 7.169-2.26 2.621-1.216 5.331-2.473 8.135-2.473 2.195 0 4.15 0.757 5.978 2.313 0.383 0.325 0.771 0.937 0.771 1.567v15.031c0 0.733-0.557 1.308-1.268 1.308-0.24 0-0.606-0.068-0.988-0.394-1.396-1.189-2.865-1.766-4.492-1.766-2.298 0-4.664 1.098-7.169 2.26-2.621 1.216-5.331 2.473-8.134 2.473h-0.001z"></path>
<path fill="#000000" style="fill: var(--color2, #000000)" d="M2.746 23.516c0 0.202 0.165 0.523 0.368 0.695 8.591 7.317 17.181-7.971 25.772-0.654 0.202 0.172 0.367 0.162 0.367-0.041v-15.031c0-0.202-0.165-0.523-0.367-0.694-8.591-7.317-17.182 7.971-25.772 0.654-0.202-0.172-0.368-0.162-0.368 0.041v15.031zM28.223 20.171c0.202 0.145 0.368 0.443 0.368 0.645v0.75c0 0.203-0.165 0.235-0.368 0.090-0.419-0.308-0.895-0.591-1.397-0.826l-0.052-0.022c-0.202-0.092-0.367-0.321-0.367-0.524v-0.75c0-0.202 0.165-0.304 0.367-0.212 0.555 0.257 1.030 0.54 1.474 0.864l-0.024-0.017zM24.481 18.695c0.203 0.021 0.368 0.213 0.368 0.416v0.75c0 0.203-0.165 0.34-0.368 0.319-0.483-0.051-0.966-0.055-1.45-0.021-0.202 0.014-0.367-0.132-0.367-0.333v-0.75c-0-0.202 0.165-0.387 0.367-0.402 0.182-0.014 0.394-0.023 0.608-0.023 0.297 0 0.589 0.016 0.878 0.047l-0.036-0.003zM20.74 19.1c0.202-0.058 0.367 0.066 0.368 0.268v0.75c0 0.202-0.165 0.409-0.368 0.468-0.621 0.179-1.103 0.344-1.575 0.529l0.125-0.043c-0.202 0.076-0.367-0.023-0.367-0.225v-0.75c0-0.202 0.165-0.433 0.367-0.51 0.347-0.141 0.829-0.307 1.32-0.452l0.13-0.033zM16.998 20.558c0.202-0.092 0.367-0.001 0.367 0.201v0.75c0 0.202-0.165 0.442-0.367 0.534-0.483 0.22-0.966 0.446-1.45 0.67-0.202 0.093-0.368 0.004-0.368-0.198v-0.75c0-0.202 0.165-0.443 0.368-0.537 0.483-0.223 0.966-0.449 1.45-0.67zM13.256 22.236c0.202-0.082 0.368 0.014 0.368 0.216v0.75c0 0.202-0.165 0.437-0.368 0.519-0.483 0.195-0.966 0.375-1.45 0.532-0.202 0.066-0.368-0.051-0.368-0.253v-0.75c0-0.203 0.165-0.417 0.368-0.482 0.642-0.209 1.122-0.389 1.594-0.586l-0.145 0.053zM9.515 23.307c0.202-0.026 0.368 0.11 0.368 0.313v0.75c0 0.202-0.165 0.396-0.368 0.422-0.483 0.063-0.966 0.090-1.45 0.074-0.202-0.007-0.368-0.187-0.368-0.389v-0.75c0-0.202 0.165-0.353 0.368-0.346 0.483 0.017 0.966-0.011 1.45-0.074zM5.773 22.938c0.202 0.074 0.368 0.288 0.368 0.491v0.75c0 0.202-0.165 0.318-0.368 0.244-0.557-0.207-1.035-0.445-1.483-0.727l0.033 0.019c-0.202-0.124-0.368-0.405-0.368-0.607v-0.75c0-0.203 0.165-0.253 0.368-0.128 0.483 0.298 0.967 0.531 1.45 0.707zM26.338 10.099c0.202 0.077 0.367 0.317 0.367 0.519v6.965c0 0.203-0.165 0.293-0.367 0.216-1.886-0.722-3.772-0.57-5.659-0.022-0.202 0.059-0.367-0.054-0.367-0.256v-6.965c0-0.202 0.165-0.42 0.367-0.479 1.886-0.548 3.772-0.7 5.659 0.021zM18.565 10.831c0.202-0.083 0.368 0.017 0.368 0.219v6.965c0 0.202-0.165 0.433-0.368 0.516-1.886 0.777-3.773 1.77-5.659 2.502-0.202 0.079-0.368-0.026-0.368-0.228v-6.965c0-0.202 0.165-0.428 0.368-0.507 1.886-0.732 3.773-1.726 5.659-2.503zM10.793 14.020c0.202-0.050 0.368 0.068 0.368 0.27v6.965c0 0.202-0.165 0.414-0.368 0.465-1.886 0.47-3.773 0.499-5.659-0.39-0.202-0.095-0.368-0.351-0.368-0.553v-6.965c0-0.202 0.165-0.277 0.368-0.182 1.886 0.89 3.773 0.86 5.659 0.39zM28.1 8.16c0.202 0.14 0.367 0.435 0.367 0.636v0.75c0 0.202-0.165 0.239-0.367 0.099-0.418-0.297-0.894-0.57-1.396-0.794l-0.053-0.021c-0.202-0.088-0.367-0.314-0.367-0.516v-0.75c0-0.202 0.165-0.307 0.367-0.219 0.555 0.246 1.032 0.518 1.476 0.833l-0.026-0.018zM24.358 6.759c0.202 0.018 0.368 0.207 0.368 0.41v0.75c0 0.202-0.165 0.343-0.368 0.325-0.215-0.020-0.465-0.031-0.718-0.031-0.258 0-0.513 0.012-0.764 0.035l0.032-0.002c-0.202 0.017-0.368-0.126-0.368-0.329v-0.75c0-0.202 0.165-0.389 0.368-0.406 0.483-0.042 0.966-0.044 1.45-0.001zM20.616 7.212c0.202-0.060 0.368 0.062 0.368 0.264v0.75c0 0.202-0.165 0.411-0.368 0.471-0.483 0.143-0.966 0.311-1.45 0.497-0.202 0.078-0.368-0.021-0.368-0.223v-0.75c0-0.202 0.165-0.434 0.368-0.512 0.483-0.186 0.966-0.354 1.45-0.496zM16.875 8.69c0.202-0.092 0.368-0.002 0.368 0.2v0.75c0 0.202-0.165 0.442-0.368 0.535-0.483 0.221-0.967 0.447-1.45 0.67-0.202 0.093-0.368 0.004-0.368-0.199v-0.75c0-0.202 0.165-0.443 0.368-0.536 0.483-0.223 0.967-0.449 1.45-0.67zM13.133 10.362c0.202-0.081 0.368 0.016 0.368 0.218v0.75c0 0.202-0.165 0.436-0.368 0.517-0.332 0.143-0.812 0.32-1.301 0.48l-0.149 0.042c-0.202 0.064-0.367-0.054-0.368-0.256v-0.75c0-0.202 0.165-0.415 0.368-0.479 0.636-0.202 1.117-0.379 1.589-0.573l-0.139 0.051zM9.391 11.398c0.202-0.024 0.368 0.115 0.368 0.317v0.75c0 0.202-0.165 0.394-0.368 0.418-0.483 0.057-0.966 0.077-1.45 0.053-0.202-0.010-0.368-0.193-0.368-0.395v-0.75c0-0.202 0.165-0.35 0.368-0.34 0.483 0.025 0.966 0.004 1.45-0.052zM5.65 10.968c0.202 0.078 0.368 0.296 0.368 0.498v0.75c0 0.202-0.165 0.315-0.368 0.237-0.557-0.218-1.034-0.466-1.481-0.757l0.031 0.019c-0.202-0.129-0.368-0.413-0.368-0.615v-0.75c0-0.202 0.165-0.249 0.368-0.12 0.416 0.272 0.893 0.52 1.395 0.719l0.055 0.019z"></path>
</symbol>
<symbol id="icon-clapper" viewBox="0 0 32 32">
<path fill="#000000" style="fill: var(--color3, #000000)" stroke-linejoin="round" stroke-linecap="round" stroke-miterlimit="10" stroke-width="0.56" stroke="#000" d="M5.152 17.312h22.848v10.816h-22.848v-10.816z"></path>
<path fill="#ffa500" style="fill: var(--color4, #ffa500)" stroke-linejoin="round" stroke-linecap="round" stroke-miterlimit="10" stroke-width="0.56" stroke="#000" d="M28 12.832h-6.4l-4.48 4.48h6.752l4.128-4.128z"></path>
<path fill="#ffa500" style="fill: var(--color4, #ffa500)" stroke-linejoin="round" stroke-linecap="round" stroke-miterlimit="10" stroke-width="0.56" stroke="#000" d="M9.792 12.832l-4.48 4.48h6.304l4.48-4.48z"></path>
<path fill="#000000" style="fill: var(--color5, #000000)" stroke-linejoin="round" stroke-linecap="round" stroke-miterlimit="10" stroke-width="0.56" stroke="#000" d="M5.152 12.832v4.48h0.16l4.48-4.48z"></path>
<path fill="#000000" style="fill: var(--color5, #000000)" stroke-linejoin="round" stroke-linecap="round" stroke-miterlimit="10" stroke-width="0.56" stroke="#000" d="M16.096 12.832l-4.48 4.48h5.504l4.48-4.48z"></path>
<path fill="#000000" style="fill: var(--color5, #000000)" stroke-linejoin="round" stroke-linecap="round" stroke-miterlimit="10" stroke-width="0.56" stroke="#000" d="M28 13.184l-4.128 4.128h4.128z"></path>
<path fill="#ffa500" style="fill: var(--color4, #ffa500)" stroke-linejoin="round" stroke-linecap="round" stroke-miterlimit="10" stroke-width="0.56" stroke="#000" d="M26.048 2.592l-6.144 1.664-3.168 5.472 6.496-1.728 2.912-5.088z"></path>
<path fill="#ffa500" style="fill: var(--color4, #ffa500)" stroke-linejoin="round" stroke-linecap="round" stroke-miterlimit="10" stroke-width="0.56" stroke="#000" d="M8.48 7.296l-3.2 5.504 6.112-1.632 3.168-5.504z"></path>
<path fill="#000000" style="fill: var(--color5, #000000)" stroke-linejoin="round" stroke-linecap="round" stroke-miterlimit="10" stroke-width="0.56" stroke="#000" d="M4 8.512l1.152 4.32 0.128-0.032 3.2-5.504z"></path>
<path fill="#000000" style="fill: var(--color5, #000000)" stroke-linejoin="round" stroke-linecap="round" stroke-miterlimit="10" stroke-width="0.56" stroke="#000" d="M14.56 5.664l-3.168 5.504 5.344-1.44 3.168-5.472z"></path>
<path fill="#000000" style="fill: var(--color5, #000000)" stroke-linejoin="round" stroke-linecap="round" stroke-miterlimit="10" stroke-width="0.56" stroke="#000" d="M26.144 2.912l-2.912 5.088 4-1.088z"></path>
<path fill="#ffa500" style="fill: var(--color4, #ffa500)" stroke-linejoin="round" stroke-linecap="round" stroke-miterlimit="10" stroke-width="0.56" stroke="#000" d="M14.368 25.728v-5.984l5.696 2.976z"></path>

</symbol>


<symbol id="icon-moon" viewBox="0 0 20 20">
<path d="M13.719 1.8c0.686 0.385 1.332 0.867 1.916 1.449 3.42 3.422 3.42 8.966 0 12.386s-8.965 3.42-12.386 0c-0.583-0.584-1.065-1.231-1.449-1.916 3.335 1.867 7.633 1.387 10.469-1.449s3.318-7.134 1.45-10.47z"></path>
</symbol>

<symbol id="icon-sun" viewBox="0 0 32 32">
<path d="M16 26c1.105 0 2 0.895 2 2v2c0 1.105-0.895 2-2 2s-2-0.895-2-2v-2c0-1.105 0.895-2 2-2zM16 6c-1.105 0-2-0.895-2-2v-2c0-1.105 0.895-2 2-2s2 0.895 2 2v2c0 1.105-0.895 2-2 2zM30 14c1.105 0 2 0.895 2 2s-0.895 2-2 2h-2c-1.105 0-2-0.895-2-2s0.895-2 2-2h2zM6 16c0 1.105-0.895 2-2 2h-2c-1.105 0-2-0.895-2-2s0.895-2 2-2h2c1.105 0 2 0.895 2 2zM25.899 23.071l1.414 1.414c0.781 0.781 0.781 2.047 0 2.828s-2.047 0.781-2.828 0l-1.414-1.414c-0.781-0.781-0.781-2.047 0-2.828s2.047-0.781 2.828 0zM6.101 8.929l-1.414-1.414c-0.781-0.781-0.781-2.047 0-2.828s2.047-0.781 2.828 0l1.414 1.414c0.781 0.781 0.781 2.047 0 2.828s-2.047 0.781-2.828 0zM25.899 8.929c-0.781 0.781-2.047 0.781-2.828 0s-0.781-2.047 0-2.828l1.414-1.414c0.781-0.781 2.047-0.781 2.828 0s0.781 2.047 0 2.828l-1.414 1.414zM6.101 23.071c0.781-0.781 2.047-0.781 2.828 0s0.781 2.047 0 2.828l-1.414 1.414c-0.781 0.781-2.047 0.781-2.828 0s-0.781-2.047 0-2.828l1.414-1.414z"></path>
<path d="M16 8c-4.418 0-8 3.582-8 8s3.582 8 8 8c4.418 0 8-3.582 8-8s-3.582-8-8-8zM16 21c-2.761 0-5-2.239-5-5s2.239-5 5-5 5 2.239 5 5-2.239 5-5 5z"></path>
</symbol>

<symbol id="icon-rupor" viewBox="0 0 32 32">
<path fill="#e0e0e0" style="fill: var(--color1, #e0e0e0)" d="M11.165 28.396c-1.016 0-1.857-0.772-1.967-1.782-0.379-3.463-1.517-6.071-3.096-9.803h3.71c1.553 2.824 2.58 5.705 3.29 9.204 0.249 1.229-0.684 2.381-1.938 2.381z"></path>
<path fill="#000" style="fill: var(--color2, #000)" opacity="0.1" d="M13.091 25.957c-0.623-3.050-1.49-5.631-2.738-8.117-0.254-0.514-0.434-0.851-0.62-1.184l0.079 0.155h-3.71c0.308 0.728 0.598 1.412 0.87 2.069h1.935c0.685 0 1.28 0.462 1.467 1.121 0.837 2.959 0.426 5.712-1.104 6.966 0.273 0.929 1.185 1.566 2.214 1.404 1.118-0.176 1.833-1.305 1.607-2.414z"></path>
<path fill="#e0e0e0" style="fill: var(--color1, #e0e0e0)" d="M27.236 16.154l-7.154 0.573c-0.041 0.003-0.088 0.005-0.135 0.005-0.938 0-1.699-0.761-1.699-1.699v-1.146c0-0.938 0.761-1.699 1.699-1.699 0.048 0 0.095 0.002 0.142 0.006l-0.006-0 7.154 0.573c0.875 0.075 1.557 0.805 1.557 1.693s-0.682 1.618-1.551 1.693l-0.006 0z"></path>
<path fill="#000" style="fill: var(--color2, #000)" opacity="0.1" d="M27.236 16.154l-7.154 0.573c-0.041 0.003-0.088 0.005-0.135 0.005-0.938 0-1.699-0.761-1.699-1.699v-1.146c0-0.938 0.761-1.699 1.699-1.699 0.048 0 0.095 0.002 0.142 0.006l-0.006-0 7.154 0.573c0.875 0.075 1.557 0.805 1.557 1.693s-0.682 1.618-1.551 1.693l-0.006 0z"></path>
<path fill="#e0e0e0" style="fill: var(--color1, #e0e0e0)" d="M22.983 5.313c-3.787 2.711-7.439 4.666-10.882 5.451v7.393c3.443 0.786 7.095 2.74 10.882 5.451 0.873 0.625 2.087 0.008 2.087-1.065v-16.164c0-1.074-1.214-1.69-2.087-1.065z"></path>
<path fill="#000" style="fill: var(--color2, #000)" opacity="0.1" d="M25.070 6.378c0-1.074-1.214-1.69-2.087-1.065-0.227 0.169-0.625 0.449-1.028 0.724l-0.197 0.127c-0.014 5.38-2.649 10.123-6.656 12.946 2.54 1.014 5.176 2.562 7.881 4.498 0.873 0.625 2.087 0.008 2.087-1.065v-16.164z"></path>
<path fill="#323232" style="fill: var(--color3, #323232)" d="M24.361 25.317c-0 0-0 0-0 0-0.452 0-0.819-0.367-0.819-0.819 0-0 0-0 0-0v0-20.075c0-0.453 0.367-0.82 0.82-0.82s0.82 0.367 0.82 0.82v20.075c-0 0.453-0.367 0.819-0.82 0.82h-0z"></path>
<path fill="#ff001b" style="fill: var(--color4, #ff001b)" d="M12.101 18.157h-5.205c-2.042 0-3.696-1.655-3.696-3.696s1.655-3.696 3.696-3.696h5.205v7.393z"></path>
<path fill="#000" style="fill: var(--color2, #000)" opacity="0.1" d="M10.64 10.764c0 5.097-2.782 5.977-6.525 6.125 0.677 0.775 1.671 1.267 2.781 1.267h5.205v-7.392h-1.461z"></path>
</symbol>

<symbol id="icon-info" viewBox="0 0 32 32">
<path fill="#fff" style="fill: var(--color5, #fff)" d="M15.348 3.216c-6.488 0.322-11.771 5.577-12.128 12.064-0.154 2.804 0.598 5.422 1.986 7.596l-1.564 4.622c-0.18 0.533 0.329 1.043 0.862 0.862l4.622-1.564c2.174 1.388 4.792 2.14 7.596 1.986 6.486-0.357 11.742-5.64 12.064-12.128 0.376-7.584-5.852-13.813-13.436-13.436z"></path>
<path fill="#ff001b" style="fill: var(--color6, #ff001b)" d="M17.419 22.88h-2.838c-0.277 0-0.501-0.224-0.501-0.501v0-6.678c0-0.276 0.224-0.501 0.501-0.501h2.838c0.276 0 0.501 0.224 0.501 0.501v6.678c0 0.276-0.224 0.501-0.501 0.501z"></path>
<path fill="#ff001b" style="fill: var(--color6, #ff001b)" d="M16 8.96c-1.281 0-2.32 1.039-2.32 2.32s1.039 2.32 2.32 2.32v0c1.281 0 2.32-1.039 2.32-2.32s-1.039-2.32-2.32-2.32v0z"></path>
</symbol>

<symbol id="icon-video" viewBox="0 0 32 32">
<path fill="#e15c64" style="fill: var(--color4, #e15c64)" stroke-linejoin="round" stroke-linecap="round" stroke-miterlimit="10" stroke-width="0.56" stroke="#000" d="M28 16c0 6.627-5.373 12-12 12s-12-5.373-12-12c0-6.627 5.373-12 12-12s12 5.373 12 12z"></path>
<path fill="#fff" style="fill: var(--color6, #fff)" stroke-linejoin="round" stroke-linecap="round" stroke-miterlimit="10" stroke-width="0.56" stroke="#000" d="M16.384 19.232h-5.472c-0.96 0-1.728-0.768-1.728-1.728v-3.008c0-0.96 0.768-1.728 1.728-1.728h5.472c0.96 0 1.728 0.768 1.728 1.728v3.008c0 0.96-0.768 1.728-1.728 1.728z"></path>
<path fill="#fff" style="fill: var(--color6, #fff)" stroke-linejoin="round" stroke-linecap="round" stroke-miterlimit="10" stroke-width="0.56" stroke="#000" d="M18.112 18.176l4.384 1.216v-6.784l-4.384 1.216z"></path>
</symbol>

<symbol id="icon-ukraine" viewBox="0 0 32 32">
<path fill="#245eac" style="fill: var(--color6, #245eac)" d="M1.6 6.4h28.8v9.6h-28.8z"></path>
<path fill="#fed500" style="fill: var(--color7, #fed500)" d="M1.6 16h28.8v9.6h-28.8z"></path>
</symbol>

<symbol id="icon-the-united-states" viewBox="0 0 32 32">
<path fill="#b22335" style="fill: var(--color4, #b22335)" d="M1.6 20.081h28.8v1.166h-28.8z"></path>
<path fill="#b22335" style="fill: var(--color4, #b22335)" d="M1.6 15.417h28.8v1.166h-28.8z"></path>
<path fill="#b22335" style="fill: var(--color4, #b22335)" d="M1.6 22.413h28.8v1.166h-28.8z"></path>
<path fill="#b22335" style="fill: var(--color4, #b22335)" d="M1.6 17.749h28.8v1.166h-28.8z"></path>
<path fill="#b22335" style="fill: var(--color4, #b22335)" d="M1.6 8.421h28.8v1.166h-28.8z"></path>
<path fill="#b22335" style="fill: var(--color4, #b22335)" d="M1.6 13.085h28.8v1.166h-28.8z"></path>
<path fill="#b22335" style="fill: var(--color4, #b22335)" d="M1.6 10.753h28.8v1.166h-28.8z"></path>
<path fill="#fff" style="fill: var(--color2, #fff)" d="M1.6 9.587v1.166h28.8v-1.166z"></path>
<path fill="#fff" style="fill: var(--color2, #fff)" d="M1.6 12.502v0.583h28.8v-1.166h-28.8z"></path>
<path fill="#fff" style="fill: var(--color2, #fff)" d="M1.6 14.834v0.583h28.8v-1.166h-28.8z"></path>
<path fill="#fff" style="fill: var(--color2, #fff)" d="M1.6 21.83v0.583h28.8v-1.166h-28.8z"></path>
<path fill="#fff" style="fill: var(--color2, #fff)" d="M1.6 19.498v0.583h28.8v-1.166h-28.8z"></path>
<path fill="#fff" style="fill: var(--color2, #fff)" d="M1.6 17.166v0.583h28.8v-1.166h-28.8z"></path>
<path fill="#3d3b6e" style="fill: var(--color5, #3d3b6e)" d="M1.6 8.421h11.52v8.162h-11.52z"></path>
<path fill="#fff" style="fill: var(--color2, #fff)" d="M2.56 8.771l-0.105 0.322h-0.339l0.274 0.199-0.105 0.323 0.274-0.199 0.274 0.199-0.105-0.323 0.274-0.199h-0.339z"></path>
<path fill="#fff" style="fill: var(--color2, #fff)" d="M2.56 10.403l-0.105 0.322h-0.339l0.274 0.199-0.105 0.322 0.274-0.199 0.274 0.199-0.105-0.322 0.274-0.199h-0.339z"></path>
<path fill="#fff" style="fill: var(--color2, #fff)" d="M2.56 12.036l-0.105 0.322h-0.339l0.274 0.199-0.105 0.322 0.274-0.199 0.274 0.199-0.105-0.322 0.274-0.199h-0.339z"></path>
<path fill="#fff" style="fill: var(--color2, #fff)" d="M2.56 13.668l-0.105 0.322h-0.339l0.274 0.199-0.105 0.322 0.274-0.199 0.274 0.199-0.105-0.322 0.274-0.199h-0.339z"></path>
<path fill="#fff" style="fill: var(--color2, #fff)" d="M2.665 15.623l-0.105-0.322-0.105 0.322h-0.339l0.274 0.199-0.105 0.322 0.274-0.199 0.274 0.199-0.105-0.322 0.274-0.199z"></path>
<path fill="#fff" style="fill: var(--color2, #fff)" d="M3.52 9.587l-0.105 0.322h-0.339l0.274 0.199-0.105 0.322 0.274-0.199 0.274 0.199-0.105-0.322 0.274-0.199h-0.339z"></path>
<path fill="#fff" style="fill: var(--color2, #fff)" d="M3.52 11.22l-0.105 0.322h-0.339l0.274 0.199-0.105 0.322 0.274-0.199 0.274 0.199-0.105-0.322 0.274-0.199h-0.339z"></path>
<path fill="#fff" style="fill: var(--color2, #fff)" d="M3.52 12.852l-0.105 0.322h-0.339l0.274 0.199-0.105 0.323 0.274-0.199 0.274 0.199-0.105-0.323 0.274-0.199h-0.339z"></path>
<path fill="#fff" style="fill: var(--color2, #fff)" d="M3.625 14.806l-0.105-0.322-0.105 0.322h-0.339l0.274 0.199-0.105 0.322 0.274-0.199 0.274 0.199-0.105-0.322 0.274-0.199z"></path>
<path fill="#fff" style="fill: var(--color2, #fff)" d="M4.48 8.771l-0.105 0.322h-0.339l0.274 0.199-0.105 0.323 0.274-0.199 0.274 0.199-0.105-0.323 0.274-0.199h-0.339z"></path>
<path fill="#fff" style="fill: var(--color2, #fff)" d="M4.48 10.403l-0.105 0.322h-0.339l0.274 0.199-0.105 0.322 0.274-0.199 0.274 0.199-0.105-0.322 0.274-0.199h-0.339z"></path>
<path fill="#fff" style="fill: var(--color2, #fff)" d="M4.48 12.036l-0.105 0.322h-0.339l0.274 0.199-0.105 0.322 0.274-0.199 0.274 0.199-0.105-0.322 0.274-0.199h-0.339z"></path>
<path fill="#fff" style="fill: var(--color2, #fff)" d="M4.48 13.668l-0.105 0.322h-0.339l0.274 0.199-0.105 0.322 0.274-0.199 0.274 0.199-0.105-0.322 0.274-0.199h-0.339z"></path>
<path fill="#fff" style="fill: var(--color2, #fff)" d="M4.585 15.623l-0.105-0.322-0.105 0.322h-0.339l0.274 0.199-0.105 0.322 0.274-0.199 0.274 0.199-0.105-0.322 0.274-0.199z"></path>
<path fill="#fff" style="fill: var(--color2, #fff)" d="M5.44 9.587l-0.105 0.322h-0.339l0.274 0.199-0.105 0.322 0.274-0.199 0.274 0.199-0.105-0.322 0.274-0.199h-0.339z"></path>
<path fill="#fff" style="fill: var(--color2, #fff)" d="M5.44 11.22l-0.105 0.322h-0.339l0.274 0.199-0.105 0.322 0.274-0.199 0.274 0.199-0.105-0.322 0.274-0.199h-0.339z"></path>
<path fill="#fff" style="fill: var(--color2, #fff)" d="M5.44 12.852l-0.105 0.322h-0.339l0.274 0.199-0.105 0.323 0.274-0.199 0.274 0.199-0.105-0.323 0.274-0.199h-0.339z"></path>
<path fill="#fff" style="fill: var(--color2, #fff)" d="M5.545 14.806l-0.105-0.322-0.105 0.322h-0.339l0.274 0.199-0.105 0.322 0.274-0.199 0.274 0.199-0.105-0.322 0.274-0.199z"></path>
<path fill="#fff" style="fill: var(--color2, #fff)" d="M6.4 8.771l-0.105 0.322h-0.339l0.274 0.199-0.105 0.323 0.274-0.199 0.274 0.199-0.105-0.323 0.274-0.199h-0.339z"></path>
<path fill="#fff" style="fill: var(--color2, #fff)" d="M6.4 10.403l-0.105 0.322h-0.339l0.274 0.199-0.105 0.322 0.274-0.199 0.274 0.199-0.105-0.322 0.274-0.199h-0.339z"></path>
<path fill="#fff" style="fill: var(--color2, #fff)" d="M6.4 12.036l-0.105 0.322h-0.339l0.274 0.199-0.105 0.322 0.274-0.199 0.274 0.199-0.105-0.322 0.274-0.199h-0.339z"></path>
<path fill="#fff" style="fill: var(--color2, #fff)" d="M6.4 13.668l-0.105 0.322h-0.339l0.274 0.199-0.105 0.322 0.274-0.199 0.274 0.199-0.105-0.322 0.274-0.199h-0.339z"></path>
<path fill="#fff" style="fill: var(--color2, #fff)" d="M6.505 15.623l-0.105-0.322-0.105 0.322h-0.339l0.274 0.199-0.105 0.322 0.274-0.199 0.274 0.199-0.105-0.322 0.274-0.199z"></path>
<path fill="#fff" style="fill: var(--color2, #fff)" d="M7.36 9.587l-0.105 0.322h-0.339l0.274 0.199-0.105 0.322 0.274-0.199 0.274 0.199-0.105-0.322 0.274-0.199h-0.339z"></path>
<path fill="#fff" style="fill: var(--color2, #fff)" d="M7.36 11.22l-0.105 0.322h-0.339l0.274 0.199-0.105 0.322 0.274-0.199 0.274 0.199-0.105-0.322 0.274-0.199h-0.339z"></path>
<path fill="#fff" style="fill: var(--color2, #fff)" d="M7.36 12.852l-0.105 0.322h-0.339l0.274 0.199-0.105 0.323 0.274-0.199 0.274 0.199-0.105-0.323 0.274-0.199h-0.339z"></path>
<path fill="#fff" style="fill: var(--color2, #fff)" d="M7.465 14.806l-0.105-0.322-0.105 0.322h-0.339l0.274 0.199-0.105 0.322 0.274-0.199 0.274 0.199-0.105-0.322 0.274-0.199z"></path>
<path fill="#fff" style="fill: var(--color2, #fff)" d="M8.32 8.771l-0.105 0.322h-0.339l0.274 0.199-0.105 0.323 0.274-0.199 0.274 0.199-0.105-0.323 0.274-0.199h-0.339z"></path>
<path fill="#fff" style="fill: var(--color2, #fff)" d="M8.32 10.403l-0.105 0.322h-0.339l0.274 0.199-0.105 0.322 0.274-0.199 0.274 0.199-0.105-0.322 0.274-0.199h-0.339z"></path>
<path fill="#fff" style="fill: var(--color2, #fff)" d="M8.32 12.036l-0.105 0.322h-0.339l0.274 0.199-0.105 0.322 0.274-0.199 0.274 0.199-0.105-0.322 0.274-0.199h-0.339z"></path>
<path fill="#fff" style="fill: var(--color2, #fff)" d="M8.32 13.668l-0.105 0.322h-0.339l0.274 0.199-0.105 0.322 0.274-0.199 0.274 0.199-0.105-0.322 0.274-0.199h-0.339z"></path>
<path fill="#fff" style="fill: var(--color2, #fff)" d="M8.425 15.623l-0.105-0.322-0.105 0.322h-0.339l0.274 0.199-0.105 0.322 0.274-0.199 0.274 0.199-0.105-0.322 0.274-0.199z"></path>
<path fill="#fff" style="fill: var(--color2, #fff)" d="M9.28 9.587l-0.105 0.322h-0.339l0.274 0.199-0.105 0.322 0.274-0.199 0.274 0.199-0.105-0.322 0.274-0.199h-0.339z"></path>
<path fill="#fff" style="fill: var(--color2, #fff)" d="M9.28 11.22l-0.105 0.322h-0.339l0.274 0.199-0.105 0.322 0.274-0.199 0.274 0.199-0.105-0.322 0.274-0.199h-0.339z"></path>
<path fill="#fff" style="fill: var(--color2, #fff)" d="M9.28 12.852l-0.105 0.322h-0.339l0.274 0.199-0.105 0.323 0.274-0.199 0.274 0.199-0.105-0.323 0.274-0.199h-0.339z"></path>
<path fill="#fff" style="fill: var(--color2, #fff)" d="M9.385 14.806l-0.105-0.322-0.105 0.322h-0.339l0.274 0.199-0.105 0.322 0.274-0.199 0.274 0.199-0.105-0.322 0.274-0.199z"></path>
<path fill="#fff" style="fill: var(--color2, #fff)" d="M10.24 8.771l-0.105 0.322h-0.339l0.274 0.199-0.105 0.323 0.274-0.199 0.274 0.199-0.105-0.323 0.274-0.199h-0.339z"></path>
<path fill="#fff" style="fill: var(--color2, #fff)" d="M10.24 10.403l-0.105 0.322h-0.339l0.274 0.199-0.105 0.322 0.274-0.199 0.274 0.199-0.105-0.322 0.274-0.199h-0.339z"></path>
<path fill="#fff" style="fill: var(--color2, #fff)" d="M10.24 12.036l-0.105 0.322h-0.339l0.274 0.199-0.105 0.322 0.274-0.199 0.274 0.199-0.105-0.322 0.274-0.199h-0.339z"></path>
<path fill="#fff" style="fill: var(--color2, #fff)" d="M10.24 13.668l-0.105 0.322h-0.339l0.274 0.199-0.105 0.322 0.274-0.199 0.274 0.199-0.105-0.322 0.274-0.199h-0.339z"></path>
<path fill="#fff" style="fill: var(--color2, #fff)" d="M10.345 15.623l-0.105-0.322-0.105 0.322h-0.339l0.274 0.199-0.105 0.322 0.274-0.199 0.274 0.199-0.105-0.322 0.274-0.199z"></path>
<path fill="#fff" style="fill: var(--color2, #fff)" d="M11.2 9.587l-0.105 0.322h-0.339l0.274 0.199-0.105 0.322 0.274-0.199 0.274 0.199-0.105-0.322 0.274-0.199h-0.339z"></path>
<path fill="#fff" style="fill: var(--color2, #fff)" d="M11.2 11.22l-0.105 0.322h-0.339l0.274 0.199-0.105 0.322 0.274-0.199 0.274 0.199-0.105-0.322 0.274-0.199h-0.339z"></path>
<path fill="#fff" style="fill: var(--color2, #fff)" d="M11.2 12.852l-0.105 0.322h-0.339l0.274 0.199-0.105 0.323 0.274-0.199 0.274 0.199-0.105-0.323 0.274-0.199h-0.339z"></path>
<path fill="#fff" style="fill: var(--color2, #fff)" d="M11.305 14.806l-0.105-0.322-0.105 0.322h-0.339l0.274 0.199-0.105 0.322 0.274-0.199 0.274 0.199-0.105-0.322 0.274-0.199z"></path>
<path fill="#fff" style="fill: var(--color2, #fff)" d="M11.991 9.292l-0.105 0.323 0.274-0.199 0.274 0.199-0.105-0.323 0.274-0.199h-0.339l-0.105-0.322-0.105 0.322h-0.339z"></path>
<path fill="#fff" style="fill: var(--color2, #fff)" d="M12.16 10.403l-0.105 0.322h-0.339l0.274 0.199-0.105 0.322 0.274-0.199 0.274 0.199-0.105-0.322 0.274-0.199h-0.339z"></path>
<path fill="#fff" style="fill: var(--color2, #fff)" d="M12.16 12.036l-0.105 0.322h-0.339l0.274 0.199-0.105 0.322 0.274-0.199 0.274 0.199-0.105-0.322 0.274-0.199h-0.339z"></path>
<path fill="#fff" style="fill: var(--color2, #fff)" d="M12.16 13.668l-0.105 0.322h-0.339l0.274 0.199-0.105 0.322 0.274-0.199 0.274 0.199-0.105-0.322 0.274-0.199h-0.339z"></path>
<path fill="#fff" style="fill: var(--color2, #fff)" d="M12.265 15.623l-0.105-0.322-0.105 0.322h-0.339l0.274 0.199-0.105 0.322 0.274-0.199 0.274 0.199-0.105-0.322 0.274-0.199z"></path>
</symbol>

<symbol id="icon-the-united-kingdom" viewBox="0 0 32 32">
<path fill="#c13d39" style="fill: var(--color1, #c13d39)" d="M14.561 8.803h2.879c0 1.878 0.001 3.755-0.003 5.633-0 0.103 0.027 0.127 0.128 0.127 4.276-0.003 8.552-0.002 12.829-0.002v2.879c-4.276 0-8.552 0-12.829-0.002-0.101 0-0.128 0.023-0.128 0.127 0.004 1.878 0.003 3.755 0.003 5.633h-2.879c0-1.878-0.001-3.755 0.003-5.633 0-0.103-0.027-0.127-0.128-0.127-4.276 0.003-8.552 0.002-12.829 0.002v-2.879c4.276 0 8.552-0 12.829 0.002 0.101 0 0.128-0.023 0.128-0.127-0.004-1.878-0.003-3.756-0.003-5.633z"></path>
<path fill="#fff" style="fill: var(--color2, #fff)" d="M14.561 8.803c0 1.878-0.001 3.755 0.003 5.633 0 0.103-0.027 0.127-0.128 0.127-4.276-0.003-8.552-0.002-12.829-0.002v-0.967c0.015 0.002 0.030 0.005 0.044 0.005 2.076 0 4.152 0 6.228-0 0.018 0 0.046 0.014 0.054-0.021-0.016-0.009-0.032-0.019-0.049-0.027l-6.205-3.102c-0.023-0.012-0.048-0.017-0.073-0.025v-0.54c0.037 0.016 0.076 0.031 0.112 0.050 2.405 1.203 4.81 2.405 7.215 3.609 0.071 0.036 0.141 0.060 0.224 0.060 0.637-0.002 1.274-0.001 1.911-0.002 0.027 0 0.057 0.008 0.090-0.018-0.040-0.021-0.071-0.039-0.104-0.055-2.987-1.493-5.974-2.986-8.96-4.48-0.156-0.078-0.319-0.146-0.465-0.243h3.216c0.031 0.019 0.062 0.040 0.094 0.056l8.544 4.273c0.115 0.058 0.116 0.058 0.116-0.070l-0-4.158c0-0.034-0.004-0.067-0.005-0.1 0.323-0.001 0.645-0.001 0.967-0.001z"></path>
<path fill="#fff" style="fill: var(--color2, #fff)" d="M17.439 23.197c0-1.878 0.001-3.755-0.003-5.633-0-0.103 0.027-0.127 0.128-0.127 4.276 0.003 8.552 0.002 12.829 0.002v0.967c-0.026-0.002-0.052-0.005-0.078-0.005-2.053-0-4.107-0-6.161 0-0.028 0-0.058-0.011-0.091 0.017 0.031 0.017 0.059 0.034 0.087 0.048 2.053 1.027 4.107 2.053 6.16 3.080 0.026 0.013 0.055 0.021 0.082 0.032v0.54c-0.034-0.015-0.068-0.029-0.102-0.046-2.408-1.204-4.816-2.408-7.223-3.613-0.071-0.036-0.142-0.060-0.224-0.060-0.637 0.002-1.274 0.001-1.911 0.002-0.027 0-0.057-0.009-0.090 0.018 0.039 0.021 0.071 0.038 0.103 0.055 3.107 1.554 6.214 3.107 9.321 4.661 0.036 0.018 0.078 0.027 0.104 0.062h-3.216c-0.022-0.034-0.061-0.041-0.093-0.057-2.85-1.426-5.7-2.851-8.55-4.276-0.032-0.016-0.062-0.042-0.107-0.039-0.001 0.030-0.004 0.059-0.004 0.089v4.193c0 0.030 0.004 0.060 0.005 0.089-0.323 0.001-0.645 0.001-0.968 0.001z"></path>
<path fill="#fff" style="fill: var(--color2, #fff)" d="M30.394 14.561c-4.276 0-8.552-0-12.829 0.002-0.101 0-0.128-0.023-0.128-0.127 0.004-1.878 0.003-3.755 0.003-5.633h0.967c-0.002 0.022-0.005 0.044-0.005 0.067v4.227c0 0.026 0.003 0.051 0.005 0.090 0.044-0.021 0.080-0.038 0.116-0.056 2.603-1.301 5.207-2.601 7.809-3.904 0.276-0.138 0.559-0.265 0.825-0.423h1.080c-0.039 0.022-0.077 0.045-0.117 0.065-3.101 1.551-6.203 3.102-9.304 4.653-0.036 0.018-0.083 0.026-0.109 0.073 0.023 0.002 0.038 0.004 0.053 0.004 0.656 0 1.312-0 1.968 0.001 0.067 0 0.123-0.023 0.181-0.052 3.124-1.563 6.249-3.125 9.374-4.688 0.032-0.016 0.072-0.022 0.092-0.058 0.046 0.020 0.021 0.061 0.021 0.090 0.002 0.51 0.001 1.020 0.001 1.529-0.028 0.011-0.056 0.019-0.082 0.032-2.053 1.026-4.107 2.053-6.16 3.080-0.028 0.014-0.056 0.031-0.084 0.046l0.003 0.019 6.211-0c0.037 0 0.075-0.004 0.112-0.005v0.969z"></path>
<path fill="#fff" style="fill: var(--color2, #fff)" d="M1.606 17.439c4.276 0 8.552 0 12.829-0.002 0.101 0 0.128 0.023 0.128 0.127-0.004 1.878-0.003 3.755-0.003 5.633h-0.967c0.002-0.034 0.005-0.067 0.005-0.1l0-4.158c0-0.128-0-0.128-0.116-0.070-2.611 1.306-5.221 2.611-7.832 3.917-0.27 0.135-0.545 0.26-0.807 0.412h-1.057c0.012-0.039 0.050-0.040 0.078-0.054 0.685-0.344 1.371-0.687 2.057-1.029 2.432-1.216 4.865-2.432 7.296-3.649 0.026-0.013 0.068-0.013 0.071-0.064h-0.114c-0.615 0-1.229 0.001-1.844-0.001-0.001 0-0.003-0-0.005-0-0.092 0-0.179 0.023-0.256 0.063l0.003-0.001c-3.114 1.559-6.229 3.116-9.344 4.674-0.036 0.017-0.079 0.025-0.103 0.062-0.046-0.020-0.021-0.061-0.021-0.090-0.002-0.51-0.001-1.020-0.001-1.529 0.028-0.010 0.056-0.018 0.083-0.031l6.174-3.088c0.024-0.012 0.056-0.017 0.076-0.058l-6.232 0c-0.034 0-0.067 0.004-0.1 0.005l-0-0.967z"></path>
<path fill="#243775" style="fill: var(--color3, #243775)" d="M18.406 23.197c-0.002-0.030-0.005-0.060-0.005-0.089v-4.193c0-0.029 0.003-0.059 0.004-0.089 0.044-0.004 0.074 0.022 0.107 0.039 2.851 1.425 5.701 2.85 8.55 4.276 0.032 0.016 0.071 0.023 0.093 0.057h-8.748z"></path>
<path fill="#243775" style="fill: var(--color3, #243775)" d="M27.155 8.803c-0.266 0.158-0.549 0.284-0.825 0.423-2.602 1.303-5.206 2.603-7.809 3.904-0.036 0.018-0.072 0.035-0.116 0.056-0.002-0.039-0.005-0.064-0.005-0.090v-4.227c0-0.022 0.004-0.044 0.005-0.067l8.749-0z"></path>
<path fill="#243775" style="fill: var(--color3, #243775)" d="M4.845 23.197c0.261-0.152 0.537-0.277 0.807-0.412 2.61-1.306 5.221-2.612 7.832-3.917 0.115-0.058 0.116-0.058 0.116 0.070l-0 4.158c0 0.034-0.004 0.067-0.005 0.1h-8.749z"></path>
<path fill="#243775" style="fill: var(--color3, #243775)" d="M13.594 8.803c0.002 0.034 0.005 0.067 0.005 0.1l0 4.158c0 0.128-0 0.128-0.116 0.070l-8.544-4.273c-0.033-0.016-0.063-0.037-0.094-0.056h8.748z"></path>
<path fill="#c13d39" style="fill: var(--color1, #c13d39)" d="M1.629 23.197c0.024-0.037 0.067-0.045 0.103-0.063 3.115-1.558 6.23-3.116 9.344-4.674 0.083-0.041 0.164-0.062 0.257-0.061 0.615 0.003 1.229 0.001 1.844 0.001h0.114c-0.004 0.051-0.046 0.051-0.071 0.064-2.432 1.217-4.864 2.433-7.296 3.649-0.686 0.343-1.372 0.686-2.057 1.029-0.028 0.014-0.067 0.015-0.078 0.054l-2.159 0z"></path>
<path fill="#c13d39" style="fill: var(--color1, #c13d39)" d="M30.371 8.803c-0.020 0.036-0.060 0.042-0.092 0.058-3.124 1.563-6.249 3.125-9.374 4.688-0.057 0.029-0.114 0.052-0.181 0.052-0.656-0.001-1.312-0.001-1.968-0.001-0.015 0-0.030-0.003-0.053-0.004 0.026-0.047 0.073-0.055 0.109-0.073 3.101-1.552 6.203-3.102 9.304-4.653 0.040-0.020 0.078-0.044 0.117-0.065l2.137-0z"></path>
<path fill="#243775" style="fill: var(--color3, #243775)" d="M30.394 13.594c-0.037 0.002-0.075 0.005-0.112 0.005l-6.211 0-0.003-0.019c0.028-0.015 0.055-0.032 0.084-0.046 2.053-1.027 4.107-2.053 6.16-3.080 0.026-0.013 0.055-0.021 0.082-0.032v3.171z"></path>
<path fill="#243775" style="fill: var(--color3, #243775)" d="M1.606 10.422c0.024 0.008 0.050 0.014 0.073 0.025l6.205 3.102c0.016 0.008 0.032 0.018 0.049 0.027-0.008 0.035-0.036 0.021-0.054 0.021-2.076 0.001-4.152 0.001-6.228 0-0.015 0-0.030-0.004-0.044-0.005v-3.171z"></path>
<path fill="#243775" style="fill: var(--color3, #243775)" d="M1.606 18.406c0.034-0.002 0.067-0.005 0.1-0.005l6.232-0c-0.020 0.041-0.051 0.046-0.076 0.058 87.987-40.57 85.965-39.541 83.944-38.513l-90.119 41.601c-0.026 0.013-0.055 0.020-0.083 0.031v-3.171z"></path>
<path fill="#243775" style="fill: var(--color3, #243775)" d="M30.394 21.578c-0.028-0.011-0.056-0.019-0.082-0.032-2.053-1.026-4.107-2.053-6.16-3.080-0.028-0.014-0.056-0.031-0.087-0.048 0.032-0.028 0.063-0.017 0.091-0.017 2.053-0.001 4.107-0.001 6.161-0 0.026 0 0.052 0.004 0.078 0.005v3.171z"></path>
<path fill="#c13d39" style="fill: var(--color1, #c13d39)" d="M30.371 23.197c-0.026-0.036-0.068-0.044-0.104-0.062-3.107-1.554-6.214-3.108-9.321-4.661-0.032-0.016-0.064-0.034-0.103-0.055 0.033-0.027 0.063-0.018 0.090-0.018 0.637-0.001 1.274 0.001 1.911-0.002 0.082-0 0.153 0.024 0.224 0.060 2.408 1.205 4.815 2.409 7.223 3.613 0.033 0.017 0.068 0.030 0.102 0.046 0 0.337 0.001 0.675-0.001 1.012 0 0.021 0.028 0.058-0.021 0.067z"></path>
<path fill="#c13d39" style="fill: var(--color1, #c13d39)" d="M1.629 8.803c0.147 0.097 0.309 0.164 0.465 0.243 2.986 1.494 5.973 2.987 8.96 4.48 0.032 0.016 0.064 0.034 0.104 0.055-0.033 0.026-0.063 0.018-0.090 0.018-0.637 0.001-1.274-0.001-1.911 0.002-0.083 0-0.153-0.025-0.224-0.060-2.405-1.204-4.81-2.406-7.215-3.609-0.036-0.018-0.075-0.033-0.112-0.050 0-0.338-0.001-0.675 0.001-1.013 0-0.020-0.027-0.058 0.021-0.066z"></path>
</symbol>


</defs>
</svg>
