<svg aria-hidden="true" style="position: absolute; width: 0; height: 0; overflow: hidden;" version="1.1" xmlns="http://www.w3.org/2000/svg" xmlns:xlink="http://www.w3.org/1999/xlink">
<defs>
<symbol id="icon-mail" viewBox="0 0 32 32">
<path fill="none" stroke="#9da4bd" style="stroke: var(--color1, #9da4bd)" stroke-linejoin="round" stroke-linecap="round" stroke-miterlimit="4" stroke-width="1.3333" d="M6.4 6.667h19.2c1.32 0 2.4 1.049 2.4 2.333v14c0 1.283-1.080 2.333-2.4 2.333h-19.2c-1.32 0-2.4-1.051-2.4-2.333v-14c0-1.284 1.080-2.333 2.4-2.333z"></path>
<path fill="none" stroke="#9da4bd" style="stroke: var(--color1, #9da4bd)" stroke-linejoin="round" stroke-linecap="round" stroke-miterlimit="4" stroke-width="1.3333" d="M26.667 9.333l-10.667 8-10.667-8"></path>
</symbol>
<symbol id="icon-map-pin" viewBox="0 0 32 32">
<path fill="none" stroke="#9da4bd" style="stroke: var(--color1, #9da4bd)" stroke-linejoin="round" stroke-linecap="round" stroke-miterlimit="4" stroke-width="1.3333" d="M26.667 13.819c0 7.635-10.667 14.181-10.667 14.181s-10.667-6.547-10.667-14.181c0-5.423 4.776-9.819 10.667-9.819s10.667 4.396 10.667 9.819v0z"></path>
<path fill="none" stroke="#9da4bd" style="stroke: var(--color1, #9da4bd)" stroke-linejoin="round" stroke-linecap="round" stroke-miterlimit="4" stroke-width="1.3333" d="M16 18.667c2.209 0 4-1.791 4-4s-1.791-4-4-4v0c-2.209 0-4 1.791-4 4s1.791 4 4 4v0z"></path>
</symbol>
<symbol id="icon-twitter" viewBox="0 0 32 32">
<path d="M32 6.078c-1.1 0.493-2.376 0.857-3.713 1.028l-0.068 0.007c1.36-0.817 2.382-2.078 2.873-3.579l0.013-0.046c-1.197 0.722-2.591 1.273-4.076 1.573l-0.084 0.014c-1.2-1.279-2.9-2.076-4.787-2.076-3.622 0-6.558 2.936-6.558 6.558 0 0.001 0 0.003 0 0.004v-0c0 0.52 0.043 1.021 0.152 1.496-5.454-0.266-10.28-2.88-13.522-6.861-0.564 0.949-0.899 2.092-0.902 3.313v0.001c0 2.272 1.171 4.286 2.914 5.451-1.091-0.030-2.107-0.325-2.994-0.823l0.033 0.017v0.072c0.003 3.165 2.236 5.807 5.213 6.44l0.043 0.008c-0.499 0.136-1.071 0.215-1.662 0.215-0.020 0-0.041-0-0.061-0l0.003 0c-0.419 0-0.843-0.024-1.242-0.112 0.85 2.598 3.261 4.509 6.13 4.57-2.215 1.746-5.045 2.8-8.122 2.8-0.004 0-0.008 0-0.013 0h0.001c-0.018 0-0.040 0-0.062 0-0.531 0-1.055-0.034-1.569-0.099l0.061 0.006c2.826 1.846 6.287 2.944 10.004 2.944 0.021 0 0.042-0 0.063-0h-0.003c12.072 0 18.672-10 18.672-18.669 0-0.288-0.010-0.57-0.024-0.848 1.299-0.936 2.39-2.064 3.258-3.355l0.030-0.047z"></path>
</symbol>
<symbol id="icon-facebook" viewBox="0 0 32 32">
<path d="M21.328 5.312h2.923v-5.088c-1.232-0.143-2.66-0.224-4.108-0.224-0.052 0-0.104 0-0.156 0l0.008-0c-4.213 0-7.099 2.65-7.099 7.52v4.48h-4.646v5.688h4.646v14.312h5.699v-14.31h4.459l0.707-5.688h-5.168v-3.922c0-1.643 0.443-2.768 2.734-2.768z"></path>
</symbol>
<symbol id="icon-instagram" viewBox="0 0 32 32">
<path d="M31.968 9.408c-0.074-1.701-0.349-2.869-0.744-3.882-0.423-1.111-1.052-2.058-1.847-2.837l-0.001-0.001c-0.78-0.792-1.724-1.419-2.778-1.827l-0.054-0.018c-1.021-0.394-2.182-0.667-3.883-0.742-1.712-0.082-2.256-0.101-6.602-0.101-4.344 0-4.888 0.019-6.595 0.094-1.701 0.074-2.869 0.349-3.88 0.742-1.112 0.424-2.060 1.054-2.839 1.85l-0.001 0.001c-0.791 0.78-1.418 1.724-1.825 2.778l-0.018 0.054c-0.395 1.019-0.669 2.181-0.744 3.882-0.082 1.712-0.101 2.256-0.101 6.602 0 4.344 0.019 4.888 0.094 6.595 0.075 1.701 0.35 2.869 0.744 3.882 0.426 1.11 1.055 2.057 1.849 2.837l0.001 0.001c0.8 0.813 1.77 1.443 2.832 1.843 1.019 0.395 2.182 0.67 3.882 0.744 1.707 0.075 2.251 0.094 6.595 0.094 4.346 0 4.89-0.019 6.595-0.094 1.701-0.074 2.869-0.349 3.882-0.742 2.157-0.85 3.833-2.526 4.664-4.628l0.019-0.055c0.394-1.019 0.669-2.182 0.744-3.882 0.075-1.707 0.093-2.251 0.093-6.595s-0.006-4.888-0.080-6.595zM29.088 22.474c-0.070 1.563-0.333 2.406-0.552 2.97-0.551 1.399-1.638 2.486-3.001 3.024l-0.036 0.013c-0.563 0.219-1.413 0.482-2.97 0.55-1.688 0.075-2.194 0.094-6.464 0.094-4.269 0-4.782-0.019-6.464-0.094-1.563-0.069-2.406-0.331-2.97-0.55-0.721-0.269-1.334-0.676-1.836-1.192l-0.001-0.001c-0.517-0.503-0.924-1.117-1.184-1.803l-0.011-0.034c-0.218-0.563-0.48-1.413-0.549-2.97-0.075-1.688-0.094-2.195-0.094-6.464 0-4.27 0.019-4.784 0.094-6.464 0.069-1.563 0.331-2.406 0.549-2.97 0.269-0.722 0.678-1.337 1.198-1.837l0.002-0.002c0.504-0.517 1.119-0.923 1.806-1.182l0.034-0.011c0.56-0.219 1.411-0.48 2.968-0.55 1.688-0.074 2.194-0.093 6.464-0.093 4.275 0 4.782 0.019 6.464 0.093 1.562 0.069 2.406 0.331 2.97 0.55 0.693 0.256 1.325 0.662 1.837 1.194 0.531 0.52 0.938 1.144 1.195 1.84 0.218 0.56 0.48 1.411 0.549 2.968 0.075 1.688 0.094 2.194 0.094 6.464 0 4.269-0.019 4.768-0.094 6.458z"></path>
<path d="M16.059 7.782c-4.539 0.002-8.218 3.682-8.219 8.221v0c0 0 0 0.001 0 0.002 0 4.541 3.681 8.222 8.222 8.222s8.222-3.681 8.222-8.222c0-4.541-3.681-8.222-8.222-8.222-0.001 0-0.001 0-0.002 0h0zM16.059 21.334c-2.945-0-5.332-2.388-5.332-5.333s2.388-5.333 5.333-5.333c0 0 0.001 0 0.001 0h-0c2.946 0 5.334 2.388 5.334 5.334s-2.388 5.334-5.334 5.334v0zM26.525 7.458c0 1.060-0.86 1.92-1.92 1.92s-1.92-0.86-1.92-1.92v0c0-1.060 0.86-1.92 1.92-1.92s1.92 0.86 1.92 1.92v0z"></path>
</symbol>
<symbol id="icon-linkedin" viewBox="0 0 32 32">
<path d="M31.992 32h0.008v-11.738c0-5.741-1.237-10.163-7.947-10.163-3.227 0-5.392 1.77-6.277 3.45h-0.093v-2.914h-6.365v21.363h6.627v-10.578c0-2.786 0.528-5.48 3.978-5.48 3.398 0 3.448 3.179 3.448 5.658v10.402h6.621zM0.528 10.635h6.635v21.365h-6.635v-21.365zM3.843 0c-2.123 0-3.843 1.721-3.843 3.843v0c0 2.12 1.722 3.878 3.843 3.878 2.12 0 3.842-1.757 3.842-3.878s-1.72-3.841-3.841-3.843h-0z"></path>
</symbol>
<symbol id="icon-phone" viewBox="0 0 32 32">
<path fill="none" stroke="#9da4bd" style="stroke: var(--color1, #9da4bd)" stroke-linejoin="round" stroke-linecap="round" stroke-miterlimit="4" stroke-width="1.3333" d="M26.667 21.337v3.217c0 0.003 0 0.007 0 0.010 0 1.185-0.96 2.145-2.145 2.145-0.068 0-0.135-0.003-0.202-0.009l0.009 0.001c-3.481-0.388-6.626-1.563-9.338-3.343l0.081 0.050c-2.608-1.674-4.762-3.828-6.386-6.353l-0.050-0.083c-1.736-2.644-2.912-5.804-3.285-9.205l-0.008-0.095c-0.006-0.058-0.009-0.125-0.009-0.193 0-1.185 0.96-2.145 2.145-2.145h3.219c0.006-0 0.013-0 0.020-0 1.079 0 1.972 0.797 2.123 1.834l0.001 0.012c0.136 1.029 0.387 2.040 0.751 3.013 0.295 0.784 0.107 1.668-0.483 2.264l-1.363 1.361c1.555 2.7 3.736 4.881 6.353 6.392l0.083 0.044 1.363-1.361c0.388-0.383 0.92-0.619 1.509-0.619 0.271 0 0.53 0.050 0.769 0.142l-0.015-0.005c0.973 0.363 1.984 0.613 3.013 0.751 1.050 0.151 1.847 1.045 1.847 2.125 0 0.019-0 0.037-0.001 0.056l0-0.003z"></path>
</symbol>

    <symbol id="mail" viewBox="0 0 32 32">
      <path fill="none" stroke-linejoin="round" stroke-linecap="round" stroke-miterlimit="4" stroke-width="1.3333" d="M6.4 6.667h19.2c1.32 0 2.4 1.049 2.4 2.333v14c0 1.283-1.080 2.333-2.4 2.333h-19.2c-1.32 0-2.4-1.051-2.4-2.333v-14c0-1.284 1.080-2.333 2.4-2.333z"></path>
      <path fill="none" stroke-linejoin="round" stroke-linecap="round" stroke-miterlimit="4" stroke-width="1.3333" d="M26.667 9.333l-10.667 8-10.667-8"></path>
    </symbol>
    <symbol id="map-pin" viewBox="0 0 32 32">
      <path fill="none" stroke-linejoin="round" stroke-linecap="round" stroke-miterlimit="4" stroke-width="1.3333" d="M26.667 13.819c0 7.635-10.667 14.181-10.667 14.181s-10.667-6.547-10.667-14.181c0-5.423 4.776-9.819 10.667-9.819s10.667 4.396 10.667 9.819v0z"></path>
      <path fill="none" stroke-linejoin="round" stroke-linecap="round" stroke-miterlimit="4" stroke-width="1.3333" d="M16 18.667c2.209 0 4-1.791 4-4s-1.791-4-4-4v0c-2.209 0-4 1.791-4 4s1.791 4 4 4v0z"></path>
    </symbol>
    <symbol id="phone" viewBox="0 0 32 32">
      <path fill="none" stroke-linejoin="round" stroke-linecap="round" stroke-miterlimit="4" stroke-width="1.3333" d="M26.667 21.337v3.217c0 0.003 0 0.007 0 0.010 0 1.185-0.96 2.145-2.145 2.145-0.068 0-0.135-0.003-0.202-0.009l0.009 0.001c-3.481-0.388-6.626-1.563-9.338-3.343l0.081 0.050c-2.608-1.674-4.762-3.828-6.386-6.353l-0.050-0.083c-1.736-2.644-2.912-5.804-3.285-9.205l-0.008-0.095c-0.006-0.058-0.009-0.125-0.009-0.193 0-1.185 0.96-2.145 2.145-2.145h3.219c0.006-0 0.013-0 0.020-0 1.079 0 1.972 0.797 2.123 1.834l0.001 0.012c0.136 1.029 0.387 2.040 0.751 3.013 0.295 0.784 0.107 1.668-0.483 2.264l-1.363 1.361c1.555 2.7 3.736 4.881 6.353 6.392l0.083 0.044 1.363-1.361c0.388-0.383 0.92-0.619 1.509-0.619 0.271 0 0.53 0.050 0.769 0.142l-0.015-0.005c0.973 0.363 1.984 0.613 3.013 0.751 1.050 0.151 1.847 1.045 1.847 2.125 0 0.019-0 0.037-0.001 0.056l0-0.003z"></path>
    </symbol>


    <symbol id="close" viewBox="0 0 32 32">
<path  d="M26.667 7.306l-1.972-1.972-7.806 7.806-7.806-7.806-1.972 1.972 7.806 7.806-7.806 7.806 1.972 1.972 7.806-7.806 7.806 7.806 1.972-1.972-7.806-7.806z"></path>
</symbol>
  <symbol id="icon-close" viewBox="0 0 32 32">
      <path d="M32 3.223l-3.223-3.223-12.777 12.777-12.777-12.777-3.223 3.223 12.777 12.777-12.777 12.777 3.223 3.223 12.777-12.777 12.777 12.777 3.223-3.223-12.777-12.777 12.777-12.777z"></path>
    </symbol>

  <symbol id="close-mobile-menu" viewBox="0 0 32 32">
      <path d="M23.733 10.304l-1.504-1.504-5.963 5.963-5.963-5.963-1.504 1.504 5.963 5.963-5.963 5.963 1.504 1.504 5.963-5.963 5.963 5.963 1.504-1.504-5.963-5.963 5.963-5.963z"></path>
    </symbol>

<symbol id="icon-person" viewBox="0 0 32 32">
<path d="M16 16c2.946 0 5.333-2.388 5.333-5.333s-2.388-5.333-5.333-5.333v0c-2.946 0-5.333 2.388-5.333 5.333s2.388 5.333 5.333 5.333v0zM16 18.667c-3.561 0-10.667 1.787-10.667 5.333v1.333c0 0.732 0.599 1.333 1.333 1.333h18.667c0.732 0 1.333-0.601 1.333-1.333v-1.333c0-3.547-7.108-5.333-10.667-5.333z"></path>
</symbol>
<symbol id="icon-phone-black" viewBox="0 0 32 32">
<path d="M24.882 19.774l-3.268-0.373c-0.090-0.011-0.194-0.018-0.3-0.018-0.707 0-1.347 0.287-1.81 0.75l-2.368 2.368c-3.669-1.894-6.585-4.81-8.427-8.372l-0.051-0.108 2.382-2.377c0.463-0.463 0.75-1.103 0.75-1.81 0-0.106-0.006-0.21-0.019-0.312l0.001 0.012-0.373-3.243c-0.155-1.287-1.24-2.276-2.557-2.276-0.001 0-0.002 0-0.003 0h-2.226c-1.454 0-2.663 1.209-2.574 2.661 0.683 10.987 9.47 19.762 20.444 20.444 1.452 0.089 2.663-1.12 2.663-2.574v-2.226c0-0.004 0-0.008 0-0.012 0-1.308-0.985-2.386-2.253-2.532l-0.012-0.001z"></path>
</symbol>
<symbol id="icon-email-black" viewBox="0 0 32 32">
<path d="M26.667 5.333h-21.333c-1.467 0-2.652 1.2-2.652 2.667l-0.014 16c0 1.467 1.2 2.667 2.667 2.667h21.333c1.467 0 2.667-1.2 2.667-2.667v-16c0-1.467-1.2-2.667-2.667-2.667zM26.133 11.001l-9.426 5.892c-0.201 0.126-0.446 0.2-0.708 0.2s-0.506-0.075-0.713-0.204l0.006 0.003-9.426-5.892c-0.336-0.201-0.557-0.562-0.557-0.975 0-0.625 0.507-1.132 1.132-1.132 0.233 0 0.449 0.070 0.629 0.19l-0.004-0.003 8.933 5.586 8.933-5.588c0.176-0.118 0.392-0.188 0.624-0.188 0.625 0 1.132 0.507 1.132 1.132 0 0.413-0.221 0.775-0.552 0.972l-0.005 0.003z"></path>
</symbol>
<symbol id="icon-checked" viewBox="0 0 42 32">
<path   d="M6.262 15.206l-0.221-0.211-0.221 0.208-3.085 2.925 0.243 0.234 11.408 10.88 0.221-0.211 24.256-23.139-0.243-0.23-3.043-2.902-0.221 0.211-20.97 19.987-8.125-7.75z"></path>
</symbol>

<symbol id="icon-Logo-mob" viewBox="0 0 39 32">
<path fill="#fff" style="fill: var(--color1, #fff)" d="M22.371 9.64l-0.749-0.571c-0.097-0.079-0.223-0.127-0.36-0.127-0.177 0-0.335 0.080-0.44 0.206l-0.001 0.001-10.36 11.897 0.16 0.177 2.566-2.366c-0.146-0.060-0.247-0.201-0.247-0.366 0-0.218 0.177-0.394 0.394-0.394 0.002 0 0.005 0 0.007 0h-0c0 0 0 0 0 0 0.174 0 0.321 0.114 0.371 0.272l0.001 0.003 3.383-3.137c0.050-0.040 0.113-0.065 0.183-0.065s0.133 0.024 0.183 0.065l-0.001-0 0.171 0.126c0.046 0.033 0.104 0.053 0.166 0.053 0.086 0 0.164-0.038 0.216-0.099l0-0 4.423-4.96c0.081-0.085 0.132-0.2 0.132-0.328 0-0.159-0.078-0.3-0.199-0.386l-0.001-0.001z"></path>
<path fill="#fff" style="fill: var(--color1, #fff)" d="M27.24 12.989c-2.14 1.539-4.64 2.746-7.335 3.477l-0.162 0.037c-2.401 0.638-5.193 1.072-8.063 1.208l-0.092 0.003c0.055 0.406 0.155 0.805 0.297 1.189 1.554 1.406 13.257-0.994 15.543-3.771 0.486-0.577-0.189-2.143-0.189-2.143zM13.343 18.857c-0.215 0-0.389-0.174-0.389-0.389s0.174-0.389 0.389-0.389c0.215 0 0.389 0.174 0.389 0.389v0c0 0.002 0 0.004 0 0.006 0 0.211-0.171 0.382-0.382 0.382-0.002 0-0.004-0-0.007-0h0zM2.286 12.166l0.091-0.394 1.486 0.337c0.123 0.226 0.198 0.475 0.223 0.731 0.029 0.271 0.011 0.546-0.051 0.811-0.079 0.386-0.252 0.722-0.493 0.997l0.002-0.002c-0.232 0.261-0.529 0.459-0.866 0.568l-0.014 0.004c-0.184 0.059-0.395 0.093-0.615 0.093-0.165 0-0.326-0.019-0.48-0.055l0.014 0.003c-0.373-0.082-0.697-0.259-0.955-0.504l0.001 0.001c-0.256-0.236-0.445-0.54-0.54-0.884l-0.003-0.013c-0.049-0.171-0.077-0.368-0.077-0.571s0.028-0.4 0.081-0.587l-0.004 0.015c0.062-0.28 0.171-0.547 0.326-0.789 0.147-0.22 0.339-0.399 0.563-0.527l0.008-0.004 0.206 0.314c-0.391 0.243-0.669 0.637-0.753 1.099l-0.002 0.010c-0.031 0.125-0.049 0.268-0.049 0.416 0 0.171 0.024 0.337 0.069 0.494l-0.003-0.013c0.077 0.278 0.229 0.529 0.44 0.726 0.217 0.21 0.488 0.354 0.783 0.417 0.286 0.080 0.589 0.080 0.874 0 0.283-0.095 0.524-0.255 0.713-0.462l0.001-0.001c0.2-0.23 0.337-0.507 0.4-0.806 0.036-0.132 0.056-0.284 0.056-0.441 0-0.234-0.046-0.458-0.129-0.662l0.004 0.012-1.309-0.331zM5.52 8.571l-1.331 1.777 0.571 1.023-0.263 0.354-2.114-3.857 0.246-0.337 4.303 0.926-0.269 0.354-1.143-0.24zM5.143 8.48l-2.286-0.514 1.143 2.051 1.143-1.537zM5.143 4.886l0.343-0.257 2.177 2.914 1.794-1.343 0.217 0.291-2.131 1.594-2.4-3.2zM8.743 2.503l0.383-0.171 1.509 3.303 2.040-0.926 0.149 0.331-2.423 1.103-1.657-3.64zM16.274 3.817l0.086 0.36-2.754 0.646-0.914-3.897 2.674-0.623 0.080 0.354-2.286 0.531 0.326 1.383 2.011-0.474 0.086 0.354-2.017 0.469 0.343 1.446 2.366-0.549zM20.2 3.96l-0.954-1.257c-0.107 0.006-0.213 0.006-0.32 0l-1.074 0.034 0.040 1.269h-0.423l-0.131-4 1.52-0.006c0.050-0.005 0.108-0.008 0.166-0.008 0.392 0 0.755 0.125 1.051 0.337l-0.005-0.004c0.287 0.232 0.469 0.585 0.469 0.979 0 0.005-0 0.011-0 0.016v-0.001c0.017 0.282-0.057 0.563-0.211 0.8-0.163 0.224-0.39 0.394-0.653 0.483l-0.009 0.003 1 1.337-0.463 0.017zM19.8 2.080c0.181-0.167 0.295-0.405 0.295-0.67 0-0.028-0.001-0.055-0.004-0.082l0 0.004c0-0.006 0-0.012 0-0.019 0-0.286-0.131-0.542-0.336-0.711l-0.002-0.001c-0.218-0.15-0.488-0.239-0.779-0.239-0.041 0-0.083 0.002-0.123 0.005l0.005-0-1.086 0.040 0.069 2 1.063-0.034c0.015 0.001 0.033 0.001 0.051 0.001 0.321 0 0.616-0.11 0.849-0.295l-0.003 0.002zM23.223 2.897l-0.206 1.366-0.417-0.063 0.211-1.343-1.183-2.857 0.446 0.069 1.011 2.434 1.714-2.017 0.4 0.086-1.977 2.326zM28.874 2.657l0.497 0.646-0.217 0.171-0.497-0.663-0.314 0.749-0.24-0.103 0.32-0.749-0.823 0.109v-0.274l0.811-0.091-0.503-0.646 0.223-0.171 0.44 0.651 0.309-0.754 0.246 0.103-0.291 0.766 0.823-0.114v0.28l-0.783 0.091zM30.783 7.263c-0.129-0.197-0.217-0.431-0.245-0.684l-0.001-0.007 0.337-0.149c0.025 0.226 0.099 0.445 0.217 0.64 0.127 0.219 0.294 0.413 0.491 0.571 0.197 0.189 0.452 0.318 0.736 0.359l0.007 0.001c0.017 0.002 0.037 0.003 0.057 0.003 0.193 0 0.365-0.087 0.479-0.224l0.001-0.001c0.083-0.091 0.133-0.212 0.133-0.345 0-0.015-0.001-0.030-0.002-0.045l0 0.002c-0.020-0.148-0.069-0.281-0.14-0.399l0.003 0.005c-0.121-0.197-0.236-0.363-0.359-0.523l0.010 0.014c-0.141-0.182-0.277-0.388-0.398-0.603l-0.013-0.026c-0.089-0.154-0.144-0.339-0.149-0.536l-0-0.001c0-0.211 0.079-0.416 0.223-0.571 0.123-0.148 0.283-0.261 0.467-0.324l0.007-0.002c0.095-0.029 0.204-0.045 0.317-0.045s0.222 0.016 0.325 0.047l-0.008-0.002c0.28 0.093 0.522 0.234 0.728 0.414l-0.002-0.002c0.176 0.146 0.331 0.315 0.463 0.503 0.121 0.174 0.212 0.367 0.269 0.571l-0.326 0.171c-0.062-0.205-0.148-0.383-0.256-0.544l0.005 0.007c-0.111-0.15-0.238-0.279-0.379-0.391l-0.004-0.003c-0.194-0.188-0.448-0.314-0.731-0.348l-0.006-0.001c-0.015-0.001-0.033-0.002-0.051-0.002-0.197 0-0.372 0.092-0.485 0.235l-0.001 0.001c-0.083 0.088-0.134 0.207-0.134 0.337 0 0.018 0.001 0.036 0.003 0.053l-0-0.002c0.013 0.144 0.060 0.283 0.137 0.406 0.080 0.131 0.194 0.303 0.349 0.509 0.153 0.194 0.29 0.401 0.411 0.617 0.091 0.154 0.148 0.338 0.154 0.535l0 0.002c0 0.211-0.079 0.416-0.223 0.571-0.123 0.15-0.286 0.263-0.473 0.324l-0.007 0.002c-0.095 0.030-0.204 0.047-0.317 0.047s-0.222-0.017-0.325-0.049l0.008 0.002c-0.282-0.093-0.526-0.233-0.734-0.414l0.003 0.002c-0.228-0.199-0.418-0.433-0.565-0.695l-0.007-0.013zM36.531 8.097l-0.806-1.143 0.297-0.211 1.857 2.651-0.297 0.211-0.806-1.143-2.983 2.086-0.24-0.349 2.977-2.103zM35.251 12.794c0.107-0.357 0.306-0.659 0.569-0.89l0.002-0.002c0.256-0.23 0.573-0.396 0.924-0.472l0.013-0.002c0.139-0.033 0.299-0.052 0.463-0.052 0.218 0 0.429 0.034 0.626 0.096l-0.015-0.004c0.348 0.117 0.642 0.314 0.873 0.57l0.002 0.002c0.238 0.272 0.409 0.609 0.483 0.981l0.002 0.014c0.045 0.165 0.071 0.355 0.071 0.551s-0.026 0.386-0.074 0.567l0.004-0.015c-0.111 0.356-0.309 0.657-0.569 0.89l-0.002 0.002c-0.373 0.335-0.87 0.54-1.414 0.54-0.224 0-0.439-0.035-0.641-0.099l0.015 0.004c-0.35-0.111-0.646-0.309-0.872-0.569l-0.002-0.002c-0.237-0.271-0.407-0.606-0.483-0.975l-0.002-0.014c-0.037-0.152-0.059-0.326-0.059-0.506 0-0.219 0.032-0.43 0.092-0.63l-0.004 0.016zM36 14.611c0.191 0.217 0.438 0.377 0.714 0.463 0.148 0.044 0.318 0.070 0.493 0.070 0.446 0 0.854-0.165 1.166-0.438l-0.002 0.002c0.211-0.194 0.367-0.44 0.451-0.714 0.042-0.147 0.066-0.315 0.066-0.489 0-0.456-0.166-0.872-0.44-1.194l0.002 0.003c-0.195-0.213-0.444-0.374-0.726-0.46l-0.012-0.003c-0.132-0.036-0.284-0.057-0.44-0.057s-0.308 0.021-0.452 0.060l0.012-0.003c-0.303 0.060-0.568 0.199-0.778 0.395l0.001-0.001c-0.208 0.191-0.364 0.434-0.448 0.709l-0.003 0.011c-0.037 0.133-0.058 0.285-0.058 0.443s0.021 0.31 0.061 0.455l-0.003-0.012c0.067 0.296 0.205 0.553 0.395 0.761l-0.001-0.001zM34.817 19.429l1.48-0.571c0-0.103 0.034-0.206 0.063-0.314l0.28-1.034-1.211-0.314 0.109-0.406 3.863 1.034-0.389 1.446c-0.092 0.435-0.33 0.803-0.659 1.060l-0.004 0.003c-0.197 0.138-0.441 0.22-0.704 0.22-0.136 0-0.268-0.022-0.39-0.063l0.009 0.003c-0.561-0.125-0.974-0.617-0.977-1.205v-0l-1.577 0.571 0.109-0.429zM36.731 19.589c0.179 0.32 0.515 0.532 0.901 0.532 0.197 0 0.381-0.055 0.538-0.152l-0.004 0.003c0.246-0.199 0.421-0.478 0.484-0.797l0.001-0.009 0.274-1.029-1.937-0.52-0.274 1.029c-0.047 0.134-0.075 0.288-0.075 0.448 0 0.178 0.034 0.348 0.095 0.504l-0.003-0.009zM32.766 23.109l-0.291-0.223 1.714-2.257 3.189 2.417-1.657 2.189-0.291-0.223 1.4-1.846-1.143-0.863-1.251 1.651-0.286-0.217 1.28-1.651-1.183-0.897-1.48 1.92zM31.429 27.663l-0.817 0.046v-0.274l0.817-0.006-0.44-0.68 0.223-0.143 0.434 0.686 0.354-0.766 0.246 0.131-0.389 0.72 0.817-0.046v0.28h-0.829l0.44 0.68-0.223 0.143-0.434-0.686-0.377 0.743-0.24-0.137 0.417-0.691zM24 27.206l0.691 0.383c0.235-0.446 0.642-0.774 1.131-0.9l0.012-0.003c0.161-0.052 0.346-0.082 0.538-0.082 0.058 0 0.116 0.003 0.173 0.008l-0.007-0.001c0.216 0.017 0.411 0.092 0.575 0.208l-0.003-0.002c0.152 0.114 0.265 0.274 0.32 0.457 0.069 0.226 0.057 0.469-0.034 0.686-0.151 0.307-0.342 0.57-0.571 0.794l-0 0c0.189 0.101 0.363 0.226 0.52 0.371 0.108 0.111 0.188 0.246 0.234 0.394 0.015 0.056 0.023 0.12 0.023 0.187 0 0.183-0.065 0.352-0.173 0.483l0.001-0.001c-0.151 0.216-0.374 0.373-0.632 0.438l-0.008 0.002c-0.229 0.087-0.48 0.087-0.709 0-0.204-0.089-0.356-0.266-0.41-0.481l-0.001-0.005c-0.023-0.070-0.036-0.151-0.036-0.235 0-0.122 0.028-0.238 0.078-0.341l-0.002 0.005c0.138-0.27 0.308-0.502 0.509-0.703v0l-1.377-0.766c-0.053 0.269-0.064 0.545-0.034 0.817h-0.349c-0.004-0.057-0.007-0.124-0.007-0.191 0-0.287 0.044-0.563 0.126-0.823l-0.005 0.019-0.72-0.4 0.149-0.32zM24.994 27.777l1.514 0.84c0.194-0.186 0.357-0.403 0.479-0.644l0.006-0.014c0.063-0.166 0.063-0.349 0-0.514-0.054-0.202-0.203-0.361-0.396-0.427l-0.004-0.001c-0.109-0.038-0.235-0.060-0.366-0.060s-0.257 0.022-0.374 0.063l0.008-0.002c-0.398 0.107-0.717 0.378-0.888 0.735l-0.004 0.008 0.023 0.017zM27.143 30.063c0.045-0.075 0.072-0.165 0.072-0.262 0-0.058-0.009-0.113-0.027-0.165l0.001 0.004c-0.037-0.117-0.1-0.217-0.183-0.297l-0-0c-0.138-0.117-0.294-0.222-0.46-0.308l-0.014-0.006c-0.169 0.168-0.319 0.355-0.444 0.559l-0.007 0.013c-0.042 0.078-0.067 0.17-0.067 0.268 0 0.055 0.008 0.108 0.022 0.158l-0.001-0.004c0.038 0.134 0.129 0.242 0.249 0.302l0.003 0.001c0.146 0.055 0.306 0.055 0.451 0 0.159-0.043 0.292-0.139 0.381-0.266l0.001-0.002 0.023 0.006zM17.034 31.611l0.080-4h0.406l-0.063 3.2 1.623-2.663h0.2l1.52 2.709 0.057-3.183h0.406l-0.074 4h-0.349l-1.68-2.989-1.777 2.931-0.349-0.006zM15.046 27.429c0.373 0.356 0.604 0.856 0.604 1.411 0 0.202-0.031 0.397-0.088 0.58l0.004-0.014c-0.1 0.367-0.289 0.682-0.543 0.931l-0 0c-0.246 0.242-0.558 0.419-0.907 0.5l-0.013 0.003c-0.147 0.035-0.315 0.054-0.488 0.054-0.221 0-0.435-0.032-0.636-0.093l0.016 0.004c-0.375-0.093-0.699-0.275-0.961-0.521l0.001 0.001c-0.251-0.24-0.436-0.546-0.528-0.889l-0.003-0.013c-0.039-0.152-0.061-0.326-0.061-0.505 0-0.59 0.242-1.123 0.633-1.506l0-0c0.242-0.242 0.548-0.421 0.889-0.511l0.014-0.003c0.146-0.034 0.313-0.054 0.485-0.054 0.22 0 0.433 0.032 0.633 0.092l-0.016-0.004c0.378 0.098 0.704 0.285 0.966 0.538l-0.001-0.001zM13.097 27.229c-0.291 0.069-0.541 0.213-0.737 0.411l-0 0c-0.205 0.204-0.356 0.461-0.432 0.748l-0.003 0.012c-0.080 0.286-0.080 0.589 0 0.874 0.067 0.278 0.212 0.531 0.417 0.731 0.209 0.204 0.469 0.357 0.759 0.437l0.012 0.003c0.133 0.035 0.286 0.055 0.443 0.055s0.31-0.020 0.455-0.058l-0.012 0.003c0.28-0.069 0.536-0.211 0.743-0.411 0.203-0.204 0.355-0.461 0.432-0.748l0.003-0.012c0.038-0.132 0.060-0.283 0.060-0.44s-0.022-0.308-0.063-0.452l0.003 0.012c-0.078-0.288-0.225-0.535-0.423-0.731l-0-0c-0.21-0.204-0.472-0.356-0.765-0.432l-0.012-0.003c-0.132-0.038-0.283-0.060-0.44-0.060s-0.308 0.022-0.452 0.063l0.012-0.003zM8.771 24.571l0.154 1.571c0.098 0.042 0.194 0.090 0.286 0.143l0.931 0.537 0.629-1.109 0.371 0.211-2 3.446-1.303-0.749c-0.385-0.196-0.685-0.514-0.853-0.903l-0.005-0.012c-0.044-0.123-0.070-0.265-0.070-0.413 0-0.25 0.073-0.483 0.198-0.678l-0.003 0.005c0.133-0.25 0.343-0.451 0.6-0.571 0.15-0.064 0.324-0.101 0.507-0.101 0.112 0 0.221 0.014 0.325 0.040l-0.009-0.002-0.166-1.68 0.406 0.263zM8.12 26.377c-0.411 0.106-0.719 0.449-0.771 0.871l-0 0.005c-0.005 0.036-0.007 0.078-0.007 0.121 0 0.103 0.015 0.202 0.043 0.296l-0.002-0.007c0.134 0.296 0.366 0.536 0.657 0.68l0.92 0.531 1-1.714-0.92-0.531c-0.233-0.176-0.527-0.282-0.846-0.282-0.026 0-0.052 0.001-0.077 0.002l0.004-0v0.029zM5.389 21.891l0.257-0.257 1.971 2.029-2.857 2.789-1.903-1.966 0.263-0.257 1.617 1.663 0.977-0.989-1.417-1.474 0.274-0.263 1.446 1.486 1.063-1.034-1.691-1.726zM1.143 19.646l0.137-0.789 0.269 0.040-0.154 0.811 0.76-0.28 0.091 0.251-0.771 0.263 0.634 0.537-0.183 0.206-0.611-0.571-0.143 0.811-0.274-0.051 0.16-0.811-0.766 0.274-0.086-0.223 0.766-0.269-0.634-0.531 0.189-0.206 0.617 0.537z"></path>
</symbol>

<symbol id="icon-Logo-desc" viewBox="0 0 38 32">
<path d="M21.41 9.64l-0.709-0.571c-0.091-0.079-0.21-0.127-0.341-0.127-0.169 0-0.32 0.081-0.415 0.206l-0.001 0.001-9.806 11.897 0.151 0.177 2.429-2.366c-0.083-0.036-0.148-0.099-0.188-0.177l-0.001-0.002c-0.028-0.055-0.045-0.119-0.045-0.188 0-0.027 0.003-0.054 0.008-0.080l-0 0.003c0.017-0.090 0.065-0.171 0.133-0.229 0.063-0.054 0.145-0.087 0.235-0.087 0.002 0 0.004 0 0.006 0h-0c0.083 0 0.159 0.029 0.22 0.077l-0.001-0.001c0.063 0.050 0.11 0.118 0.132 0.196l0.001 0.003 3.202-3.137c0.046-0.040 0.107-0.064 0.173-0.064s0.127 0.024 0.174 0.064l-0-0 0.162 0.126c0.043 0.034 0.098 0.054 0.158 0.054 0.083 0 0.156-0.039 0.204-0.099l0-0.001 4.186-4.96c0.077-0.087 0.124-0.203 0.124-0.329 0-0.087-0.022-0.168-0.061-0.239l0.001 0.003c-0.033-0.059-0.076-0.109-0.128-0.148l-0.001-0.001z"></path>
<path d="M26.018 12.989c-2.017 1.535-4.382 2.739-6.945 3.477l-0.151 0.037c-2.273 0.638-4.913 1.071-7.631 1.208l-0.087 0.003c0.052 0.406 0.146 0.805 0.281 1.189 1.471 1.406 12.548-0.994 14.711-3.771 0.459-0.577-0.179-2.143-0.179-2.143zM12.864 18.857c-0.077-0-0.147-0.025-0.205-0.066l0.001 0.001c-0.060-0.044-0.107-0.103-0.135-0.172l-0.001-0.003c-0.017-0.044-0.027-0.094-0.027-0.147 0-0.107 0.041-0.204 0.108-0.276l-0 0c0.064-0.070 0.156-0.114 0.258-0.114 0.051 0 0.1 0.011 0.144 0.031l-0.002-0.001c0.069 0.031 0.125 0.080 0.164 0.141l0.001 0.002c0.041 0.063 0.062 0.138 0.062 0.215 0 0.001 0 0.003 0 0.004 0 0.105-0.040 0.201-0.107 0.273l0-0c-0.063 0.069-0.154 0.112-0.255 0.112-0.002 0-0.005-0-0.007-0h0zM2.399 12.166l0.087-0.394 1.406 0.337c0.111 0.212 0.186 0.461 0.211 0.724l0.001 0.008c0.027 0.271 0.010 0.546-0.049 0.811-0.073 0.383-0.237 0.719-0.468 0.998l0.003-0.004c-0.223 0.267-0.511 0.465-0.833 0.571-0.174 0.059-0.374 0.093-0.582 0.093-0.156 0-0.308-0.019-0.454-0.055l0.013 0.003c-0.356-0.084-0.662-0.261-0.903-0.503l-0-0c-0.244-0.239-0.423-0.543-0.511-0.884l-0.003-0.013c-0.046-0.171-0.073-0.368-0.073-0.571s0.027-0.4 0.076-0.587l-0.004 0.016c0.058-0.28 0.163-0.547 0.309-0.789 0.138-0.22 0.323-0.402 0.541-0.531l0.195 0.314c-0.189 0.125-0.346 0.283-0.466 0.467l-0.004 0.006c-0.118 0.182-0.204 0.396-0.243 0.625l-0.001 0.010c-0.030 0.125-0.047 0.269-0.047 0.416 0 0.171 0.023 0.337 0.066 0.494l-0.003-0.013c0.073 0.278 0.217 0.529 0.417 0.726 0.205 0.21 0.462 0.354 0.741 0.417 0.27 0.080 0.557 0.080 0.827 0 0.27-0.097 0.498-0.256 0.674-0.461l0.002-0.002c0.189-0.23 0.319-0.507 0.378-0.806 0.034-0.133 0.054-0.285 0.054-0.441 0-0.233-0.043-0.457-0.122-0.663l0.004 0.013-1.239-0.331zM5.46 8.571l-1.261 1.777 0.541 1.023-0.249 0.354-2.001-3.857 0.233-0.337 4.073 0.926-0.254 0.354-1.082-0.24zM5.103 8.48l-2.163-0.514 1.082 2.051 1.082-1.537zM5.103 4.886l0.325-0.257 2.061 2.914 1.698-1.343 0.206 0.291-2.017 1.594-2.272-3.2zM8.51 2.503l0.362-0.171 1.428 3.303 1.931-0.926 0.141 0.331-2.293 1.103-1.569-3.64zM15.639 3.817l0.081 0.36-2.607 0.646-0.866-3.897 2.531-0.623 0.075 0.354-2.163 0.531 0.309 1.383 1.904-0.474 0.081 0.354-1.91 0.469 0.325 1.446 2.239-0.549zM19.354 3.96l-0.903-1.257c-0.101 0.006-0.202 0.006-0.303 0l-1.017 0.034 0.038 1.269h-0.4l-0.125-4 1.439-0.006c0.047-0.005 0.101-0.007 0.156-0.007 0.374 0 0.719 0.125 0.995 0.336l-0.004-0.003c0.14 0.119 0.253 0.271 0.33 0.443s0.116 0.36 0.114 0.551c0.015 0.282-0.054 0.563-0.2 0.8-0.151 0.222-0.366 0.392-0.619 0.483l-0.009 0.003 0.946 1.337-0.438 0.017zM18.976 2.080c0.097-0.094 0.173-0.21 0.221-0.341s0.067-0.269 0.055-0.408c0-0.006 0-0.013 0-0.020 0-0.139-0.030-0.272-0.083-0.391l0.002 0.006c-0.057-0.129-0.138-0.238-0.238-0.326l-0.001-0.001c-0.205-0.149-0.461-0.239-0.739-0.239-0.039 0-0.077 0.002-0.115 0.005l0.005-0-1.027 0.040 0.065 2 1.006-0.034c0.014 0.001 0.029 0.001 0.046 0.001 0.307 0 0.588-0.11 0.806-0.294l-0.002 0.002zM22.215 2.897l-0.194 1.366-0.395-0.063 0.2-1.343-1.12-2.857 0.422 0.069 0.957 2.434 1.623-2.017 0.378 0.086-1.871 2.326zM27.565 2.657l0.471 0.646-0.206 0.171-0.47-0.663-0.298 0.749-0.227-0.103 0.303-0.749-0.779 0.109v-0.274l0.768-0.091-0.476-0.646 0.211-0.171 0.417 0.651 0.291-0.754 0.233 0.103-0.276 0.766 0.779-0.114v0.28l-0.741 0.091zM29.371 7.263c-0.123-0.198-0.206-0.433-0.232-0.684l-0.001-0.007 0.319-0.149c0.024 0.226 0.094 0.445 0.206 0.64 0.121 0.219 0.278 0.413 0.465 0.571 0.193 0.195 0.438 0.321 0.703 0.36 0.016 0.002 0.035 0.003 0.054 0.003 0.082 0 0.16-0.018 0.23-0.049l-0.004 0.001c0.089-0.039 0.167-0.1 0.229-0.178 0.078-0.093 0.126-0.215 0.126-0.347 0-0.015-0.001-0.029-0.002-0.043l0 0.002c-0.019-0.147-0.065-0.28-0.133-0.4l0.003 0.005c-0.116-0.2-0.225-0.366-0.342-0.526l0.012 0.017c-0.132-0.18-0.261-0.386-0.375-0.6l-0.014-0.028c-0.085-0.155-0.137-0.34-0.141-0.536l-0-0.001c0-0.211 0.075-0.416 0.211-0.571 0.118-0.151 0.273-0.263 0.449-0.326 0.090-0.028 0.193-0.045 0.3-0.045s0.21 0.016 0.307 0.047l-0.007-0.002c0.253 0.087 0.487 0.227 0.687 0.411 0.166 0.146 0.314 0.315 0.438 0.503 0.114 0.174 0.201 0.367 0.254 0.571l-0.309 0.171c-0.058-0.204-0.139-0.383-0.243-0.546l0.005 0.008c-0.105-0.15-0.224-0.279-0.359-0.392l-0.003-0.003c-0.18-0.186-0.421-0.313-0.691-0.348l-0.006-0.001c-0.015-0.001-0.032-0.002-0.049-0.002-0.085 0-0.165 0.019-0.237 0.053l0.003-0.001c-0.091 0.043-0.167 0.106-0.225 0.184l-0.001 0.002c-0.079 0.090-0.127 0.209-0.127 0.34 0 0.017 0.001 0.034 0.003 0.051l-0-0.002c0.013 0.144 0.057 0.283 0.13 0.406 0.076 0.131 0.184 0.303 0.33 0.509 0.145 0.194 0.275 0.401 0.39 0.617 0.090 0.163 0.14 0.349 0.146 0.537 0.001 0.211-0.074 0.416-0.211 0.571-0.115 0.149-0.269 0.262-0.448 0.324l-0.007 0.002c-0.195 0.063-0.405 0.063-0.6 0-0.268-0.094-0.499-0.234-0.694-0.413l0.001 0.001c-0.216-0.2-0.397-0.434-0.534-0.694l-0.007-0.014zM34.812 8.097l-0.762-1.143 0.281-0.211 1.758 2.651-0.281 0.211-0.763-1.143-2.823 2.086-0.227-0.349 2.818-2.103zM33.601 12.794c0.1-0.354 0.288-0.656 0.54-0.89l0.001-0.001c0.251-0.238 0.557-0.401 0.887-0.474 0.132-0.033 0.283-0.052 0.438-0.052 0.207 0 0.406 0.034 0.592 0.096l-0.013-0.004c0.331 0.119 0.61 0.316 0.825 0.569l0.002 0.003c0.226 0.275 0.388 0.612 0.457 0.981l0.002 0.014c0.043 0.166 0.067 0.356 0.067 0.551s-0.025 0.386-0.071 0.567l0.003-0.016c-0.102 0.353-0.29 0.654-0.54 0.891l-0.001 0.001c-0.258 0.244-0.571 0.413-0.91 0.491-0.129 0.031-0.276 0.049-0.428 0.049-0.212 0-0.415-0.035-0.606-0.098l0.013 0.004c-0.334-0.114-0.614-0.311-0.825-0.568l-0.003-0.003c-0.225-0.274-0.387-0.608-0.457-0.975l-0.002-0.014c-0.035-0.152-0.056-0.327-0.056-0.506 0-0.218 0.030-0.43 0.087-0.63l-0.004 0.016zM34.309 14.611c0.181 0.217 0.415 0.377 0.676 0.463 0.27 0.083 0.554 0.093 0.829 0.029s0.529-0.2 0.74-0.394c0.2-0.194 0.347-0.44 0.427-0.714 0.040-0.147 0.063-0.315 0.063-0.489 0-0.14-0.015-0.277-0.043-0.409l0.002 0.013c-0.064-0.305-0.195-0.573-0.376-0.798l0.003 0.004c-0.182-0.212-0.418-0.372-0.687-0.46l-0.011-0.003c-0.125-0.036-0.268-0.057-0.417-0.057s-0.292 0.021-0.427 0.060l0.011-0.003c-0.289 0.061-0.54 0.2-0.736 0.394l0-0c-0.202 0.194-0.349 0.443-0.427 0.72-0.035 0.133-0.055 0.286-0.055 0.443s0.020 0.31 0.058 0.455l-0.003-0.013c0.059 0.283 0.188 0.546 0.373 0.76zM33.19 19.429l1.401-0.571c0-0.103 0.033-0.206 0.059-0.314l0.265-1.034-1.146-0.314 0.103-0.406 3.656 1.034-0.368 1.446c-0.084 0.43-0.309 0.797-0.625 1.061l-0.003 0.002c-0.183 0.138-0.414 0.221-0.665 0.221-0.13 0-0.255-0.022-0.371-0.063l0.008 0.002c-0.272-0.065-0.501-0.219-0.661-0.429l-0.002-0.003c-0.163-0.212-0.261-0.482-0.262-0.774v-0l-1.493 0.571 0.103-0.429zM35.001 19.589c0.063 0.121 0.15 0.228 0.253 0.314s0.222 0.147 0.349 0.183c0.076 0.022 0.162 0.035 0.252 0.035 0.187 0 0.362-0.056 0.507-0.152l-0.004 0.002c0.239-0.203 0.402-0.488 0.46-0.806l0.259-1.029-1.833-0.52-0.26 1.029c-0.045 0.134-0.071 0.287-0.071 0.447 0 0.178 0.032 0.348 0.091 0.506l-0.003-0.010zM31.248 23.109l-0.276-0.223 1.623-2.257 3.018 2.417-1.569 2.189-0.275-0.223 1.325-1.846-1.082-0.863-1.185 1.651-0.271-0.217 1.211-1.651-1.119-0.897-1.401 1.92zM29.983 27.663l-0.774 0.046v-0.274l0.773-0.006-0.417-0.68 0.211-0.143 0.411 0.686 0.335-0.766 0.233 0.131-0.368 0.72 0.773-0.046v0.28h-0.784l0.417 0.68-0.211 0.143-0.411-0.686-0.357 0.743-0.227-0.137 0.395-0.691zM22.951 27.206l0.654 0.383c0.11-0.223 0.263-0.418 0.449-0.574 0.177-0.149 0.389-0.262 0.621-0.326l0.012-0.003c0.152-0.052 0.327-0.082 0.509-0.082 0.055 0 0.109 0.003 0.163 0.008l-0.007-0.001c0.194 0.015 0.382 0.087 0.541 0.206 0.144 0.114 0.25 0.274 0.303 0.457 0.065 0.226 0.054 0.469-0.033 0.686-0.142 0.306-0.323 0.569-0.542 0.795l0.001-0.001c0.178 0.101 0.344 0.226 0.493 0.371 0.102 0.111 0.178 0.246 0.222 0.394 0.027 0.115 0.029 0.236 0.005 0.352s-0.074 0.225-0.145 0.317c-0.145 0.22-0.36 0.376-0.606 0.44-0.099 0.041-0.215 0.065-0.335 0.065s-0.236-0.024-0.341-0.067l0.006 0.002c-0.099-0.046-0.183-0.112-0.248-0.193l-0.001-0.001c-0.066-0.082-0.115-0.179-0.14-0.286l-0.001-0.005c-0.022-0.070-0.034-0.151-0.034-0.235 0-0.122 0.027-0.238 0.075-0.342l-0.002 0.005c0.124-0.26 0.286-0.497 0.481-0.703l-1.303-0.766c-0.050 0.269-0.061 0.545-0.033 0.817h-0.33c-0.004-0.057-0.006-0.123-0.006-0.19 0-0.287 0.042-0.564 0.12-0.825l-0.005 0.020-0.682-0.4 0.141-0.32zM23.893 27.777l1.433 0.84c0.187-0.19 0.343-0.411 0.459-0.657 0.059-0.166 0.059-0.349 0-0.514-0.026-0.103-0.073-0.192-0.138-0.266l0.001 0.001c-0.066-0.074-0.149-0.131-0.241-0.163-0.103-0.038-0.222-0.060-0.346-0.060s-0.243 0.022-0.353 0.062l0.007-0.002c-0.183 0.051-0.354 0.144-0.5 0.273s-0.263 0.289-0.343 0.47l0.022 0.017zM25.926 30.063c0.043-0.075 0.068-0.165 0.068-0.262 0-0.058-0.009-0.113-0.026-0.165l0.001 0.004c-0.035-0.116-0.094-0.216-0.173-0.297l0 0c-0.137-0.123-0.288-0.229-0.449-0.314-0.164 0.171-0.307 0.363-0.427 0.571-0.040 0.078-0.064 0.171-0.064 0.269 0 0.055 0.007 0.108 0.021 0.158l-0.001-0.004c0.017 0.065 0.047 0.126 0.089 0.178 0.040 0.051 0.090 0.093 0.147 0.123l0.003 0.001c0.137 0.055 0.289 0.055 0.427 0 0.147-0.042 0.275-0.137 0.363-0.269l0.021 0.006zM16.358 31.611l0.075-4h0.384l-0.059 3.2 1.536-2.663h0.189l1.439 2.709 0.054-3.183h0.384l-0.070 4h-0.33l-1.59-2.989-1.682 2.931-0.33-0.006zM14.476 27.429c0.247 0.249 0.424 0.566 0.511 0.915s0.080 0.717-0.019 1.063c-0.092 0.365-0.271 0.679-0.514 0.932l0.001-0.001c-0.24 0.249-0.542 0.423-0.871 0.503-0.139 0.035-0.298 0.054-0.462 0.054-0.21 0-0.412-0.032-0.601-0.092l0.014 0.004c-0.357-0.095-0.664-0.276-0.909-0.52l0 0c-0.239-0.243-0.414-0.548-0.5-0.889l-0.003-0.013c-0.037-0.152-0.059-0.327-0.059-0.507 0-0.205 0.028-0.403 0.079-0.591l-0.004 0.016c0.099-0.364 0.281-0.677 0.524-0.93l-0.001 0.001c0.236-0.249 0.531-0.427 0.854-0.514 0.138-0.034 0.296-0.054 0.46-0.054 0.209 0 0.41 0.032 0.598 0.092l-0.014-0.004c0.361 0.1 0.67 0.287 0.914 0.537l0 0zM12.631 27.229c-0.277 0.071-0.514 0.215-0.696 0.411l-0.001 0.001c-0.195 0.206-0.339 0.463-0.409 0.748l-0.002 0.012c-0.075 0.286-0.075 0.589 0 0.874 0.066 0.287 0.204 0.535 0.395 0.732l-0-0c0.204 0.21 0.455 0.362 0.731 0.44 0.275 0.074 0.563 0.074 0.838 0 0.265-0.069 0.507-0.211 0.703-0.411 0.198-0.21 0.34-0.473 0.411-0.76 0.036-0.132 0.057-0.284 0.057-0.44s-0.021-0.308-0.059-0.452l0.003 0.012c-0.072-0.286-0.211-0.533-0.401-0.732l0.001 0.001c-0.196-0.203-0.445-0.354-0.725-0.432l-0.011-0.003c-0.273-0.080-0.56-0.080-0.833 0zM8.537 24.571l0.146 1.571c0.093 0.042 0.183 0.090 0.27 0.143l0.882 0.537 0.595-1.109 0.351 0.211-1.893 3.446-1.233-0.749c-0.369-0.202-0.653-0.519-0.807-0.902l-0.004-0.012c-0.042-0.123-0.066-0.265-0.066-0.412 0-0.249 0.069-0.481 0.188-0.68l-0.003 0.006c0.126-0.25 0.325-0.451 0.568-0.571 0.246-0.108 0.519-0.13 0.779-0.063l-0.157-1.68 0.384 0.263zM7.921 26.377c-0.135 0.037-0.252 0.098-0.353 0.179l0.002-0.001c-0.104 0.084-0.191 0.189-0.257 0.309-0.081 0.148-0.129 0.325-0.129 0.513 0 0.102 0.014 0.201 0.041 0.295l-0.002-0.008c0.127 0.296 0.347 0.536 0.623 0.68l0.871 0.531 0.946-1.714-0.871-0.531c-0.218-0.176-0.498-0.282-0.804-0.282-0.024 0-0.047 0.001-0.071 0.002l0.003-0v0.029zM5.335 21.891l0.243-0.257 1.866 2.029-2.704 2.789-1.801-1.966 0.249-0.257 1.531 1.663 0.925-0.989-1.341-1.474 0.259-0.263 1.369 1.486 1.006-1.034-1.601-1.726zM1.317 19.646l0.129-0.789 0.254 0.040-0.146 0.811 0.72-0.28 0.086 0.251-0.73 0.263 0.6 0.537-0.173 0.206-0.579-0.571-0.135 0.811-0.259-0.051 0.151-0.811-0.725 0.274-0.081-0.223 0.725-0.269-0.601-0.531 0.178-0.206 0.585 0.537z"></path>
</symbol>

<symbol id="icon-menu" viewBox="0 0 32 32">
<path d="M6.4 11.734v-2.134h19.2v2.134h-19.2zM6.4 17.066h19.2v-2.133h-19.2v2.133zM6.4 22.4h19.2v-2.134h-19.2v2.134z"></path>
</symbol>
</defs>
</svg>


<symbol id="icon-lock" viewBox="0 0 32 32">
<path d="M18.5 14h-0.5v-6c0-3.308-2.692-6-6-6h-4c-3.308 0-6 2.692-6 6v6h-0.5c-0.825 0-1.5 0.675-1.5 1.5v15c0 0.825 0.675 1.5 1.5 1.5h17c0.825 0 1.5-0.675 1.5-1.5v-15c0-0.825-0.675-1.5-1.5-1.5zM6 8c0-1.103 0.897-2 2-2h4c1.103 0 2 0.897 2 2v6h-8v-6z"></path>
</symbol>

<symbol id="icon-exit" viewBox="0 0 32 32">
<path d="M24 20v-4h-10v-4h10v-4l6 6zM22 18v8h-10v6l-12-6v-26h22v10h-2v-8h-16l8 4v18h8v-6z"></path>
</symbol>


<svg aria-hidden="true" style="position:absolute;width:0;height:0;overflow:hidden" xmlns="http://www.w3.org/2000/svg">
  <defs>
    <symbol id="facebook" viewBox="0 0 32 32">
      <path d="M21.329 5.313h2.921V.225C23.746.156 22.013 0 19.994 0c-4.212 0-7.097 2.649-7.097 7.519V12H8.249v5.688h4.648V32h5.699V17.689h4.46l.708-5.688h-5.169V8.082c.001-1.644.444-2.769 2.735-2.769z"/>
    </symbol>
    <symbol id="instagram" viewBox="0 0 32 32">
      <path d="M31.969 9.408c-.075-1.7-.35-2.869-.744-3.882a7.806 7.806 0 0 0-1.851-2.838A7.867 7.867 0 0 0 26.542.844C25.523.45 24.36.175 22.66.1 20.947.019 20.403 0 16.059 0s-4.888.019-6.595.094c-1.7.075-2.869.35-3.882.744a7.803 7.803 0 0 0-2.838 1.85A7.867 7.867 0 0 0 .9 5.52C.506 6.539.231 7.702.156 9.402c-.081 1.713-.1 2.257-.1 6.601s.019 4.888.094 6.595c.075 1.7.35 2.869.744 3.882a7.895 7.895 0 0 0 1.85 2.838 7.867 7.867 0 0 0 2.832 1.844c1.019.394 2.182.669 3.882.744 1.706.075 2.25.094 6.595.094s4.888-.019 6.595-.094c1.7-.075 2.869-.35 3.882-.744a8.184 8.184 0 0 0 4.682-4.682c.394-1.019.669-2.182.744-3.882.075-1.707.094-2.251.094-6.595s-.006-4.888-.081-6.595zm-2.882 13.065c-.069 1.563-.331 2.407-.55 2.969a5.31 5.31 0 0 1-3.038 3.038c-.563.219-1.413.481-2.969.55-1.688.075-2.194.094-6.464.094s-4.782-.019-6.464-.094c-1.563-.069-2.407-.331-2.969-.55a4.926 4.926 0 0 1-1.838-1.194 4.974 4.974 0 0 1-1.194-1.838c-.219-.563-.481-1.413-.55-2.969-.075-1.688-.094-2.194-.094-6.464s.019-4.782.094-6.464c.069-1.563.331-2.407.55-2.969a4.868 4.868 0 0 1 1.2-1.838A4.974 4.974 0 0 1 6.639 3.55c.563-.219 1.413-.481 2.969-.55 1.688-.075 2.194-.094 6.464-.094 4.276 0 4.782.019 6.464.094 1.563.069 2.407.331 2.969.55a4.914 4.914 0 0 1 1.838 1.194 4.974 4.974 0 0 1 1.194 1.838c.219.563.481 1.413.55 2.969.075 1.688.094 2.194.094 6.464s-.019 4.77-.094 6.458z"/>
      <path d="M16.059 7.783c-4.538 0-8.22 3.682-8.22 8.22s3.682 8.22 8.22 8.22c4.539 0 8.22-3.682 8.22-8.22s-3.682-8.22-8.22-8.22zm0 13.552a5.333 5.333 0 0 1 0-10.664 5.333 5.333 0 0 1 0 10.664zM26.524 7.458a1.919 1.919 0 1 1-3.838 0 1.919 1.919 0 0 1 3.838 0z"/>
    </symbol>
    <symbol id="linkedin" viewBox="0 0 32 32">
      <path d="M31.992 32v-.001H32V20.263c0-5.741-1.236-10.164-7.948-10.164-3.227 0-5.392 1.771-6.276 3.449h-.093v-2.913h-6.364v21.364h6.627V21.42c0-2.785.528-5.479 3.977-5.479 3.399 0 3.449 3.179 3.449 5.657v10.401h6.62zM.528 10.636h6.635V32H.528V10.636zM3.843 0C1.722 0 0 1.721 0 3.843s1.721 3.879 3.843 3.879c2.121 0 3.843-1.757 3.843-3.879A3.846 3.846 0 0 0 3.843 0z"/>
    </symbol>
    <symbol id="twitter" viewBox="0 0 32 32">
      <path d="M32 6.078c-1.19.522-2.458.868-3.78 1.036a6.523 6.523 0 0 0 2.886-3.626 13.11 13.11 0 0 1-4.16 1.588A6.574 6.574 0 0 0 22.154 3c-3.632 0-6.556 2.948-6.556 6.562 0 .52.044 1.02.152 1.496-5.454-.266-10.28-2.88-13.522-6.862a6.605 6.605 0 0 0-.898 3.316 6.57 6.57 0 0 0 2.914 5.452 6.479 6.479 0 0 1-2.964-.808v.072c0 3.188 2.274 5.836 5.256 6.446a6.548 6.548 0 0 1-1.72.216 5.8 5.8 0 0 1-1.242-.112c.85 2.598 3.262 4.508 6.13 4.57a13.182 13.182 0 0 1-8.134 2.798c-.538 0-1.054-.024-1.57-.09A18.469 18.469 0 0 0 10.064 29c12.072 0 18.672-10 18.672-18.668 0-.29-.01-.57-.024-.848A13.087 13.087 0 0 0 32 6.078z"/>
    </symbol>
    <symbol id="mail" viewBox="0 0 32 32">
      <path fill="none" stroke-linejoin="round" stroke-linecap="round" stroke-miterlimit="4" stroke-width="1.3333" d="M6.4 6.667h19.2c1.32 0 2.4 1.049 2.4 2.333v14c0 1.283-1.080 2.333-2.4 2.333h-19.2c-1.32 0-2.4-1.051-2.4-2.333v-14c0-1.284 1.080-2.333 2.4-2.333z"></path>
      <path fill="none" stroke-linejoin="round" stroke-linecap="round" stroke-miterlimit="4" stroke-width="1.3333" d="M26.667 9.333l-10.667 8-10.667-8"></path>
    </symbol>
    <symbol id="map-pin" viewBox="0 0 32 32">
      <path fill="none" stroke-linejoin="round" stroke-linecap="round" stroke-miterlimit="4" stroke-width="1.3333" d="M26.667 13.819c0 7.635-10.667 14.181-10.667 14.181s-10.667-6.547-10.667-14.181c0-5.423 4.776-9.819 10.667-9.819s10.667 4.396 10.667 9.819v0z"></path>
      <path fill="none" stroke-linejoin="round" stroke-linecap="round" stroke-miterlimit="4" stroke-width="1.3333" d="M16 18.667c2.209 0 4-1.791 4-4s-1.791-4-4-4v0c-2.209 0-4 1.791-4 4s1.791 4 4 4v0z"></path>
    </symbol>
    <symbol id="phone" viewBox="0 0 32 32">
      <path fill="none" stroke-linejoin="round" stroke-linecap="round" stroke-miterlimit="4" stroke-width="1.3333" d="M26.667 21.337v3.217c0 0.003 0 0.007 0 0.010 0 1.185-0.96 2.145-2.145 2.145-0.068 0-0.135-0.003-0.202-0.009l0.009 0.001c-3.481-0.388-6.626-1.563-9.338-3.343l0.081 0.050c-2.608-1.674-4.762-3.828-6.386-6.353l-0.050-0.083c-1.736-2.644-2.912-5.804-3.285-9.205l-0.008-0.095c-0.006-0.058-0.009-0.125-0.009-0.193 0-1.185 0.96-2.145 2.145-2.145h3.219c0.006-0 0.013-0 0.020-0 1.079 0 1.972 0.797 2.123 1.834l0.001 0.012c0.136 1.029 0.387 2.040 0.751 3.013 0.295 0.784 0.107 1.668-0.483 2.264l-1.363 1.361c1.555 2.7 3.736 4.881 6.353 6.392l0.083 0.044 1.363-1.361c0.388-0.383 0.92-0.619 1.509-0.619 0.271 0 0.53 0.050 0.769 0.142l-0.015-0.005c0.973 0.363 1.984 0.613 3.013 0.751 1.050 0.151 1.847 1.045 1.847 2.125 0 0.019-0 0.037-0.001 0.056l0-0.003z"></path>
    </symbol>
    <symbol id="close" viewBox="0 0 32 32">
      <path d="M32 3.223l-3.223-3.223-12.777 12.777-12.777-12.777-3.223 3.223 12.777 12.777-12.777 12.777 3.223 3.223 12.777-12.777 12.777 12.777 3.223-3.223-12.777-12.777 12.777-12.777z"></path>
    </symbol>
    <symbol id="logo" viewBox="0 0 38 32">
      <path d="M21.41 9.64l-0.709-0.571c-0.111-0.095-0.252-0.139-0.394-0.124s-0.272 0.088-0.363 0.204l-9.806 11.897 0.152 0.177 2.428-2.366c-0.081-0.034-0.148-0.098-0.189-0.179s-0.055-0.175-0.037-0.265c0.017-0.090 0.064-0.171 0.132-0.229s0.153-0.088 0.24-0.087c0.079 0 0.155 0.027 0.219 0.076s0.11 0.119 0.133 0.198l3.202-3.137c0.049-0.042 0.11-0.064 0.173-0.064s0.124 0.023 0.173 0.064l0.162 0.126c0.055 0.042 0.123 0.060 0.19 0.052s0.129-0.043 0.173-0.097l4.186-4.96c0.044-0.049 0.078-0.108 0.1-0.172s0.029-0.133 0.023-0.2c-0.006-0.068-0.026-0.133-0.058-0.192s-0.076-0.11-0.129-0.149z"></path>
      <path d="M26.018 12.989c-2.146 1.613-4.55 2.804-7.096 3.514-2.527 0.679-5.113 1.085-7.718 1.211 0.052 0.406 0.147 0.804 0.281 1.189 1.471 1.406 12.548-0.994 14.711-3.771 0.46-0.577-0.178-2.143-0.178-2.143zM12.864 18.857c-0.073 0-0.144-0.023-0.204-0.066s-0.108-0.103-0.136-0.174c-0.028-0.071-0.035-0.149-0.021-0.224s0.049-0.145 0.101-0.199 0.117-0.091 0.188-0.106c0.071-0.015 0.145-0.007 0.212 0.022s0.125 0.079 0.165 0.143 0.062 0.139 0.062 0.216c0.001 0.051-0.008 0.102-0.026 0.15s-0.045 0.091-0.080 0.127-0.075 0.065-0.12 0.084c-0.045 0.019-0.093 0.029-0.142 0.028z"></path>
      <path d="M2.399 12.166l0.087-0.394 1.406 0.337c0.116 0.226 0.188 0.475 0.211 0.731 0.027 0.271 0.010 0.546-0.049 0.811-0.070 0.369-0.23 0.712-0.465 0.994-0.223 0.267-0.511 0.464-0.833 0.571-0.332 0.108-0.684 0.122-1.022 0.040-0.339-0.077-0.651-0.251-0.903-0.503-0.248-0.242-0.426-0.553-0.514-0.897-0.097-0.374-0.097-0.769 0-1.143 0.058-0.28 0.162-0.547 0.308-0.789 0.138-0.22 0.323-0.402 0.541-0.531l0.195 0.314c-0.186 0.121-0.346 0.282-0.47 0.473s-0.206 0.408-0.244 0.635c-0.067 0.296-0.061 0.604 0.016 0.897 0.073 0.278 0.217 0.529 0.416 0.726 0.205 0.21 0.462 0.354 0.741 0.417 0.271 0.080 0.557 0.080 0.827 0 0.259-0.090 0.492-0.25 0.676-0.463 0.189-0.23 0.319-0.507 0.379-0.806 0.089-0.362 0.066-0.744-0.065-1.091l-1.239-0.331z"></path>
      <path d="M5.46 8.571l-1.26 1.777 0.541 1.023-0.249 0.354-2.001-3.857 0.233-0.337 4.073 0.926-0.254 0.354-1.082-0.24zM5.103 8.48l-2.163-0.514 1.082 2.051 1.082-1.537z"></path>
      <path d="M5.103 4.886l0.325-0.257 2.061 2.914 1.698-1.343 0.206 0.291-2.017 1.594-2.272-3.2z"></path>
      <path d="M8.51 2.503l0.362-0.171 1.428 3.303 1.931-0.926 0.141 0.331-2.293 1.103-1.569-3.64z"></path>
      <path d="M15.639 3.817l0.081 0.36-2.607 0.646-0.865-3.897 2.531-0.623 0.076 0.354-2.163 0.531 0.308 1.383 1.904-0.474 0.081 0.354-1.909 0.469 0.325 1.446 2.239-0.549z"></path>
      <path d="M19.354 3.96l-0.903-1.257c-0.101 0.006-0.202 0.006-0.303 0l-1.017 0.034 0.038 1.269h-0.4l-0.124-4 1.439-0.006c0.407-0.040 0.814 0.076 1.147 0.326 0.14 0.119 0.253 0.271 0.33 0.443s0.116 0.361 0.113 0.551c0.016 0.282-0.054 0.563-0.2 0.8-0.155 0.228-0.375 0.398-0.627 0.486l0.947 1.337-0.438 0.017zM18.976 2.080c0.097-0.094 0.173-0.211 0.22-0.34s0.067-0.269 0.055-0.408c0.003-0.139-0.024-0.278-0.080-0.405s-0.137-0.238-0.239-0.327c-0.249-0.179-0.549-0.261-0.849-0.234l-1.028 0.040 0.065 2 1.006-0.034c0.307 0.012 0.608-0.091 0.849-0.291z"></path>
      <path d="M22.216 2.897l-0.195 1.366-0.395-0.063 0.2-1.343-1.12-2.857 0.422 0.069 0.957 2.434 1.623-2.017 0.379 0.086-1.871 2.326z"></path>
      <path d="M27.565 2.657l0.471 0.646-0.206 0.171-0.471-0.663-0.297 0.749-0.227-0.103 0.303-0.749-0.779 0.109v-0.274l0.768-0.091-0.476-0.646 0.211-0.171 0.416 0.651 0.292-0.754 0.233 0.103-0.276 0.766 0.779-0.114v0.28l-0.741 0.091z"></path>
      <path d="M29.371 7.263c-0.128-0.208-0.207-0.445-0.233-0.691l0.319-0.149c0.024 0.226 0.094 0.445 0.206 0.64 0.121 0.219 0.278 0.412 0.465 0.571 0.193 0.195 0.439 0.321 0.703 0.36 0.096 0.009 0.192-0.006 0.28-0.045s0.167-0.1 0.228-0.178c0.045-0.052 0.079-0.114 0.1-0.181s0.030-0.138 0.024-0.208c-0.018-0.139-0.062-0.273-0.13-0.394-0.102-0.175-0.212-0.345-0.33-0.509-0.144-0.199-0.274-0.409-0.389-0.629-0.088-0.164-0.136-0.349-0.141-0.537-0-0.212 0.075-0.416 0.211-0.571 0.118-0.151 0.273-0.264 0.449-0.326 0.196-0.060 0.404-0.060 0.6 0 0.253 0.087 0.486 0.227 0.687 0.411 0.166 0.146 0.314 0.315 0.438 0.503 0.115 0.174 0.201 0.367 0.254 0.571l-0.308 0.171c-0.054-0.19-0.134-0.372-0.238-0.537-0.104-0.148-0.225-0.281-0.362-0.394-0.19-0.194-0.435-0.317-0.698-0.349-0.096-0.009-0.193 0.008-0.282 0.049s-0.166 0.104-0.226 0.185c-0.046 0.051-0.081 0.113-0.102 0.18s-0.029 0.138-0.022 0.209c0.013 0.144 0.057 0.283 0.13 0.406 0.076 0.131 0.184 0.303 0.33 0.509 0.145 0.195 0.275 0.401 0.389 0.617 0.090 0.164 0.14 0.348 0.146 0.537 0 0.212-0.075 0.416-0.211 0.571-0.118 0.153-0.276 0.266-0.454 0.326-0.196 0.062-0.405 0.062-0.6 0-0.254-0.087-0.49-0.227-0.692-0.411-0.218-0.201-0.401-0.441-0.541-0.709z"></path>
      <path d="M34.812 8.097l-0.763-1.143 0.281-0.211 1.758 2.651-0.281 0.211-0.763-1.143-2.823 2.086-0.227-0.349 2.818-2.103z"></path>
      <path d="M33.601 12.794c0.097-0.345 0.284-0.655 0.541-0.891 0.251-0.238 0.557-0.401 0.887-0.474 0.336-0.082 0.687-0.068 1.017 0.040 0.318 0.111 0.603 0.308 0.828 0.571 0.233 0.283 0.392 0.626 0.46 0.994 0.090 0.361 0.090 0.741 0 1.103-0.099 0.344-0.286 0.652-0.541 0.891-0.258 0.244-0.572 0.413-0.91 0.491s-0.69 0.062-1.021-0.046c-0.321-0.106-0.607-0.304-0.828-0.571-0.232-0.282-0.39-0.622-0.46-0.989-0.083-0.37-0.073-0.755 0.027-1.12zM34.309 14.611c0.181 0.217 0.415 0.377 0.676 0.463 0.27 0.083 0.554 0.092 0.828 0.028s0.529-0.199 0.74-0.394c0.2-0.194 0.347-0.441 0.427-0.714 0.075-0.289 0.083-0.593 0.022-0.886s-0.189-0.565-0.373-0.794c-0.188-0.218-0.43-0.378-0.698-0.463-0.273-0.077-0.56-0.077-0.833 0-0.275 0.056-0.53 0.192-0.736 0.394-0.202 0.195-0.349 0.444-0.427 0.72-0.073 0.29-0.073 0.596 0 0.886 0.059 0.284 0.188 0.546 0.373 0.76z"></path>
      <path d="M33.19 19.428l1.401-0.571c0-0.103 0.032-0.206 0.059-0.314l0.265-1.034-1.147-0.314 0.103-0.406 3.656 1.034-0.368 1.446c-0.083 0.422-0.305 0.799-0.627 1.063-0.148 0.109-0.318 0.18-0.496 0.207s-0.36 0.012-0.532-0.047c-0.261-0.060-0.495-0.212-0.663-0.431s-0.261-0.492-0.262-0.775l-1.493 0.571 0.103-0.429zM35.002 19.588c0.063 0.121 0.149 0.228 0.253 0.314s0.222 0.148 0.349 0.184c0.127 0.036 0.259 0.044 0.389 0.024s0.255-0.067 0.367-0.139c0.239-0.203 0.402-0.488 0.46-0.806l0.26-1.029-1.834-0.52-0.26 1.029c-0.1 0.306-0.094 0.64 0.016 0.943z"></path>
      <path d="M31.248 23.109l-0.276-0.223 1.623-2.257 3.018 2.417-1.568 2.189-0.276-0.223 1.325-1.846-1.082-0.863-1.184 1.651-0.27-0.217 1.212-1.651-1.12-0.897-1.401 1.92z"></path>
      <path d="M29.982 27.663l-0.773 0.046v-0.274l0.773-0.006-0.416-0.68 0.211-0.143 0.411 0.686 0.335-0.766 0.233 0.131-0.368 0.72 0.773-0.046v0.28h-0.784l0.416 0.68-0.211 0.143-0.411-0.686-0.357 0.743-0.227-0.137 0.395-0.691z"></path>
      <path d="M22.951 27.206l0.654 0.383c0.11-0.223 0.263-0.418 0.449-0.574s0.402-0.268 0.632-0.329c0.215-0.071 0.441-0.096 0.665-0.074 0.195 0.016 0.381 0.087 0.541 0.206 0.144 0.115 0.25 0.275 0.303 0.457 0.065 0.226 0.054 0.468-0.032 0.686-0.136 0.296-0.319 0.564-0.541 0.794 0.178 0.101 0.344 0.226 0.492 0.371 0.102 0.111 0.178 0.246 0.222 0.394 0.028 0.115 0.029 0.236 0.005 0.352s-0.074 0.224-0.146 0.317c-0.144 0.22-0.36 0.376-0.606 0.44-0.216 0.087-0.455 0.087-0.671 0-0.096-0.044-0.181-0.11-0.249-0.195s-0.116-0.184-0.141-0.291c-0.057-0.189-0.043-0.393 0.038-0.571 0.124-0.26 0.287-0.497 0.481-0.703l-1.303-0.766c-0.050 0.269-0.061 0.545-0.032 0.817h-0.33c-0.022-0.336 0.014-0.673 0.108-0.994l-0.681-0.4 0.141-0.32zM23.892 27.777l1.433 0.84c0.188-0.189 0.343-0.412 0.46-0.657 0.059-0.166 0.059-0.349 0-0.514-0.024-0.099-0.072-0.19-0.138-0.265s-0.149-0.131-0.241-0.164c-0.224-0.080-0.468-0.080-0.692 0-0.183 0.051-0.354 0.144-0.5 0.273s-0.263 0.289-0.344 0.47l0.022 0.017zM25.926 30.063c0.035-0.063 0.058-0.134 0.065-0.206s0-0.147-0.022-0.216c-0.033-0.113-0.093-0.215-0.173-0.297-0.138-0.123-0.288-0.228-0.449-0.314-0.164 0.171-0.308 0.363-0.427 0.571-0.065 0.13-0.081 0.281-0.043 0.423 0.017 0.065 0.047 0.126 0.088 0.178s0.092 0.095 0.15 0.124c0.138 0.055 0.29 0.055 0.427 0 0.147-0.041 0.275-0.137 0.362-0.269l0.022 0.006z"></path>
      <path d="M16.358 31.611l0.076-4h0.384l-0.059 3.2 1.536-2.663h0.189l1.439 2.709 0.054-3.183h0.384l-0.070 4h-0.33l-1.59-2.989-1.682 2.931-0.33-0.006z"></path>
      <path d="M14.476 27.429c0.247 0.249 0.424 0.566 0.511 0.915s0.080 0.717-0.019 1.062c-0.089 0.354-0.266 0.675-0.514 0.931-0.24 0.25-0.542 0.424-0.871 0.503-0.347 0.083-0.708 0.071-1.049-0.034-0.34-0.088-0.653-0.267-0.909-0.52-0.244-0.246-0.418-0.558-0.503-0.903-0.083-0.356-0.077-0.729 0.018-1.082s0.275-0.673 0.523-0.93c0.236-0.249 0.531-0.427 0.854-0.514 0.345-0.082 0.704-0.071 1.044 0.034 0.344 0.092 0.659 0.277 0.914 0.537zM12.632 27.229c-0.265 0.065-0.506 0.208-0.698 0.411-0.199 0.21-0.341 0.472-0.411 0.76-0.075 0.286-0.075 0.588 0 0.874 0.064 0.278 0.201 0.532 0.395 0.731 0.204 0.21 0.455 0.362 0.73 0.44 0.275 0.074 0.563 0.074 0.838 0 0.265-0.069 0.507-0.211 0.703-0.411 0.198-0.21 0.34-0.473 0.411-0.76 0.076-0.288 0.076-0.592 0-0.88-0.069-0.277-0.207-0.53-0.4-0.731-0.205-0.211-0.458-0.36-0.736-0.434-0.273-0.080-0.56-0.080-0.833 0z"></path>
      <path d="M8.537 24.571l0.146 1.571c0.093 0.042 0.183 0.090 0.27 0.143l0.882 0.537 0.595-1.109 0.352 0.211-1.893 3.446-1.233-0.749c-0.364-0.193-0.652-0.517-0.811-0.914-0.059-0.179-0.079-0.369-0.058-0.557s0.081-0.369 0.177-0.529c0.126-0.25 0.325-0.451 0.568-0.571 0.247-0.108 0.52-0.13 0.779-0.063l-0.157-1.68 0.384 0.263zM7.921 26.377c-0.127 0.034-0.246 0.094-0.351 0.178s-0.192 0.188-0.257 0.308c-0.065 0.12-0.107 0.253-0.122 0.39s-0.005 0.277 0.032 0.41c0.127 0.296 0.346 0.536 0.622 0.68l0.871 0.531 0.947-1.714-0.871-0.531c-0.25-0.198-0.558-0.297-0.871-0.28v0.029z"></path>
      <path d="M5.335 21.892l0.243-0.257 1.866 2.029-2.704 2.789-1.801-1.966 0.249-0.257 1.531 1.663 0.925-0.989-1.341-1.474 0.26-0.263 1.368 1.486 1.006-1.034-1.601-1.726z"></path>
      <path d="M1.316 19.646l0.13-0.789 0.254 0.040-0.146 0.811 0.719-0.28 0.087 0.251-0.73 0.263 0.6 0.537-0.173 0.206-0.579-0.571-0.135 0.811-0.26-0.051 0.151-0.811-0.725 0.274-0.081-0.223 0.725-0.269-0.6-0.531 0.178-0.206 0.584 0.537z"></path>
    </symbol>
    <symbol id="close-mobile-menu" viewBox="0 0 32 32">
      <path d="M23.733 10.304l-1.504-1.504-5.963 5.963-5.963-5.963-1.504 1.504 5.963 5.963-5.963 5.963 1.504 1.504 5.963-5.963 5.963 5.963 1.504-1.504-5.963-5.963 5.963-5.963z"></path>
    </symbol>
  </defs>
</svg>
