<svg aria-hidden="true" style="position: absolute; width: 0; height: 0; overflow: hidden;" version="1.1" xmlns="http://www.w3.org/2000/svg" xmlns:xlink="http://www.w3.org/1999/xlink">
<defs>


<symbol id="icon-favorite" viewBox="0 0 32 32">
<path  d="M16 30.144l-2.24-2.217c-8.32-7.287-13.76-12.201-13.76-18.217 0-4.917 3.84-8.715 8.8-8.715 2.72 0.002 5.44 1.269 7.2 3.326 1.761-2.019 4.329-3.296 7.195-3.323l0.005-0c4.96 0 8.8 3.801 8.8 8.711 0 6.021-5.44 10.933-13.76 18.217l-2.24 2.219z"></path>
</symbol>

<symbol id="icon-close" viewBox="0 0 32 32">
<path d="M32 3.223l-3.223-3.223-12.777 12.777-12.777-12.777-3.223 3.223 12.777 12.777-12.777 12.777 3.223 3.223 12.777-12.777 12.777 12.777 3.223-3.223-12.777-12.777 12.777-12.777z"></path>
</symbol>

<symbol id="icon-close-modal" viewBox="0 0 32 32">
<path d="M23.734 10.304l-1.504-1.504-5.963 5.962-5.962-5.962-1.504 1.504 5.962 5.962-5.962 5.963 1.504 1.504 5.962-5.963 5.963 5.963 1.504-1.504-5.963-5.963 5.963-5.962z"></path>
</symbol>




<symbol id="icon-film" viewBox="0 0 32 32">
<path fill="none" stroke="red" style="stroke: var(--color1, #fff)" stroke-linejoin="round" stroke-linecap="round" stroke-miterlimit="4" stroke-width="2.6667" d="M26.427 2.667h-20.853c-1.605 0-2.907 1.301-2.907 2.907v0 20.853c0 1.605 1.301 2.907 2.907 2.907v0h20.853c1.605 0 2.907-1.301 2.907-2.907v0-20.853c0-1.605-1.301-2.907-2.907-2.907v0zM9.333 2.667v26.667M22.667 2.667v26.667M2.667 16h26.667M2.667 9.333h6.667M2.667 22.667h6.667M22.667 22.667h6.667M22.667 9.333h6.667"></path>
</symbol>
<symbol id="icon-search" viewBox="0 0 32 32">
<path fill="none" stroke="#fff" style="stroke: var(--color1, #fff)" stroke-linejoin="round" stroke-linecap="round" stroke-miterlimit="4" stroke-width="2.6667" d="M14.667 25.333c5.891 0 10.667-4.776 10.667-10.667s-4.776-10.667-10.667-10.667v0c-5.891 0-10.667 4.776-10.667 10.667s4.776 10.667 10.667 10.667v0zM28 28l-5.8-5.8"></path>
</symbol>

<symbol id="icon-arrow-right" viewBox="0 0 32 32">
<path d="M19.414 27.414l10-10c0.781-0.781 0.781-2.047 0-2.828l-10-10c-0.781-0.781-2.047-0.781-2.828 0s-0.781 2.047 0 2.828l6.586 6.586h-19.172c-1.105 0-2 0.895-2 2s0.895 2 2 2h19.172l-6.586 6.586c-0.39 0.39-0.586 0.902-0.586 1.414s0.195 1.024 0.586 1.414c0.781 0.781 2.047 0.781 2.828 0z"></path>
</symbol>

<symbol id="icon-arrow-left" viewBox="0 0 32 32">
<path d="M12.586 27.414l-10-10c-0.781-0.781-0.781-2.047 0-2.828l10-10c0.781-0.781 2.047-0.781 2.828 0s0.781 2.047 0 2.828l-6.586 6.586h19.172c1.105 0 2 0.895 2 2s-0.895 2-2 2h-19.172l6.586 6.586c0.39 0.39 0.586 0.902 0.586 1.414s-0.195 1.024-0.586 1.414c-0.781 0.781-2.047 0.781-2.828 0z"></path>
</symbol>

<symbol id="icon-arrow-up" viewBox="0 0 32 32">
<path d="M27.414 12.586l-10-10c-0.781-0.781-2.047-0.781-2.828 0l-10 10c-0.781 0.781-0.781 2.047 0 2.828s2.047 0.781 2.828 0l6.586-6.586v19.172c0 1.105 0.895 2 2 2s2-0.895 2-2v-19.172l6.586 6.586c0.39 0.39 0.902 0.586 1.414 0.586s1.024-0.195 1.414-0.586c0.781-0.781 0.781-2.047 0-2.828z"></path>
</symbol>

<symbol id="icon-cinema" viewBox="0 0 32 32">
<path fill="#ffa500" style="fill: var(--color1, #ffa500)" d="M27.831 14.486c-0.324 0-0.66 0.068-0.999 0.201l-3.886 1.526c1.323-1.287 2.147-3.085 2.147-5.072 0-3.905-3.177-7.081-7.081-7.081-3.43 0-6.298 2.452-6.944 5.695-0.917-0.959-2.207-1.558-3.636-1.558-2.775 0-5.032 2.257-5.032 5.032 0 1.732 0.879 3.261 2.215 4.167-0.073 0.028-0.135 0.060-0.194 0.097l0.004-0.003c-0.302 0.197-0.499 0.533-0.499 0.915v0 7.142c0 1.32 1.074 2.394 2.394 2.394h13.384c1.32 0 2.394-1.074 2.394-2.394v-2.726c0.238 0.183 0.511 0.341 0.802 0.46l0.023 0.008 3.908 1.535c0.339 0.133 0.675 0.201 0.998 0.201 1.025 0 1.769-0.694 1.769-1.652v-7.237c0-0.957-0.744-1.651-1.769-1.651z"></path>
<path fill="#000000" style="fill: var(--color2, #000000)" d="M28.657 23.338c0 0.518-0.577 0.715-1.282 0.438l-3.908-1.535c-0.705-0.277-1.282-0.927-1.282-1.445v-2.153c0-0.518 0.577-1.168 1.282-1.445l3.908-1.535c0.705-0.277 1.282-0.080 1.282 0.438v7.236z"></path>
<path fill="#000000" style="fill: var(--color2, #000000)" d="M18.157 5.111c-3.31 0-5.993 2.683-5.993 5.993s2.683 5.994 5.993 5.994 5.993-2.684 5.993-5.994c0-3.31-2.683-5.993-5.993-5.993zM16.331 10.224c-0.826-0.433-1.793-1.145-2.055-1.407-0.437-0.437-0.146-0.855 0.291-1.292s0.855-0.728 1.292-0.291c0.262 0.262 0.974 1.229 1.407 2.055-0.432 0.167-0.768 0.503-0.932 0.924l-0.004 0.011zM18.157 12.38c-0.705 0-1.276-0.571-1.276-1.276s0.571-1.276 1.276-1.276v0c0.705 0 1.276 0.571 1.276 1.276s-0.571 1.276-1.276 1.276v0z"></path>
<path fill="#000000" style="fill: var(--color2, #000000)" d="M7.577 9.248c-2.178 0-3.944 1.766-3.944 3.944s1.766 3.944 3.944 3.944 3.944-1.766 3.944-3.944-1.766-3.944-3.944-3.944zM6.067 15.71c-0.307 0.307-0.601 0.103-0.908-0.205s-0.512-0.601-0.205-0.908c0.184-0.184 0.864-0.685 1.445-0.989 0.118 0.304 0.354 0.54 0.65 0.655l0.008 0.003c-0.305 0.581-0.805 1.26-0.989 1.445zM7.577 14.038c-0.468 0-0.847-0.379-0.847-0.847s0.379-0.847 0.847-0.847v0c0.468 0 0.847 0.379 0.847 0.847s-0.379 0.847-0.847 0.847v0z"></path>
<path fill="#000000" style="fill: var(--color2, #000000)" d="M18.084 18.839c-2.151 0-4.099-0.883-5.502-2.306h-0.483c-1.035 1.419-2.708 2.343-4.595 2.343-0.836 0-1.629-0.183-2.345-0.508v7.142c0.002 0.72 0.586 1.304 1.306 1.306h13.384c0.72-0.002 1.304-0.586 1.306-1.306v-7.309c-0.903 0.403-1.957 0.637-3.065 0.637-0.002 0-0.004 0-0.006 0h0z"></path>
</symbol>
<symbol id="icon-membrane" viewBox="0 0 32 32">
<path fill="#ffa500" style="fill: var(--color1, #ffa500)" d="M8.348 27.396c-2.195 0-4.15-0.757-5.977-2.313-0.383-0.326-0.771-0.937-0.771-1.567v-15.031c0-0.733 0.557-1.308 1.268-1.308 0.24 0 0.606 0.068 0.988 0.394 1.396 1.189 2.865 1.767 4.491 1.767h0.001c2.298-0 4.664-1.098 7.169-2.26 2.621-1.216 5.331-2.473 8.135-2.473 2.195 0 4.15 0.757 5.978 2.313 0.383 0.325 0.771 0.937 0.771 1.567v15.031c0 0.733-0.557 1.308-1.268 1.308-0.24 0-0.606-0.068-0.988-0.394-1.396-1.189-2.865-1.766-4.492-1.766-2.298 0-4.664 1.098-7.169 2.26-2.621 1.216-5.331 2.473-8.134 2.473h-0.001z"></path>
<path fill="#000000" style="fill: var(--color2, #000000)" d="M2.746 23.516c0 0.202 0.165 0.523 0.368 0.695 8.591 7.317 17.181-7.971 25.772-0.654 0.202 0.172 0.367 0.162 0.367-0.041v-15.031c0-0.202-0.165-0.523-0.367-0.694-8.591-7.317-17.182 7.971-25.772 0.654-0.202-0.172-0.368-0.162-0.368 0.041v15.031zM28.223 20.171c0.202 0.145 0.368 0.443 0.368 0.645v0.75c0 0.203-0.165 0.235-0.368 0.090-0.419-0.308-0.895-0.591-1.397-0.826l-0.052-0.022c-0.202-0.092-0.367-0.321-0.367-0.524v-0.75c0-0.202 0.165-0.304 0.367-0.212 0.555 0.257 1.030 0.54 1.474 0.864l-0.024-0.017zM24.481 18.695c0.203 0.021 0.368 0.213 0.368 0.416v0.75c0 0.203-0.165 0.34-0.368 0.319-0.483-0.051-0.966-0.055-1.45-0.021-0.202 0.014-0.367-0.132-0.367-0.333v-0.75c-0-0.202 0.165-0.387 0.367-0.402 0.182-0.014 0.394-0.023 0.608-0.023 0.297 0 0.589 0.016 0.878 0.047l-0.036-0.003zM20.74 19.1c0.202-0.058 0.367 0.066 0.368 0.268v0.75c0 0.202-0.165 0.409-0.368 0.468-0.621 0.179-1.103 0.344-1.575 0.529l0.125-0.043c-0.202 0.076-0.367-0.023-0.367-0.225v-0.75c0-0.202 0.165-0.433 0.367-0.51 0.347-0.141 0.829-0.307 1.32-0.452l0.13-0.033zM16.998 20.558c0.202-0.092 0.367-0.001 0.367 0.201v0.75c0 0.202-0.165 0.442-0.367 0.534-0.483 0.22-0.966 0.446-1.45 0.67-0.202 0.093-0.368 0.004-0.368-0.198v-0.75c0-0.202 0.165-0.443 0.368-0.537 0.483-0.223 0.966-0.449 1.45-0.67zM13.256 22.236c0.202-0.082 0.368 0.014 0.368 0.216v0.75c0 0.202-0.165 0.437-0.368 0.519-0.483 0.195-0.966 0.375-1.45 0.532-0.202 0.066-0.368-0.051-0.368-0.253v-0.75c0-0.203 0.165-0.417 0.368-0.482 0.642-0.209 1.122-0.389 1.594-0.586l-0.145 0.053zM9.515 23.307c0.202-0.026 0.368 0.11 0.368 0.313v0.75c0 0.202-0.165 0.396-0.368 0.422-0.483 0.063-0.966 0.090-1.45 0.074-0.202-0.007-0.368-0.187-0.368-0.389v-0.75c0-0.202 0.165-0.353 0.368-0.346 0.483 0.017 0.966-0.011 1.45-0.074zM5.773 22.938c0.202 0.074 0.368 0.288 0.368 0.491v0.75c0 0.202-0.165 0.318-0.368 0.244-0.557-0.207-1.035-0.445-1.483-0.727l0.033 0.019c-0.202-0.124-0.368-0.405-0.368-0.607v-0.75c0-0.203 0.165-0.253 0.368-0.128 0.483 0.298 0.967 0.531 1.45 0.707zM26.338 10.099c0.202 0.077 0.367 0.317 0.367 0.519v6.965c0 0.203-0.165 0.293-0.367 0.216-1.886-0.722-3.772-0.57-5.659-0.022-0.202 0.059-0.367-0.054-0.367-0.256v-6.965c0-0.202 0.165-0.42 0.367-0.479 1.886-0.548 3.772-0.7 5.659 0.021zM18.565 10.831c0.202-0.083 0.368 0.017 0.368 0.219v6.965c0 0.202-0.165 0.433-0.368 0.516-1.886 0.777-3.773 1.77-5.659 2.502-0.202 0.079-0.368-0.026-0.368-0.228v-6.965c0-0.202 0.165-0.428 0.368-0.507 1.886-0.732 3.773-1.726 5.659-2.503zM10.793 14.020c0.202-0.050 0.368 0.068 0.368 0.27v6.965c0 0.202-0.165 0.414-0.368 0.465-1.886 0.47-3.773 0.499-5.659-0.39-0.202-0.095-0.368-0.351-0.368-0.553v-6.965c0-0.202 0.165-0.277 0.368-0.182 1.886 0.89 3.773 0.86 5.659 0.39zM28.1 8.16c0.202 0.14 0.367 0.435 0.367 0.636v0.75c0 0.202-0.165 0.239-0.367 0.099-0.418-0.297-0.894-0.57-1.396-0.794l-0.053-0.021c-0.202-0.088-0.367-0.314-0.367-0.516v-0.75c0-0.202 0.165-0.307 0.367-0.219 0.555 0.246 1.032 0.518 1.476 0.833l-0.026-0.018zM24.358 6.759c0.202 0.018 0.368 0.207 0.368 0.41v0.75c0 0.202-0.165 0.343-0.368 0.325-0.215-0.020-0.465-0.031-0.718-0.031-0.258 0-0.513 0.012-0.764 0.035l0.032-0.002c-0.202 0.017-0.368-0.126-0.368-0.329v-0.75c0-0.202 0.165-0.389 0.368-0.406 0.483-0.042 0.966-0.044 1.45-0.001zM20.616 7.212c0.202-0.060 0.368 0.062 0.368 0.264v0.75c0 0.202-0.165 0.411-0.368 0.471-0.483 0.143-0.966 0.311-1.45 0.497-0.202 0.078-0.368-0.021-0.368-0.223v-0.75c0-0.202 0.165-0.434 0.368-0.512 0.483-0.186 0.966-0.354 1.45-0.496zM16.875 8.69c0.202-0.092 0.368-0.002 0.368 0.2v0.75c0 0.202-0.165 0.442-0.368 0.535-0.483 0.221-0.967 0.447-1.45 0.67-0.202 0.093-0.368 0.004-0.368-0.199v-0.75c0-0.202 0.165-0.443 0.368-0.536 0.483-0.223 0.967-0.449 1.45-0.67zM13.133 10.362c0.202-0.081 0.368 0.016 0.368 0.218v0.75c0 0.202-0.165 0.436-0.368 0.517-0.332 0.143-0.812 0.32-1.301 0.48l-0.149 0.042c-0.202 0.064-0.367-0.054-0.368-0.256v-0.75c0-0.202 0.165-0.415 0.368-0.479 0.636-0.202 1.117-0.379 1.589-0.573l-0.139 0.051zM9.391 11.398c0.202-0.024 0.368 0.115 0.368 0.317v0.75c0 0.202-0.165 0.394-0.368 0.418-0.483 0.057-0.966 0.077-1.45 0.053-0.202-0.010-0.368-0.193-0.368-0.395v-0.75c0-0.202 0.165-0.35 0.368-0.34 0.483 0.025 0.966 0.004 1.45-0.052zM5.65 10.968c0.202 0.078 0.368 0.296 0.368 0.498v0.75c0 0.202-0.165 0.315-0.368 0.237-0.557-0.218-1.034-0.466-1.481-0.757l0.031 0.019c-0.202-0.129-0.368-0.413-0.368-0.615v-0.75c0-0.202 0.165-0.249 0.368-0.12 0.416 0.272 0.893 0.52 1.395 0.719l0.055 0.019z"></path>
</symbol>
<symbol id="icon-clapper" viewBox="0 0 32 32">
<path fill="#000000" style="fill: var(--color3, #000000)" stroke-linejoin="round" stroke-linecap="round" stroke-miterlimit="10" stroke-width="0.56" stroke="#000" d="M5.152 17.312h22.848v10.816h-22.848v-10.816z"></path>
<path fill="#ffa500" style="fill: var(--color4, #ffa500)" stroke-linejoin="round" stroke-linecap="round" stroke-miterlimit="10" stroke-width="0.56" stroke="#000" d="M28 12.832h-6.4l-4.48 4.48h6.752l4.128-4.128z"></path>
<path fill="#ffa500" style="fill: var(--color4, #ffa500)" stroke-linejoin="round" stroke-linecap="round" stroke-miterlimit="10" stroke-width="0.56" stroke="#000" d="M9.792 12.832l-4.48 4.48h6.304l4.48-4.48z"></path>
<path fill="#000000" style="fill: var(--color5, #000000)" stroke-linejoin="round" stroke-linecap="round" stroke-miterlimit="10" stroke-width="0.56" stroke="#000" d="M5.152 12.832v4.48h0.16l4.48-4.48z"></path>
<path fill="#000000" style="fill: var(--color5, #000000)" stroke-linejoin="round" stroke-linecap="round" stroke-miterlimit="10" stroke-width="0.56" stroke="#000" d="M16.096 12.832l-4.48 4.48h5.504l4.48-4.48z"></path>
<path fill="#000000" style="fill: var(--color5, #000000)" stroke-linejoin="round" stroke-linecap="round" stroke-miterlimit="10" stroke-width="0.56" stroke="#000" d="M28 13.184l-4.128 4.128h4.128z"></path>
<path fill="#ffa500" style="fill: var(--color4, #ffa500)" stroke-linejoin="round" stroke-linecap="round" stroke-miterlimit="10" stroke-width="0.56" stroke="#000" d="M26.048 2.592l-6.144 1.664-3.168 5.472 6.496-1.728 2.912-5.088z"></path>
<path fill="#ffa500" style="fill: var(--color4, #ffa500)" stroke-linejoin="round" stroke-linecap="round" stroke-miterlimit="10" stroke-width="0.56" stroke="#000" d="M8.48 7.296l-3.2 5.504 6.112-1.632 3.168-5.504z"></path>
<path fill="#000000" style="fill: var(--color5, #000000)" stroke-linejoin="round" stroke-linecap="round" stroke-miterlimit="10" stroke-width="0.56" stroke="#000" d="M4 8.512l1.152 4.32 0.128-0.032 3.2-5.504z"></path>
<path fill="#000000" style="fill: var(--color5, #000000)" stroke-linejoin="round" stroke-linecap="round" stroke-miterlimit="10" stroke-width="0.56" stroke="#000" d="M14.56 5.664l-3.168 5.504 5.344-1.44 3.168-5.472z"></path>
<path fill="#000000" style="fill: var(--color5, #000000)" stroke-linejoin="round" stroke-linecap="round" stroke-miterlimit="10" stroke-width="0.56" stroke="#000" d="M26.144 2.912l-2.912 5.088 4-1.088z"></path>
<path fill="#ffa500" style="fill: var(--color4, #ffa500)" stroke-linejoin="round" stroke-linecap="round" stroke-miterlimit="10" stroke-width="0.56" stroke="#000" d="M14.368 25.728v-5.984l5.696 2.976z"></path>

</symbol>


<symbol id="icon-moon" viewBox="0 0 20 20">
<path d="M13.719 1.8c0.686 0.385 1.332 0.867 1.916 1.449 3.42 3.422 3.42 8.966 0 12.386s-8.965 3.42-12.386 0c-0.583-0.584-1.065-1.231-1.449-1.916 3.335 1.867 7.633 1.387 10.469-1.449s3.318-7.134 1.45-10.47z"></path>
</symbol>

<symbol id="icon-sun" viewBox="0 0 32 32">
<path d="M16 26c1.105 0 2 0.895 2 2v2c0 1.105-0.895 2-2 2s-2-0.895-2-2v-2c0-1.105 0.895-2 2-2zM16 6c-1.105 0-2-0.895-2-2v-2c0-1.105 0.895-2 2-2s2 0.895 2 2v2c0 1.105-0.895 2-2 2zM30 14c1.105 0 2 0.895 2 2s-0.895 2-2 2h-2c-1.105 0-2-0.895-2-2s0.895-2 2-2h2zM6 16c0 1.105-0.895 2-2 2h-2c-1.105 0-2-0.895-2-2s0.895-2 2-2h2c1.105 0 2 0.895 2 2zM25.899 23.071l1.414 1.414c0.781 0.781 0.781 2.047 0 2.828s-2.047 0.781-2.828 0l-1.414-1.414c-0.781-0.781-0.781-2.047 0-2.828s2.047-0.781 2.828 0zM6.101 8.929l-1.414-1.414c-0.781-0.781-0.781-2.047 0-2.828s2.047-0.781 2.828 0l1.414 1.414c0.781 0.781 0.781 2.047 0 2.828s-2.047 0.781-2.828 0zM25.899 8.929c-0.781 0.781-2.047 0.781-2.828 0s-0.781-2.047 0-2.828l1.414-1.414c0.781-0.781 2.047-0.781 2.828 0s0.781 2.047 0 2.828l-1.414 1.414zM6.101 23.071c0.781-0.781 2.047-0.781 2.828 0s0.781 2.047 0 2.828l-1.414 1.414c-0.781 0.781-2.047 0.781-2.828 0s-0.781-2.047 0-2.828l1.414-1.414z"></path>
<path d="M16 8c-4.418 0-8 3.582-8 8s3.582 8 8 8c4.418 0 8-3.582 8-8s-3.582-8-8-8zM16 21c-2.761 0-5-2.239-5-5s2.239-5 5-5 5 2.239 5 5-2.239 5-5 5z"></path>
</symbol>



</defs>
</svg>
